G04*
G04 #@! TF.GenerationSoftware,Altium Limited,Altium Designer,26.3.0 (6)*
G04*
G04 Layer_Color=8388736*
%FSLAX25Y25*%
%MOIN*%
G70*
G04*
G04 #@! TF.SameCoordinates,927701EA-1D1E-42AD-BD00-A5B8B9AD9BF4*
G04*
G04*
G04 #@! TF.FilePolarity,Negative*
G04*
G01*
G75*
%ADD15R,0.03543X0.03150*%
%ADD16R,0.04188X0.04182*%
%ADD17R,0.03381X0.03591*%
%ADD18C,0.07296*%
%ADD19O,0.04343X0.03753*%
%ADD20C,0.19698*%
%ADD21R,0.07296X0.07296*%
%ADD22R,0.03753X0.04343*%
%ADD23O,0.03753X0.04343*%
D15*
X386154Y398000D02*
D03*
X392847D02*
D03*
X374838Y438000D02*
D03*
X381531D02*
D03*
X375154Y406000D02*
D03*
X374838Y430500D02*
D03*
X385838Y373500D02*
D03*
X381846Y406000D02*
D03*
X392531Y373500D02*
D03*
X381531Y430500D02*
D03*
D16*
X394265Y382000D02*
D03*
X376735Y422000D02*
D03*
X383265D02*
D03*
X387735Y382000D02*
D03*
X387735Y365000D02*
D03*
X394265D02*
D03*
D17*
X392558Y390500D02*
D03*
X375442Y413472D02*
D03*
X381558D02*
D03*
X386442Y390500D02*
D03*
D18*
X428000Y422031D02*
D03*
X448000Y394984D02*
D03*
Y404000D02*
D03*
Y413016D02*
D03*
Y422031D02*
D03*
Y431047D02*
D03*
X438000Y399492D02*
D03*
Y408508D02*
D03*
Y417524D02*
D03*
Y426539D02*
D03*
Y435555D02*
D03*
X428000Y394984D02*
D03*
Y404000D02*
D03*
Y413016D02*
D03*
D19*
X362329Y399948D02*
D03*
Y199948D02*
D03*
X367329D02*
D03*
X362329Y204948D02*
D03*
X367329D02*
D03*
X362329Y209948D02*
D03*
X367329D02*
D03*
X362329Y214948D02*
D03*
X367329D02*
D03*
X362329Y219948D02*
D03*
X367329D02*
D03*
X362329Y224948D02*
D03*
X367329D02*
D03*
X362329Y229948D02*
D03*
X367329D02*
D03*
X362329Y234948D02*
D03*
X367329D02*
D03*
X362329Y239948D02*
D03*
X367329D02*
D03*
X362329Y244948D02*
D03*
X367329D02*
D03*
X362329Y249948D02*
D03*
X367329D02*
D03*
X362329Y254948D02*
D03*
X367329D02*
D03*
X362329Y259948D02*
D03*
X367329D02*
D03*
X362329Y264948D02*
D03*
X367329D02*
D03*
X362329Y269948D02*
D03*
X367329D02*
D03*
X362329Y274948D02*
D03*
X367329D02*
D03*
X362329Y279948D02*
D03*
X367329D02*
D03*
X362329Y284948D02*
D03*
X367329D02*
D03*
X362329Y289948D02*
D03*
X367329D02*
D03*
X362329Y294948D02*
D03*
X367329D02*
D03*
X362329Y299948D02*
D03*
X367329D02*
D03*
X362329Y304948D02*
D03*
X367329D02*
D03*
X362329Y309948D02*
D03*
X367329D02*
D03*
X362329Y314948D02*
D03*
X367329D02*
D03*
X362329Y319948D02*
D03*
X367329D02*
D03*
X362329Y324948D02*
D03*
X367329D02*
D03*
X362329Y329948D02*
D03*
X367329D02*
D03*
X362329Y334948D02*
D03*
X367329D02*
D03*
X362329Y339948D02*
D03*
X367329D02*
D03*
X362329Y344948D02*
D03*
X367329D02*
D03*
X362329Y349948D02*
D03*
X367329D02*
D03*
X362329Y354948D02*
D03*
X367329D02*
D03*
X362329Y359948D02*
D03*
X367329D02*
D03*
X362329Y364948D02*
D03*
X367329D02*
D03*
X362329Y369948D02*
D03*
X367329D02*
D03*
X362329Y374948D02*
D03*
X367329D02*
D03*
X362329Y379948D02*
D03*
X367329D02*
D03*
X362329Y384948D02*
D03*
X367329D02*
D03*
X362329Y389948D02*
D03*
X367329D02*
D03*
X362329Y394948D02*
D03*
X367329D02*
D03*
Y399948D02*
D03*
D20*
X438000Y364807D02*
D03*
Y463193D02*
D03*
D21*
X428000Y431047D02*
D03*
D22*
X107329Y204948D02*
D03*
Y444948D02*
D03*
D23*
Y199948D02*
D03*
X112329Y204948D02*
D03*
Y199948D02*
D03*
X117329Y204948D02*
D03*
Y199948D02*
D03*
X122329Y204948D02*
D03*
Y199948D02*
D03*
X127329Y204948D02*
D03*
Y199948D02*
D03*
X132329Y204948D02*
D03*
Y199948D02*
D03*
X137329Y204948D02*
D03*
Y199948D02*
D03*
X142329Y204948D02*
D03*
Y199948D02*
D03*
X147329Y204948D02*
D03*
Y199948D02*
D03*
X152329Y204948D02*
D03*
Y199948D02*
D03*
X157329Y204948D02*
D03*
Y199948D02*
D03*
X162329Y204948D02*
D03*
Y199948D02*
D03*
X167329Y204948D02*
D03*
Y199948D02*
D03*
X172329Y204948D02*
D03*
Y199948D02*
D03*
X177329Y204948D02*
D03*
Y199948D02*
D03*
X182329Y204948D02*
D03*
Y199948D02*
D03*
X187329Y204948D02*
D03*
Y199948D02*
D03*
X192329Y204948D02*
D03*
Y199948D02*
D03*
X197329Y204948D02*
D03*
Y199948D02*
D03*
X202329Y204948D02*
D03*
Y199948D02*
D03*
X207329Y204948D02*
D03*
Y199948D02*
D03*
X212329Y204948D02*
D03*
Y199948D02*
D03*
X217329Y204948D02*
D03*
Y199948D02*
D03*
X222329Y204948D02*
D03*
Y199948D02*
D03*
X227329Y204948D02*
D03*
Y199948D02*
D03*
X232329Y204948D02*
D03*
Y199948D02*
D03*
X237329Y204948D02*
D03*
Y199948D02*
D03*
X242329Y204948D02*
D03*
Y199948D02*
D03*
X247329Y204948D02*
D03*
Y199948D02*
D03*
X252329Y204948D02*
D03*
Y199948D02*
D03*
X257329Y204948D02*
D03*
Y199948D02*
D03*
X262329Y204948D02*
D03*
Y199948D02*
D03*
X267329Y204948D02*
D03*
Y199948D02*
D03*
X272329Y204948D02*
D03*
Y199948D02*
D03*
X277329Y204948D02*
D03*
Y199948D02*
D03*
X282329Y204948D02*
D03*
Y199948D02*
D03*
X287329Y204948D02*
D03*
Y199948D02*
D03*
X292329Y204948D02*
D03*
Y199948D02*
D03*
X297329Y204948D02*
D03*
Y199948D02*
D03*
X302329Y204948D02*
D03*
Y199948D02*
D03*
X307329Y204948D02*
D03*
Y199948D02*
D03*
X312329Y204948D02*
D03*
Y199948D02*
D03*
X317329Y204948D02*
D03*
Y199948D02*
D03*
X322329Y204948D02*
D03*
Y199948D02*
D03*
X327329Y204948D02*
D03*
Y199948D02*
D03*
X332329Y204948D02*
D03*
Y199948D02*
D03*
X337329Y204948D02*
D03*
Y199948D02*
D03*
X342329Y204948D02*
D03*
Y199948D02*
D03*
X347329Y204948D02*
D03*
Y199948D02*
D03*
X352329Y204948D02*
D03*
Y199948D02*
D03*
X107329Y439948D02*
D03*
X112329Y444948D02*
D03*
Y439948D02*
D03*
X117329Y444948D02*
D03*
Y439948D02*
D03*
X122329Y444948D02*
D03*
Y439948D02*
D03*
X127329Y444948D02*
D03*
Y439948D02*
D03*
X132329Y444948D02*
D03*
Y439948D02*
D03*
X137329Y444948D02*
D03*
Y439948D02*
D03*
X142329Y444948D02*
D03*
Y439948D02*
D03*
X147329Y444948D02*
D03*
Y439948D02*
D03*
X152329Y444948D02*
D03*
Y439948D02*
D03*
X157329Y444948D02*
D03*
Y439948D02*
D03*
X162329Y444948D02*
D03*
Y439948D02*
D03*
X167329Y444948D02*
D03*
Y439948D02*
D03*
X172329Y444948D02*
D03*
Y439948D02*
D03*
X177329Y444948D02*
D03*
Y439948D02*
D03*
X182329Y444948D02*
D03*
Y439948D02*
D03*
X187329Y444948D02*
D03*
Y439948D02*
D03*
X192329Y444948D02*
D03*
Y439948D02*
D03*
X197329Y444948D02*
D03*
Y439948D02*
D03*
X202329Y444948D02*
D03*
Y439948D02*
D03*
X207329Y444948D02*
D03*
Y439948D02*
D03*
X212329Y444948D02*
D03*
Y439948D02*
D03*
X217329Y444948D02*
D03*
Y439948D02*
D03*
X222329Y444948D02*
D03*
Y439948D02*
D03*
X227329Y444948D02*
D03*
Y439948D02*
D03*
X232329Y444948D02*
D03*
Y439948D02*
D03*
X237329Y444948D02*
D03*
Y439948D02*
D03*
X242329Y444948D02*
D03*
Y439948D02*
D03*
X247329Y444948D02*
D03*
Y439948D02*
D03*
X252329Y444948D02*
D03*
Y439948D02*
D03*
X257329Y444948D02*
D03*
Y439948D02*
D03*
X262329Y444948D02*
D03*
Y439948D02*
D03*
X267329Y444948D02*
D03*
Y439948D02*
D03*
X272329Y444948D02*
D03*
Y439948D02*
D03*
X277329Y444948D02*
D03*
Y439948D02*
D03*
X282329Y444948D02*
D03*
Y439948D02*
D03*
X287329Y444948D02*
D03*
Y439948D02*
D03*
X292329Y444948D02*
D03*
Y439948D02*
D03*
X297329Y444948D02*
D03*
Y439948D02*
D03*
X302329Y444948D02*
D03*
Y439948D02*
D03*
X307329Y444948D02*
D03*
Y439948D02*
D03*
X312329Y444948D02*
D03*
Y439948D02*
D03*
X317329Y444948D02*
D03*
Y439948D02*
D03*
X322329Y444948D02*
D03*
Y439948D02*
D03*
X327329Y444948D02*
D03*
Y439948D02*
D03*
X332329Y444948D02*
D03*
Y439948D02*
D03*
X337329Y444948D02*
D03*
Y439948D02*
D03*
X342329Y444948D02*
D03*
Y439948D02*
D03*
X347329Y444948D02*
D03*
Y439948D02*
D03*
X352329Y444948D02*
D03*
Y439948D02*
D03*
M02*
