%TF.GenerationSoftware,Altium Limited,Altium Designer,26.3.0 (6)*%
G04 Layer_Color=65535*
%FSLAX45Y45*%
%MOMM*%
%TF.SameCoordinates,E804CBAE-B8BA-452F-9A80-DACFFBA46E50*%
%TF.FilePolarity,Positive*%
%TF.FileFunction,Legend,Top*%
%TF.Part,Single*%
G01*
G75*
%TA.AperFunction,NonConductor*%
%ADD20C,0.10000*%
%ADD21C,0.20000*%
%ADD22C,0.15240*%
%ADD23C,0.25400*%
%ADD24C,0.12700*%
D20*
X10581200Y10948599D02*
G03*
X10571200Y10948599I-5000J0D01*
G01*
D02*
G03*
X10581200Y10948599I5000J0D01*
G01*
D21*
X9808302Y10189200D02*
X9978305D01*
X9808836Y10028469D02*
X9978838D01*
X9520880Y11205200D02*
X9690877D01*
X9521414Y11044469D02*
X9691411D01*
X9493296Y10416576D02*
X9734504D01*
X9493296Y10587792D02*
X9734504D01*
X9515876Y10625694D02*
X9788124D01*
X9515876Y10811906D02*
X9788124D01*
X9772696Y9833092D02*
X10013909D01*
X9772696Y10004308D02*
X10013909D01*
X9795276Y9609694D02*
X10067524D01*
X9795276Y9795906D02*
X10067524D01*
X12268200Y12006097D02*
X12848199D01*
Y11616101D02*
Y12006097D01*
X12268200Y11616101D02*
X12848199D01*
X12268200Y9415099D02*
X12848199D01*
Y9025098D02*
Y9415099D01*
X12268200Y9025098D02*
X12848199D01*
X12268200Y11328598D02*
X12848199D01*
Y9702597D02*
Y11328598D01*
X12268200Y9702597D02*
X12848199D01*
X10626202Y8975100D02*
X12268200D01*
Y12056100D01*
X10626202D02*
X12268200D01*
X10626202Y8975100D02*
Y12056100D01*
X9529435Y10231669D02*
X9699432D01*
X9528901Y10392400D02*
X9698899D01*
X9800814Y9406169D02*
X9970811D01*
X9800280Y9566900D02*
X9970277D01*
X9795276Y9364106D02*
X10067524D01*
X9795276Y9177894D02*
X10067524D01*
X9521408Y10853969D02*
X9691411D01*
X9520875Y11014700D02*
X9690877D01*
D22*
X9090772Y4964384D02*
Y11415984D01*
X9442531Y4964384D02*
Y11415984D01*
X9090772D02*
X9442531D01*
X9090772Y4964384D02*
X9442531D01*
X9063452Y4966305D02*
Y5318064D01*
X2611852Y4966305D02*
Y5318064D01*
X9063452D01*
X2611852Y4966305D02*
X9063452D01*
Y11062305D02*
Y11414064D01*
X2611852Y11062305D02*
Y11414064D01*
X9063452D01*
X2611852Y11062305D02*
X9063452D01*
D23*
X9461541Y10033025D02*
Y10185375D01*
X9537717D01*
X9563108Y10159983D01*
Y10109200D01*
X9537717Y10083808D01*
X9461541D01*
X9512325D02*
X9563108Y10033025D01*
X9715459Y10185375D02*
X9664675Y10159983D01*
X9613892Y10109200D01*
Y10058417D01*
X9639284Y10033025D01*
X9690067D01*
X9715459Y10058417D01*
Y10083808D01*
X9690067Y10109200D01*
X9613892D01*
X9161417Y11049025D02*
Y11201375D01*
X9237593D01*
X9262985Y11175983D01*
Y11125200D01*
X9237593Y11099808D01*
X9161417D01*
X9212201D02*
X9262985Y11049025D01*
X9313768Y11074417D02*
X9339160Y11049025D01*
X9389943D01*
X9415335Y11074417D01*
Y11175983D01*
X9389943Y11201375D01*
X9339160D01*
X9313768Y11175983D01*
Y11150592D01*
X9339160Y11125200D01*
X9415335D01*
X9182141Y10438707D02*
Y10591058D01*
X9258317D01*
X9283708Y10565666D01*
Y10514882D01*
X9258317Y10489491D01*
X9182141D01*
X9232925D02*
X9283708Y10438707D01*
X9436059D02*
X9334492D01*
X9436059Y10540274D01*
Y10565666D01*
X9410667Y10591058D01*
X9359884D01*
X9334492Y10565666D01*
X9226972Y10655325D02*
Y10807675D01*
X9303147D01*
X9328539Y10782283D01*
Y10731500D01*
X9303147Y10706108D01*
X9226972D01*
X9277755D02*
X9328539Y10655325D01*
X9379322D02*
X9430106D01*
X9404714D01*
Y10807675D01*
X9379322Y10782283D01*
X9460070Y9842525D02*
Y9994875D01*
X9536246D01*
X9561638Y9969483D01*
Y9918700D01*
X9536246Y9893308D01*
X9460070D01*
X9510854D02*
X9561638Y9842525D01*
X9713988Y9994875D02*
X9612421D01*
Y9918700D01*
X9663205Y9944092D01*
X9688597D01*
X9713988Y9918700D01*
Y9867917D01*
X9688597Y9842525D01*
X9637813D01*
X9612421Y9867917D01*
X9468277Y9639325D02*
Y9791675D01*
X9544453D01*
X9569844Y9766283D01*
Y9715500D01*
X9544453Y9690108D01*
X9468277D01*
X9519061D02*
X9569844Y9639325D01*
X9696803D02*
Y9791675D01*
X9620628Y9715500D01*
X9722195D01*
X10648917Y12389999D02*
X10598133D01*
X10623525D01*
Y12263040D01*
X10598133Y12237649D01*
X10572742D01*
X10547350Y12263040D01*
X10699701Y12237649D02*
X10750484D01*
X10725093D01*
Y12389999D01*
X10699701Y12364607D01*
X9047136Y10871225D02*
Y11023575D01*
X9123312D01*
X9148704Y10998183D01*
Y10947400D01*
X9123312Y10922008D01*
X9047136D01*
X9097920D02*
X9148704Y10871225D01*
X9199487D02*
X9250271D01*
X9224879D01*
Y11023575D01*
X9199487Y10998183D01*
X9326446D02*
X9351838Y11023575D01*
X9402621D01*
X9428013Y10998183D01*
Y10896617D01*
X9402621Y10871225D01*
X9351838D01*
X9326446Y10896617D01*
Y10998183D01*
X9461541Y9182125D02*
Y9334475D01*
X9537717D01*
X9563108Y9309083D01*
Y9258300D01*
X9537717Y9232908D01*
X9461541D01*
X9512325D02*
X9563108Y9182125D01*
X9613892Y9309083D02*
X9639284Y9334475D01*
X9690067D01*
X9715459Y9309083D01*
Y9283692D01*
X9690067Y9258300D01*
X9715459Y9232908D01*
Y9207517D01*
X9690067Y9182125D01*
X9639284D01*
X9613892Y9207517D01*
Y9232908D01*
X9639284Y9258300D01*
X9613892Y9283692D01*
Y9309083D01*
X9639284Y9258300D02*
X9690067D01*
X9461541Y9410725D02*
Y9563075D01*
X9537717D01*
X9563108Y9537683D01*
Y9486900D01*
X9537717Y9461508D01*
X9461541D01*
X9512325D02*
X9563108Y9410725D01*
X9613892Y9563075D02*
X9715459D01*
Y9537683D01*
X9613892Y9436117D01*
Y9410725D01*
X9182141Y10248925D02*
Y10401275D01*
X9258317D01*
X9283708Y10375883D01*
Y10325100D01*
X9258317Y10299708D01*
X9182141D01*
X9232925D02*
X9283708Y10248925D01*
X9334492Y10375883D02*
X9359884Y10401275D01*
X9410667D01*
X9436059Y10375883D01*
Y10350492D01*
X9410667Y10325100D01*
X9385275D01*
X9410667D01*
X9436059Y10299708D01*
Y10274317D01*
X9410667Y10248925D01*
X9359884D01*
X9334492Y10274317D01*
D24*
X8913527Y8301918D02*
X8888135D01*
X8900831D01*
Y8238438D01*
X8888135Y8225742D01*
X8875439D01*
X8862743Y8238438D01*
X8989702Y8225742D02*
X8938919D01*
X8989702Y8276526D01*
Y8289222D01*
X8977006Y8301918D01*
X8951615D01*
X8938919Y8289222D01*
X3201067Y5464738D02*
X3175675D01*
X3188371D01*
Y5401258D01*
X3175675Y5388562D01*
X3162979D01*
X3150283Y5401258D01*
X3226459Y5452042D02*
X3239155Y5464738D01*
X3264546D01*
X3277242Y5452042D01*
Y5439346D01*
X3264546Y5426650D01*
X3251850D01*
X3264546D01*
X3277242Y5413954D01*
Y5401258D01*
X3264546Y5388562D01*
X3239155D01*
X3226459Y5401258D01*
X3165507Y11001938D02*
X3140115D01*
X3152811D01*
Y10938458D01*
X3140115Y10925762D01*
X3127419D01*
X3114723Y10938458D01*
X3190899Y10925762D02*
X3216290D01*
X3203595D01*
Y11001938D01*
X3190899Y10989242D01*
X3254378Y10913066D02*
X3305162D01*
X3330553Y10925762D02*
X3355945D01*
X3343249D01*
Y11001938D01*
X3330553Y10989242D01*
%TF.MD5,4e8393d640f246e096aad3e856b87b9b*%
M02*
