M48
;Layer_Color=9474304
;FILE_FORMAT=2:5
INCH
;TYPE=PLATED
T01F00S00C0.02165
T02F00S00C0.04331
T03F00S00C0.12598
%
T01
X0317329Y0199948
Y0204948
X0322329
Y0199948
X0327329
Y0204948
X0332329
Y0199948
X0337329
Y0204948
X0342329
Y0199948
X0347329
Y0204948
X0352329
Y0199948
X0362329
X0367329
Y0204948
X0362329
Y0209948
X0367329
Y0214948
X0362329
Y0219948
X0367329
Y0224948
X0362329
Y0229948
X0367329
Y0234948
X0362329
Y0239948
X0367329
Y0244948
X0362329
Y0249948
X0367329
Y0254948
X0362329
Y0259948
X0367329
Y0264948
X0362329
Y0269948
X0367329
Y0274948
X0362329
Y0279948
X0367329
Y0284948
X0362329
Y0289948
X0367329
Y0294948
X0362329
Y0299948
X0367329
Y0304948
X0362329
Y0309948
X0367329
X0312329Y0204948
X0307329
X0302329
X0297329
X0292329
X0287329
X0282329
X0277329
X0272329
X0267329
X0262329
X0257329
X0252329
X0247329
X0242329
X0237329
X0232329
X0227329
X0222329
X0217329
X0212329
X0207329
X0202329
X0197329
X0192329
X0187329
X0182329
X0177329
X0172329
X0167329
X0162329
X0157329
Y0199948
X0162329
X0167329
X0172329
X0177329
X0182329
X0187329
X0192329
X0197329
X0202329
X0207329
X0212329
X0217329
X0222329
X0227329
X0232329
X0237329
X0242329
X0247329
X0252329
X0257329
X0262329
X0267329
X0272329
X0277329
X0282329
X0287329
X0292329
X0297329
X0302329
X0307329
X0312329
X0152329
X0147329
X0142329
X0137329
X0132329
X0127329
X0122329
X0117329
X0112329
X0107329
Y0204948
X0112329
X0117329
X0122329
X0127329
X0132329
X0137329
X0142329
X0147329
X0152329
Y0439948
X0147329
X0142329
X0137329
X0132329
X0127329
X0122329
X0117329
X0112329
X0107329
Y0444948
X0112329
X0117329
X0122329
X0127329
X0132329
X0137329
X0142329
X0147329
X0152329
X0157329
Y0439948
X0162329
Y0444948
X0167329
Y0439948
X0172329
Y0444948
X0177329
Y0439948
X0182329
Y0444948
X0187329
Y0439948
X0192329
Y0444948
X0197329
Y0439948
X0202329
Y0444948
X0207329
Y0439948
X0212329
Y0444948
X0217329
Y0439948
X0222329
Y0444948
X0227329
Y0439948
X0232329
Y0444948
X0237329
Y0439948
X0242329
Y0444948
X0247329
Y0439948
X0252329
Y0444948
X0257329
Y0439948
X0262329
Y0444948
X0267329
Y0439948
X0272329
Y0444948
X0277329
Y0439948
X0282329
Y0444948
X0287329
Y0439948
X0292329
Y0444948
X0297329
Y0439948
X0302329
Y0444948
X0307329
Y0439948
X0312329
Y0444948
X0317329
Y0439948
X0322329
Y0444948
X0327329
Y0439948
X0332329
Y0444948
X0337329
Y0439948
X0342329
Y0444948
X0347329
Y0439948
X0352329
Y0444948
X0362329Y0399948
Y0394948
Y0389948
Y0384948
Y0379948
Y0374948
Y0369948
Y0364948
Y0359948
Y0354948
Y0349948
Y0344948
Y0339948
Y0334948
Y0329948
Y0324948
Y0319948
Y0314948
X0367329
Y0319948
Y0324948
Y0329948
Y0334948
Y0339948
Y0344948
Y0349948
Y0354948
Y0359948
Y0364948
Y0369948
Y0374948
Y0379948
Y0384948
Y0389948
Y0394948
Y0399948
T02
X0428000Y0394984
Y0404000
Y0413016
Y0422031
Y0431047
X0438000Y0426539
Y0435555
X0448000Y0431047
Y0422031
Y0413016
Y0404000
Y0394984
X0438000Y0399492
Y0408508
Y0417524
T03
X0438000Y0364807
Y0463193
M30
