%TF.GenerationSoftware,Altium Limited,Altium Designer,26.3.0 (6)*%
G04 Layer_Physical_Order=2*
G04 Layer_Color=16711680*
%FSLAX45Y45*%
%MOMM*%
%TF.SameCoordinates,E804CBAE-B8BA-452F-9A80-DACFFBA46E50*%
%TF.FilePolarity,Positive*%
%TF.FileFunction,Copper,L2,Bot,Signal*%
%TF.Part,Single*%
G01*
G75*
%TA.AperFunction,ComponentPad*%
%ADD14C,1.65000*%
%ADD15O,0.90000X0.75000*%
%ADD16C,4.80000*%
%ADD17R,1.65000X1.65000*%
%ADD18R,0.75000X0.90000*%
%ADD19O,0.75000X0.90000*%
D14*
X10871200Y10719598D02*
D03*
X11379200Y10032599D02*
D03*
Y10261600D02*
D03*
Y10490596D02*
D03*
Y10719598D02*
D03*
Y10948599D02*
D03*
X11125200Y10147097D02*
D03*
Y10376098D02*
D03*
Y10605099D02*
D03*
Y10834101D02*
D03*
Y11063097D02*
D03*
X10871200Y10032599D02*
D03*
Y10261600D02*
D03*
Y10490596D02*
D03*
D15*
X9203152Y10158684D02*
D03*
Y5078684D02*
D03*
X9330152D02*
D03*
X9203152Y5205684D02*
D03*
X9330152D02*
D03*
X9203152Y5332684D02*
D03*
X9330152D02*
D03*
X9203152Y5459684D02*
D03*
X9330152D02*
D03*
X9203152Y5586684D02*
D03*
X9330152D02*
D03*
X9203152Y5713684D02*
D03*
X9330152D02*
D03*
X9203152Y5840684D02*
D03*
X9330152D02*
D03*
X9203152Y5967684D02*
D03*
X9330152D02*
D03*
X9203152Y6094684D02*
D03*
X9330152D02*
D03*
X9203152Y6221684D02*
D03*
X9330152D02*
D03*
X9203152Y6348684D02*
D03*
X9330152D02*
D03*
X9203152Y6475684D02*
D03*
X9330152D02*
D03*
X9203152Y6602684D02*
D03*
X9330152D02*
D03*
X9203152Y6729684D02*
D03*
X9330152D02*
D03*
X9203152Y6856684D02*
D03*
X9330152D02*
D03*
X9203152Y6983684D02*
D03*
X9330152D02*
D03*
X9203152Y7110684D02*
D03*
X9330152D02*
D03*
X9203152Y7237684D02*
D03*
X9330152D02*
D03*
X9203152Y7364684D02*
D03*
X9330152D02*
D03*
X9203152Y7491684D02*
D03*
X9330152D02*
D03*
X9203152Y7618684D02*
D03*
X9330152D02*
D03*
X9203152Y7745684D02*
D03*
X9330152D02*
D03*
X9203152Y7872684D02*
D03*
X9330152D02*
D03*
X9203152Y7999684D02*
D03*
X9330152D02*
D03*
X9203152Y8126684D02*
D03*
X9330152D02*
D03*
X9203152Y8253684D02*
D03*
X9330152D02*
D03*
X9203152Y8380684D02*
D03*
X9330152D02*
D03*
X9203152Y8507684D02*
D03*
X9330152D02*
D03*
X9203152Y8634684D02*
D03*
X9330152D02*
D03*
X9203152Y8761684D02*
D03*
X9330152D02*
D03*
X9203152Y8888684D02*
D03*
X9330152D02*
D03*
X9203152Y9015684D02*
D03*
X9330152D02*
D03*
X9203152Y9142684D02*
D03*
X9330152D02*
D03*
X9203152Y9269684D02*
D03*
X9330152D02*
D03*
X9203152Y9396684D02*
D03*
X9330152D02*
D03*
X9203152Y9523684D02*
D03*
X9330152D02*
D03*
X9203152Y9650684D02*
D03*
X9330152D02*
D03*
X9203152Y9777684D02*
D03*
X9330152D02*
D03*
X9203152Y9904684D02*
D03*
X9330152D02*
D03*
X9203152Y10031684D02*
D03*
X9330152D02*
D03*
Y10158684D02*
D03*
D16*
X11125200Y9266098D02*
D03*
Y11765097D02*
D03*
D17*
X10871200Y10948599D02*
D03*
D18*
X2726152Y5205684D02*
D03*
Y11301684D02*
D03*
D19*
Y5078684D02*
D03*
X2853152Y5205684D02*
D03*
Y5078684D02*
D03*
X2980152Y5205684D02*
D03*
Y5078684D02*
D03*
X3107152Y5205684D02*
D03*
Y5078684D02*
D03*
X3234152Y5205684D02*
D03*
Y5078684D02*
D03*
X3361152Y5205684D02*
D03*
Y5078684D02*
D03*
X3488152Y5205684D02*
D03*
Y5078684D02*
D03*
X3615152Y5205684D02*
D03*
Y5078684D02*
D03*
X3742152Y5205684D02*
D03*
Y5078684D02*
D03*
X3869152Y5205684D02*
D03*
Y5078684D02*
D03*
X3996152Y5205684D02*
D03*
Y5078684D02*
D03*
X4123152Y5205684D02*
D03*
Y5078684D02*
D03*
X4250152Y5205684D02*
D03*
Y5078684D02*
D03*
X4377152Y5205684D02*
D03*
Y5078684D02*
D03*
X4504152Y5205684D02*
D03*
Y5078684D02*
D03*
X4631152Y5205684D02*
D03*
Y5078684D02*
D03*
X4758152Y5205684D02*
D03*
Y5078684D02*
D03*
X4885152Y5205684D02*
D03*
Y5078684D02*
D03*
X5012152Y5205684D02*
D03*
Y5078684D02*
D03*
X5139152Y5205684D02*
D03*
Y5078684D02*
D03*
X5266152Y5205684D02*
D03*
Y5078684D02*
D03*
X5393152Y5205684D02*
D03*
Y5078684D02*
D03*
X5520152Y5205684D02*
D03*
Y5078684D02*
D03*
X5647152Y5205684D02*
D03*
Y5078684D02*
D03*
X5774152Y5205684D02*
D03*
Y5078684D02*
D03*
X5901152Y5205684D02*
D03*
Y5078684D02*
D03*
X6028152Y5205684D02*
D03*
Y5078684D02*
D03*
X6155152Y5205684D02*
D03*
Y5078684D02*
D03*
X6282152Y5205684D02*
D03*
Y5078684D02*
D03*
X6409152Y5205684D02*
D03*
Y5078684D02*
D03*
X6536152Y5205684D02*
D03*
Y5078684D02*
D03*
X6663152Y5205684D02*
D03*
Y5078684D02*
D03*
X6790152Y5205684D02*
D03*
Y5078684D02*
D03*
X6917152Y5205684D02*
D03*
Y5078684D02*
D03*
X7044152Y5205684D02*
D03*
Y5078684D02*
D03*
X7171152Y5205684D02*
D03*
Y5078684D02*
D03*
X7298152Y5205684D02*
D03*
Y5078684D02*
D03*
X7425152Y5205684D02*
D03*
Y5078684D02*
D03*
X7552152Y5205684D02*
D03*
Y5078684D02*
D03*
X7679152Y5205684D02*
D03*
Y5078684D02*
D03*
X7806152Y5205684D02*
D03*
Y5078684D02*
D03*
X7933152Y5205684D02*
D03*
Y5078684D02*
D03*
X8060152Y5205684D02*
D03*
Y5078684D02*
D03*
X8187152Y5205684D02*
D03*
Y5078684D02*
D03*
X8314152Y5205684D02*
D03*
Y5078684D02*
D03*
X8441152Y5205684D02*
D03*
Y5078684D02*
D03*
X8568152Y5205684D02*
D03*
Y5078684D02*
D03*
X8695152Y5205684D02*
D03*
Y5078684D02*
D03*
X8822152Y5205684D02*
D03*
Y5078684D02*
D03*
X8949152Y5205684D02*
D03*
Y5078684D02*
D03*
X2726152Y11174684D02*
D03*
X2853152Y11301684D02*
D03*
Y11174684D02*
D03*
X2980152Y11301684D02*
D03*
Y11174684D02*
D03*
X3107152Y11301684D02*
D03*
Y11174684D02*
D03*
X3234152Y11301684D02*
D03*
Y11174684D02*
D03*
X3361152Y11301684D02*
D03*
Y11174684D02*
D03*
X3488152Y11301684D02*
D03*
Y11174684D02*
D03*
X3615152Y11301684D02*
D03*
Y11174684D02*
D03*
X3742152Y11301684D02*
D03*
Y11174684D02*
D03*
X3869152Y11301684D02*
D03*
Y11174684D02*
D03*
X3996152Y11301684D02*
D03*
Y11174684D02*
D03*
X4123152Y11301684D02*
D03*
Y11174684D02*
D03*
X4250152Y11301684D02*
D03*
Y11174684D02*
D03*
X4377152Y11301684D02*
D03*
Y11174684D02*
D03*
X4504152Y11301684D02*
D03*
Y11174684D02*
D03*
X4631152Y11301684D02*
D03*
Y11174684D02*
D03*
X4758152Y11301684D02*
D03*
Y11174684D02*
D03*
X4885152Y11301684D02*
D03*
Y11174684D02*
D03*
X5012152Y11301684D02*
D03*
Y11174684D02*
D03*
X5139152Y11301684D02*
D03*
Y11174684D02*
D03*
X5266152Y11301684D02*
D03*
Y11174684D02*
D03*
X5393152Y11301684D02*
D03*
Y11174684D02*
D03*
X5520152Y11301684D02*
D03*
Y11174684D02*
D03*
X5647152Y11301684D02*
D03*
Y11174684D02*
D03*
X5774152Y11301684D02*
D03*
Y11174684D02*
D03*
X5901152Y11301684D02*
D03*
Y11174684D02*
D03*
X6028152Y11301684D02*
D03*
Y11174684D02*
D03*
X6155152Y11301684D02*
D03*
Y11174684D02*
D03*
X6282152Y11301684D02*
D03*
Y11174684D02*
D03*
X6409152Y11301684D02*
D03*
Y11174684D02*
D03*
X6536152Y11301684D02*
D03*
Y11174684D02*
D03*
X6663152Y11301684D02*
D03*
Y11174684D02*
D03*
X6790152Y11301684D02*
D03*
Y11174684D02*
D03*
X6917152Y11301684D02*
D03*
Y11174684D02*
D03*
X7044152Y11301684D02*
D03*
Y11174684D02*
D03*
X7171152Y11301684D02*
D03*
Y11174684D02*
D03*
X7298152Y11301684D02*
D03*
Y11174684D02*
D03*
X7425152Y11301684D02*
D03*
Y11174684D02*
D03*
X7552152Y11301684D02*
D03*
Y11174684D02*
D03*
X7679152Y11301684D02*
D03*
Y11174684D02*
D03*
X7806152Y11301684D02*
D03*
Y11174684D02*
D03*
X7933152Y11301684D02*
D03*
Y11174684D02*
D03*
X8060152Y11301684D02*
D03*
Y11174684D02*
D03*
X8187152Y11301684D02*
D03*
Y11174684D02*
D03*
X8314152Y11301684D02*
D03*
Y11174684D02*
D03*
X8441152Y11301684D02*
D03*
Y11174684D02*
D03*
X8568152Y11301684D02*
D03*
Y11174684D02*
D03*
X8695152Y11301684D02*
D03*
Y11174684D02*
D03*
X8822152Y11301684D02*
D03*
Y11174684D02*
D03*
X8949152Y11301684D02*
D03*
Y11174684D02*
D03*
%TF.MD5,fecbe06a9d608202da688409e3927f42*%
M02*
