M48
;Layer_Color=9474304
;FILE_FORMAT=2:5
INCH
;TYPE=PLATED
T01F00S00C0.02800
T02F00S00C0.03189
T03F00S00C0.04016
T04F00S00C0.04331
T05F00S00C0.12598
%
T01
X0123224Y0090500
X0148224Y0091000
X0172724Y0090500
X0197724
X0222724
X0247724
X0272724
X0297224
X0295724Y0120500
X0287724
X0279724
X0271724
X0263724
X0255724
X0247724
X0239724
X0231724
X0223224Y0124659
X0322224Y0090500
X0347224
X0393000Y0093500
X0424732Y0093959
X0455461Y0092461
X0338724Y0028500
X0488000Y0093500
X0436920Y0265444
X0439500Y0277000
X0434500Y0284500
X0439500Y0292500
X0438500Y0307500
X0351000Y0310500
X0346705Y0305707
X0351000Y0300500
X0346705Y0295707
X0351000Y0290500
X0346705Y0285707
X0351000Y0280500
X0346705Y0275707
X0346715Y0255716
X0351337Y0250183
X0347907Y0244524
X0351326Y0240101
X0346715Y0235716
X0351010Y0230510
X0350024Y0223289
X0380090Y0228000
X0381000Y0237000
X0385500Y0241500
X0386000Y0232500
X0386500Y0250500
X0381000Y0246500
X0380500Y0254500
X0378500Y0262000
X0306539Y0205461
X0306500Y0179500
X0113000
X0105000
X0104000Y0206000
X0111500
Y0419717
X0118500Y0419000
X0104500
Y0446000
X0111500
X0118000
X0136500Y0445783
Y0419717
X0141500Y0415500
X0351500Y0390500
X0348000Y0385500
X0351426Y0380574
X0348429Y0375376
X0351795Y0370772
X0346705Y0365707
X0351000Y0360500
X0346705Y0355707
X0351000Y0350500
X0346705Y0345707
X0351000Y0340500
X0346705Y0335707
X0350972Y0330472
X0346705Y0325707
X0351000Y0320500
X0346705Y0315707
X0406000Y0352500
X0405500Y0362000
X0402500Y0385500
Y0396000
Y0405500
T02
X0319000Y0479000
Y0489000
X0329000
Y0479000
X0339000
X0349000
X0359000
Y0489000
X0349000
X0339000
X0369000
X0379000
X0389000
Y0479000
X0379000
X0369000
X0399000
Y0489000
X0309000
Y0479000
X0299000
Y0489000
X0289000
X0279000
Y0479000
X0289000
X0269000
Y0489000
X0259000
X0249000
Y0479000
X0259000
X0239000
Y0489000
X0229000
Y0479000
X0219000
X0209000
Y0489000
X0199000
X0189000
Y0479000
X0199000
X0179000
Y0489000
X0169000
Y0479000
X0159000
Y0489000
X0219000
X0149000
X0139000
Y0479000
X0149000
X0129000
X0119000
Y0489000
X0109000
Y0479000
X0129000Y0489000
T03
X0496500Y0112000
X0506500
Y0122000
Y0132000
X0496500
Y0142000
X0506500
Y0152000
X0496500
Y0122000
Y0162000
X0506500
Y0172000
Y0182000
Y0192000
Y0202000
Y0212000
Y0222000
Y0232000
Y0242000
X0496500
Y0232000
Y0222000
Y0212000
Y0202000
Y0192000
Y0182000
Y0172000
T04
X0438500Y0357469
Y0366484
Y0375500
Y0384516
Y0393532
X0448500Y0398039
Y0389024
Y0380008
Y0370992
Y0361976
X0458500Y0357469
Y0366484
Y0375500
Y0384516
Y0393532
T05
X0448500Y0327291
Y0425677
M30
