G04*
G04 #@! TF.GenerationSoftware,Altium Limited,Altium Designer,26.3.0 (6)*
G04*
G04 Layer_Physical_Order=1*
G04 Layer_Color=255*
%FSLAX25Y25*%
%MOIN*%
G70*
G04*
G04 #@! TF.SameCoordinates,17AD82C4-5A9D-4AB1-B657-92F8F1A18579*
G04*
G04*
G04 #@! TF.FilePolarity,Positive*
G04*
G01*
G75*
%ADD14C,0.01000*%
%ADD15R,0.02913X0.05787*%
%ADD16R,0.05512X0.08268*%
%ADD17R,0.06299X0.03937*%
%ADD18R,0.04724X0.02756*%
%ADD19R,0.04724X0.03937*%
%ADD20R,0.03150X0.03937*%
%ADD21R,0.11024X0.03937*%
%ADD22R,0.07480X0.05118*%
G04:AMPARAMS|DCode=23|XSize=21.65mil|YSize=19.68mil|CornerRadius=2.46mil|HoleSize=0mil|Usage=FLASHONLY|Rotation=0.000|XOffset=0mil|YOffset=0mil|HoleType=Round|Shape=RoundedRectangle|*
%AMROUNDEDRECTD23*
21,1,0.02165,0.01476,0,0,0.0*
21,1,0.01673,0.01968,0,0,0.0*
1,1,0.00492,0.00837,-0.00738*
1,1,0.00492,-0.00837,-0.00738*
1,1,0.00492,-0.00837,0.00738*
1,1,0.00492,0.00837,0.00738*
%
%ADD23ROUNDEDRECTD23*%
G04:AMPARAMS|DCode=24|XSize=21.65mil|YSize=19.68mil|CornerRadius=2.46mil|HoleSize=0mil|Usage=FLASHONLY|Rotation=270.000|XOffset=0mil|YOffset=0mil|HoleType=Round|Shape=RoundedRectangle|*
%AMROUNDEDRECTD24*
21,1,0.02165,0.01476,0,0,270.0*
21,1,0.01673,0.01968,0,0,270.0*
1,1,0.00492,-0.00738,-0.00837*
1,1,0.00492,-0.00738,0.00837*
1,1,0.00492,0.00738,0.00837*
1,1,0.00492,0.00738,-0.00837*
%
%ADD24ROUNDEDRECTD24*%
%ADD25R,0.04188X0.04182*%
%ADD26R,0.03543X0.03150*%
%ADD27R,0.05787X0.02913*%
%ADD28R,0.03381X0.03591*%
%ADD29R,0.03740X0.03543*%
%ADD48C,0.01000*%
%ADD49C,0.01457*%
%ADD50C,0.05315*%
%ADD51C,0.06496*%
%ADD52C,0.18898*%
%ADD53C,0.06102*%
%ADD54R,0.06102X0.06102*%
%ADD55R,0.06496X0.06496*%
%ADD56C,0.05000*%
D14*
X479824Y172604D02*
G03*
X479872Y172308I251035J39908D01*
G01*
D02*
G03*
X489797Y131888I250988J40205D01*
G01*
X487500Y148064D02*
G03*
X487756Y147668I945J328D01*
G01*
D02*
G03*
X495998Y143787I10112J10783D01*
G01*
X481139Y175640D02*
G03*
X487498Y148072I142378J18326D01*
G01*
X484663Y185837D02*
G03*
X484664Y185425I79520J-163D01*
G01*
D02*
G03*
X490899Y154804I79520J248D01*
G01*
X489988Y168941D02*
G03*
X490210Y168605I929J371D01*
G01*
X495844Y165284D02*
G03*
X490404Y168411I-8056J-7722D01*
G01*
X489844Y131496D02*
G03*
X495733Y122767I8375J-701D01*
G01*
X489844Y131496D02*
G03*
X489797Y131888I-997J79D01*
G01*
X496235Y143550D02*
G03*
X496233Y143552I-707J-707D01*
G01*
X490899Y154804D02*
G03*
X491518Y154244I919J394D01*
G01*
X491523Y154243D02*
G03*
X491518Y154244I-6517J-21106D01*
G01*
X496500Y152000D02*
G03*
X491523Y154243I-11494J-18864D01*
G01*
X496500Y164460D02*
G03*
X495844Y165284I-4806J-3154D01*
G01*
X490002Y178497D02*
G03*
X496016Y174060I8399J5091D01*
G01*
X496207Y173869D02*
G03*
X496205Y173872I-707J-707D01*
G01*
X232610Y441610D02*
X254272Y463272D01*
X232457Y441610D02*
X232610D01*
X303012Y460012D02*
X309000Y466000D01*
X247024Y443024D02*
X262382Y458382D01*
X247378Y466532D02*
X266531D01*
X258925Y461642D02*
X292461D01*
X299000Y468181D01*
X262382Y458382D02*
X317882D01*
X218953Y442562D02*
X244552Y468161D01*
X221500Y440654D02*
X247378Y466532D01*
X266531D02*
X269000Y469000D01*
X226500Y440654D02*
X250748Y464902D01*
X241500Y440654D02*
X260858Y460012D01*
X231500Y439217D02*
Y440654D01*
X254272Y463272D02*
X273272D01*
X270902Y464902D02*
X279000Y473000D01*
X250748Y464902D02*
X270902D01*
X260858Y460012D02*
X303012D01*
X244552Y468161D02*
X254661D01*
X317882Y458382D02*
X318586Y459086D01*
X240484Y443201D02*
X258925Y461642D01*
X231500Y440654D02*
X232457Y441610D01*
X254661Y468161D02*
X259000Y472500D01*
X269500Y449500D02*
X348664D01*
X266500Y439217D02*
Y446500D01*
X269500Y449500D01*
X348664D02*
X359000Y459836D01*
Y479000D01*
X279000Y473000D02*
Y479000D01*
X226500Y439217D02*
Y440654D01*
X196500Y447993D02*
X219000Y470493D01*
X196500Y439217D02*
Y447993D01*
X219000Y470493D02*
Y479000D01*
X181500Y471500D02*
X189000Y479000D01*
X181500Y439217D02*
Y471500D01*
X191500Y439217D02*
Y461500D01*
X209000Y479000D01*
X186500Y466500D02*
X199000Y479000D01*
X186500Y439217D02*
Y466500D01*
X176500Y439217D02*
Y440654D01*
X179000Y443154D01*
Y479000D01*
X306520Y205442D02*
X306539Y205461D01*
X306500Y199217D02*
X306520Y199236D01*
Y205442D01*
X404500Y29086D02*
X404642Y29228D01*
Y38693D01*
X404500Y29086D02*
X435500D01*
X435642Y29228D01*
Y38693D01*
X435500Y29086D02*
X466414D01*
X467000Y38551D02*
X467142Y38693D01*
X467000Y29672D02*
Y38551D01*
X466414Y29086D02*
X467000Y29672D01*
X372000Y29086D02*
X404500D01*
X338724Y28500D02*
X371414D01*
X372000Y29086D01*
Y37551D01*
X373142Y38693D01*
X306500Y179500D02*
Y186500D01*
X180724Y69257D02*
X181310Y69842D01*
X186000D01*
X310000D02*
X319449D01*
X304224Y69257D02*
X304810Y69842D01*
X310000D01*
X230810D02*
X235500D01*
X230224Y69257D02*
X230810Y69842D01*
X285500D02*
X294949D01*
X280224Y69257D02*
X280810Y69842D01*
X285500D01*
X210500D02*
X219949D01*
X205224Y69000D02*
X206067Y69842D01*
X210500D01*
X235500D02*
X244949D01*
X260500D02*
X269949D01*
X255224Y69257D02*
X255810Y69842D01*
X260500D01*
X155224Y28000D02*
Y69257D01*
X130224Y28000D02*
X155224D01*
X130224Y28500D02*
Y69257D01*
X129724Y28000D02*
X130224Y28500D01*
X161000Y69842D02*
X170449D01*
X155224Y69257D02*
X155810Y69842D01*
X161000D01*
X136000D02*
X145449D01*
X130224Y69257D02*
X130810Y69842D01*
X136000D01*
X101724Y28586D02*
Y69257D01*
X111000Y69842D02*
X120449D01*
X101724Y28586D02*
X102310Y28000D01*
Y69842D02*
X111000D01*
X101724Y69257D02*
X102310Y69842D01*
Y28000D02*
X129724D01*
X335000Y69842D02*
X344449D01*
X338224Y28000D02*
X338724Y28500D01*
X330310Y69842D02*
X335000D01*
X329724Y69257D02*
X330310Y69842D01*
X329724Y28000D02*
Y69257D01*
Y28000D02*
X338224D01*
X254724D02*
X255224Y28500D01*
X280224Y28000D02*
X304224D01*
X280224D02*
Y69257D01*
X255224Y28000D02*
X280224D01*
X255224Y28500D02*
Y69257D01*
X304224Y28000D02*
Y69257D01*
X205224Y28000D02*
Y69000D01*
Y28000D02*
X230224D01*
Y69257D01*
X304224Y28000D02*
X329724D01*
X230224D02*
X254724D01*
X180724D02*
Y69257D01*
X186000Y69842D02*
X195449D01*
X180724Y28000D02*
X205224D01*
X155224D02*
X180724D01*
X136500Y419717D02*
Y426500D01*
Y439000D02*
Y445783D01*
X118000Y445066D02*
Y446000D01*
X116500Y426500D02*
X117250Y425750D01*
X116500Y443567D02*
X118000Y445066D01*
X116500Y439217D02*
Y443567D01*
Y422082D02*
X118500Y420082D01*
X116500Y422082D02*
Y425000D01*
X118500Y419000D02*
Y420082D01*
X116500Y425000D02*
X117250Y425750D01*
X111500Y439217D02*
Y446000D01*
Y419717D02*
Y426500D01*
X104416Y442738D02*
X106500Y440654D01*
X104416Y442738D02*
Y445916D01*
X104500Y446000D01*
X106500Y422082D02*
Y426500D01*
Y439315D02*
Y440654D01*
X104500Y419000D02*
Y420082D01*
X106500Y422082D01*
X111500Y199217D02*
Y206000D01*
Y182082D02*
X113000Y180582D01*
X111500Y182082D02*
Y186500D01*
X113000Y179500D02*
Y180582D01*
X104298Y202856D02*
X106500Y200654D01*
X104298Y202856D02*
Y205702D01*
X106500Y199217D02*
Y200654D01*
X104000Y206000D02*
X104298Y205702D01*
X106500Y182082D02*
Y186500D01*
X105000Y179500D02*
Y180582D01*
X106500Y182082D01*
X510268Y257598D02*
Y309279D01*
X509087D02*
X510268D01*
X499835Y300028D02*
X509087Y309279D01*
X450425Y300028D02*
X499835D01*
X455228Y272272D02*
X459500Y268000D01*
X450819Y272272D02*
X455228D01*
X442953Y307500D02*
X450425Y300028D01*
X459500Y259870D02*
Y268000D01*
Y259870D02*
X463614D01*
X450819D02*
X459500D01*
X463614D02*
X467354Y256130D01*
X508799D02*
X510268Y257598D01*
X467354Y256130D02*
X467748D01*
X508492D02*
X508799D01*
X492154D02*
X508492D01*
X467748D02*
X492154D01*
X438500Y307500D02*
X442953D01*
X261500Y439217D02*
Y446000D01*
X267000Y451500D01*
X339500D01*
X349000Y461000D01*
Y479000D01*
X309000Y466000D02*
Y479000D01*
X241500Y439217D02*
Y440654D01*
X238953Y442196D02*
Y442562D01*
X236500Y440654D02*
X237457Y441610D01*
X238367D01*
X238953Y442196D01*
Y442562D02*
X239592Y443201D01*
X240484D01*
X236500Y439217D02*
Y440654D01*
X299000Y468181D02*
Y479000D01*
X171500Y439217D02*
Y440654D01*
X169000Y443154D02*
X171500Y440654D01*
X169000Y443154D02*
Y479000D01*
X450252Y281500D02*
X450819Y280933D01*
X434500Y284500D02*
X437500Y281500D01*
X450252D01*
X475500Y100228D02*
X481272D01*
X460571D02*
X475500D01*
X481272D02*
X488000Y93500D01*
X431714Y100228D02*
X446241D01*
X449714Y96756D02*
X451166D01*
X446241Y100228D02*
X449714Y96756D01*
X388527Y100228D02*
X392235Y96521D01*
X374000Y100228D02*
X388527D01*
X417384D02*
X423654Y93959D01*
X417286Y100228D02*
X417384D01*
X423654Y93959D02*
X424732D01*
X388527Y100228D02*
X403000D01*
X392235Y94265D02*
Y96521D01*
X488000Y87272D02*
Y93500D01*
X451166Y96756D02*
X455461Y92461D01*
X455897Y87756D02*
X456382Y87272D01*
X455897Y87756D02*
Y92025D01*
X456382Y87272D02*
X456500D01*
X455461Y92461D02*
X455897Y92025D01*
X392235Y94265D02*
X393000Y93500D01*
X424732Y87730D02*
Y93959D01*
X393000Y87272D02*
Y93500D01*
X322224Y90500D02*
X322224Y90500D01*
X347224Y90500D02*
X347224Y90500D01*
X347224Y85043D02*
X347224Y85043D01*
Y90500D01*
X322224Y85043D02*
X322224Y85043D01*
Y90500D01*
X297224D02*
X297224Y90500D01*
X272724Y90500D02*
X272724Y90500D01*
X247724Y90500D02*
X247724Y90500D01*
X197724Y90500D02*
X197724Y90500D01*
X144837Y484837D02*
X149000Y489000D01*
X144837Y474837D02*
Y484837D01*
Y474837D02*
X149000Y479000D01*
X141500Y426500D02*
Y439217D01*
Y471500D02*
X144837Y474837D01*
X141500Y439217D02*
Y471500D01*
X148224Y91000D02*
X148224Y91000D01*
X141500Y415500D02*
Y426500D01*
X123224Y90500D02*
X123224Y90500D01*
X272724Y85043D02*
Y90500D01*
X247724Y85043D02*
Y90500D01*
X222724D02*
X222724Y90500D01*
X222724Y85043D02*
Y90500D01*
X297224Y85043D02*
Y90500D01*
X297224Y85043D02*
X297224Y85043D01*
X272724Y85043D02*
X272724Y85043D01*
X247724Y85043D02*
X247724Y85043D01*
X222724Y85043D02*
X222724Y85043D01*
X172724Y90500D02*
X172724Y90500D01*
X197724Y85043D02*
Y90500D01*
X172724Y85043D02*
Y90500D01*
X148224Y85543D02*
Y91000D01*
X123224Y85043D02*
Y90500D01*
X197724Y85043D02*
X197724Y85043D01*
X172724Y85043D02*
X172724Y85043D01*
X148224Y85543D02*
X148224Y85543D01*
X123224Y85043D02*
X123224Y85043D01*
X277025Y439741D02*
Y443024D01*
X348500Y444000D02*
X379000Y474500D01*
X278000Y444000D02*
X348500D01*
X276500Y439217D02*
X277025Y439741D01*
Y443024D02*
X278000Y444000D01*
X379000Y474500D02*
Y479000D01*
X247024Y439741D02*
Y443024D01*
X246500Y439217D02*
X247024Y439741D01*
X318586Y459086D02*
Y478586D01*
X319000Y479000D01*
X273272Y463272D02*
X289000Y479000D01*
X166500Y439217D02*
Y440654D01*
X159000Y448154D02*
X166500Y440654D01*
X159000Y448154D02*
Y479000D01*
X264000Y456000D02*
X322000D01*
X251500Y443500D02*
X264000Y456000D01*
X251500Y439217D02*
Y443500D01*
X322000Y456000D02*
X329000Y463000D01*
Y479000D01*
X211500Y439217D02*
Y443500D01*
X213500Y445500D02*
X219000D01*
X211500Y443500D02*
X213500Y445500D01*
X219000D02*
X248202Y474702D01*
Y478202D01*
X249000Y479000D01*
X124500Y442196D02*
X125086Y441610D01*
X125543D02*
X126500Y440654D01*
X125086Y441610D02*
X125543D01*
X126500Y439217D02*
Y440654D01*
X124500Y483620D02*
X129000Y488120D01*
X124500Y442196D02*
Y483620D01*
X129000Y478120D02*
Y479000D01*
Y478120D02*
X131500Y475620D01*
X129000Y488120D02*
Y489000D01*
X126500Y426500D02*
X131500D01*
Y439217D02*
Y475620D01*
X126500Y439217D02*
X131500D01*
X121500D02*
X126500D01*
X121500Y426500D02*
X126500D01*
X121500D02*
Y439217D01*
X256500Y444000D02*
X266000Y453500D01*
X335500D01*
X256500Y439217D02*
Y444000D01*
X335500Y453500D02*
X339000Y457000D01*
Y479000D01*
X269000Y469000D02*
Y479000D01*
X221500Y439217D02*
Y440654D01*
X201500Y439217D02*
Y445493D01*
X229000Y472993D01*
Y479000D01*
X275000Y446500D02*
X348000D01*
X369000Y467500D01*
X271525Y443024D02*
X275000Y446500D01*
X271525Y439241D02*
Y443024D01*
X271500Y439217D02*
X271525Y439241D01*
X369000Y467500D02*
Y479000D01*
X218953Y442196D02*
Y442562D01*
X218367Y441610D02*
X218953Y442196D01*
X217457Y441610D02*
X218367D01*
X216500Y440654D02*
X217457Y441610D01*
X216500Y439217D02*
Y440654D01*
X259000Y472500D02*
Y479000D01*
X206500Y446500D02*
X239000Y479000D01*
X206500Y439217D02*
Y446500D01*
X351535Y240310D02*
X357432D01*
X348405Y245022D02*
X357144D01*
X347907Y244524D02*
X348405Y245022D01*
X351326Y240101D02*
X351535Y240310D01*
X357144Y245022D02*
X357642Y245520D01*
X357432Y240310D02*
X357642Y240520D01*
X375976Y274934D02*
X377702Y268298D01*
X392414Y83143D02*
X392417Y83244D01*
X380714Y279279D02*
X380816Y278871D01*
X375390Y275520D02*
X375976Y274934D01*
X377702Y268298D02*
X406500Y239500D01*
X370358Y275520D02*
X375390D01*
X382567Y271933D02*
X412681Y241819D01*
X453000Y101500D02*
Y124500D01*
X424500Y101000D02*
Y121000D01*
X392417Y83244D02*
X393000Y83728D01*
X390858Y74913D02*
X392414Y78547D01*
X382260Y275509D02*
X382567Y271933D01*
X392414Y78547D02*
Y83143D01*
X379000Y270500D02*
Y274159D01*
X380937Y271258D02*
X411130Y240675D01*
X390858Y39087D02*
Y74913D01*
X379000Y270500D02*
X409500Y240000D01*
X380630Y274834D02*
X380937Y271258D01*
X412681Y241819D02*
X453000Y124500D01*
X411130Y240675D02*
X424500Y121000D01*
X409500Y97000D02*
Y240000D01*
X380406Y275143D02*
X380630Y274834D01*
X372752Y284563D02*
X380406Y275143D01*
X380816Y278871D02*
X382260Y275509D01*
X382931Y278186D02*
X382998Y278022D01*
X479824Y172604D01*
X382344Y279603D02*
X382931Y278186D01*
X487498Y148072D02*
X487500Y148064D01*
X481139Y175640D02*
X481139Y175640D01*
X384593Y279011D02*
X480919Y175875D01*
X481139Y175640D01*
X378976Y274239D02*
X379000Y274159D01*
X376065Y277150D02*
X378976Y274239D01*
X421606Y84894D02*
X424084Y84213D01*
X424667Y83728D01*
X374341Y322405D02*
X395711Y293879D01*
X396106Y293369D01*
X396947Y294980D02*
X397221Y294599D01*
X397341Y294440D01*
X440401Y263555D02*
X441229Y263555D01*
X409500Y97000D02*
X421606Y84894D01*
X458596Y230370D02*
X467230Y222000D01*
X426904Y262063D02*
X458596Y230370D01*
X398587Y295499D02*
X425274Y261387D01*
X457921Y228740D01*
X397341Y294440D02*
X423644Y260712D01*
X422014Y260037D02*
X473381Y208670D01*
X391369Y293255D02*
X418754Y258695D01*
X487633Y188142D01*
X428534Y262738D02*
X433738Y257534D01*
X401115Y297596D02*
X428534Y262738D01*
X422358Y39087D02*
Y74913D01*
X424084Y83244D02*
X424568Y83728D01*
X453651Y81145D02*
X456235Y83728D01*
X382385Y288564D02*
X383974Y280278D01*
X457246Y227110D02*
X474103Y210300D01*
X473381Y208670D02*
X490490Y192000D01*
X376192Y294808D02*
X380853Y287790D01*
X486293Y186512D02*
X487357Y181168D01*
X423644Y260712D02*
X457246Y227110D01*
X398212Y296019D02*
X398587Y295499D01*
X436920Y265444D02*
X440401Y263555D01*
X434413Y259163D02*
X435241Y259163D01*
X374860Y277455D02*
X376065Y277150D01*
X457921Y228740D02*
X474985Y212000D01*
X430163Y263413D02*
X434413Y259163D01*
X487357Y181168D02*
X489988Y168941D01*
X474985Y212000D02*
X496500D01*
X374614Y287701D02*
X378638D01*
X430163Y264241D02*
X431974Y266052D01*
X433738Y257534D02*
X459473Y232000D01*
X420384Y259362D02*
X496500Y182000D01*
X399508Y297027D02*
X399837Y296555D01*
X430163Y264241D02*
X430163Y263413D01*
X423982Y83143D02*
X424084Y83244D01*
X423982Y78547D02*
X423982Y83143D01*
X370358Y285520D02*
X372752Y284563D01*
X474103Y210300D02*
X496500Y202000D01*
X396582Y295494D02*
X396947Y294980D01*
X377782Y295467D02*
X382385Y288564D01*
X378638Y287701D02*
X379223Y287115D01*
X487633Y188142D02*
X488219Y187556D01*
X453358Y39087D02*
Y74913D01*
X453651Y78547D02*
Y81145D01*
X389475Y292840D02*
X389713Y292601D01*
X467230Y222000D02*
X496500D01*
X393017Y293848D02*
X420384Y259362D01*
X459473Y232000D02*
X496500D01*
X380853Y287790D02*
X382344Y279603D01*
X396106Y293369D02*
X422014Y260037D01*
X371795Y280520D02*
X374860Y277455D01*
X441229Y263555D02*
X450764D01*
X372752Y314563D02*
X391369Y293255D01*
X372752Y324563D02*
X374341Y322405D01*
X372752Y319563D02*
X393017Y293848D01*
X376325Y296924D02*
X377782Y295467D01*
X383974Y280278D02*
X384271Y279981D01*
X417124Y258031D02*
X486293Y186512D01*
X379223Y287115D02*
X380714Y279279D01*
X453358Y74913D02*
X453651Y78547D01*
X399837Y296555D02*
X426904Y262063D01*
X488219Y187556D02*
X488742Y187032D01*
X374342Y342428D02*
X401115Y297596D01*
X375666Y295334D02*
X376192Y294808D01*
X490490Y192000D02*
X496500D01*
X385272Y285228D02*
Y290180D01*
X422358Y74913D02*
X423982Y78547D01*
X389713Y292601D02*
X417124Y258031D01*
X435241Y259163D02*
X437052Y260974D01*
X385272Y285228D02*
X484663Y185837D01*
X433534Y266637D02*
Y267466D01*
X402768Y298232D02*
X433534Y267466D01*
X431974Y266052D02*
X432948D01*
X433534Y266637D01*
X384524Y279219D02*
X384593Y279011D01*
X490210Y168605D02*
X490404Y168411D01*
X384271Y279981D02*
X384524Y279219D01*
X402768Y298232D02*
Y319547D01*
X459000Y242000D02*
X496500D01*
X350972Y330472D02*
X355248D01*
X370358Y320520D02*
X372752Y319563D01*
X439075Y261925D02*
X459000Y242000D01*
X373873Y353476D02*
X404065Y323284D01*
X443757Y268000D02*
X450760D01*
X438013Y273410D02*
X443757Y268000D01*
X437636Y261925D02*
X439075D01*
X437052Y260974D02*
Y261341D01*
X437636Y261925D01*
X488742Y187032D02*
X490002Y178497D01*
X370358Y335520D02*
X372752Y334563D01*
X355248Y330472D02*
X357632Y330510D01*
X372752Y329563D02*
X374342Y327428D01*
X397878Y296515D02*
X398212Y296019D01*
X435910Y275513D02*
X438013Y273410D01*
X374342Y337428D02*
X399508Y297027D01*
X371795Y310520D02*
X389475Y292840D01*
X372752Y344563D02*
X374342Y342428D01*
Y332428D02*
X397878Y296515D01*
X372752Y339563D02*
X374342Y337428D01*
X370358Y325520D02*
X372752Y324563D01*
X374342Y327428D02*
X396582Y295494D01*
X370358Y315520D02*
X372752Y314563D01*
X370358Y340520D02*
X372752Y339563D01*
Y334563D02*
X374342Y332428D01*
X404728Y318310D02*
X435910Y275513D01*
X370358Y330520D02*
X372752Y329563D01*
X370358Y345520D02*
X372752Y344563D01*
X404358Y322991D02*
X404728Y318310D01*
X404065Y323284D02*
X404358Y322991D01*
X450764Y263555D02*
X450819Y263610D01*
X370358Y310520D02*
X371795D01*
X402500Y396000D02*
X403000Y396500D01*
X411942D01*
X392265Y357000D02*
Y366919D01*
X391743Y386687D02*
X391765D01*
X394226Y384204D02*
X397100D01*
X391547Y386989D02*
X391743Y386793D01*
Y376522D02*
Y386793D01*
X392748Y385682D02*
Y385704D01*
X391765Y386687D02*
X392748Y385704D01*
Y385682D02*
X394226Y384204D01*
X391846Y386793D02*
Y396500D01*
X373276Y387000D02*
X385442D01*
X371795Y385520D02*
X373276Y387000D01*
X370358Y385520D02*
X371795D01*
X382329Y396500D02*
X385146D01*
X376348Y390520D02*
X382329Y396500D01*
X417846Y394289D02*
Y406500D01*
X417765Y385500D02*
Y386500D01*
X417558Y386707D02*
X417765Y386500D01*
X417558Y386707D02*
Y394000D01*
X402500Y385500D02*
X403582D01*
X404582Y386500D02*
X411235D01*
X403582Y385500D02*
X404582Y386500D01*
X402500Y405500D02*
X403582D01*
X404582Y406500D01*
X411154D01*
X422500Y352000D02*
X425715D01*
X422032Y352468D02*
X422500Y352000D01*
X420379Y352468D02*
X422032D01*
X419346Y353500D02*
X420379Y352468D01*
X425715Y352000D02*
X426994Y350720D01*
X406000Y352500D02*
X411654D01*
X430280Y352720D02*
X460467D01*
X419346Y362000D02*
X420254Y361093D01*
X421907D01*
X430280Y352720D01*
X405500Y362000D02*
X411654D01*
X392346Y367000D02*
X430000D01*
X438500Y375500D01*
X392265Y366919D02*
X392346Y367000D01*
X370358Y370520D02*
X371315Y369563D01*
X374169D01*
X385732Y358000D01*
X385735D01*
X475484Y103772D02*
X475500D01*
X475000Y104256D02*
X475484Y103772D01*
X475000Y104256D02*
Y110350D01*
X461000Y103772D02*
Y109922D01*
X460571Y110350D02*
X461000Y109922D01*
X370358Y380520D02*
X375708D01*
X379728Y376500D01*
X385235D01*
X397100Y384204D02*
X399805Y381500D01*
X434801D01*
X437817Y384516D01*
X438500D01*
X370358Y390520D02*
X376348D01*
X446500Y103772D02*
Y109993D01*
X446143Y110350D02*
X446500Y109993D01*
X432000Y103772D02*
Y110065D01*
X431714Y110350D02*
X432000Y110065D01*
X417500Y103772D02*
Y110136D01*
X417286Y110350D02*
X417500Y110136D01*
X403000Y103772D02*
Y110207D01*
X402857Y110350D02*
X403000Y110207D01*
X388500Y103772D02*
Y110279D01*
X388429Y110350D02*
X388500Y110279D01*
X374000Y103772D02*
Y110350D01*
X484233Y79962D02*
X487417Y83146D01*
Y83244D01*
X487902Y83728D02*
X488000D01*
X484233Y76192D02*
Y79962D01*
X483906Y75865D02*
X484233Y76192D01*
X487417Y83244D02*
X487902Y83728D01*
X393000D02*
X406500Y97228D01*
Y239500D01*
X377325Y235520D02*
X380345Y232500D01*
X386000D01*
X376815Y250500D02*
X386500D01*
X375815Y246500D02*
X381000D01*
X378565Y241500D02*
X385500D01*
X424500Y101000D02*
X440303Y85197D01*
X455165D01*
X453000Y101500D02*
X479587Y74913D01*
X484858D01*
X376055Y230328D02*
X376762D01*
X375863Y230520D02*
X376055Y230328D01*
X376762D02*
X379089Y228000D01*
X380090D01*
X370358Y230520D02*
X375863D01*
X483906Y75865D02*
X484858Y74913D01*
Y39087D02*
Y74913D01*
X380500Y254500D02*
Y254922D01*
X374903Y260520D02*
X380500Y254922D01*
X455165Y85197D02*
X455751Y84611D01*
Y84213D02*
Y84611D01*
Y84213D02*
X456235Y83728D01*
X456333D01*
X370358Y290520D02*
X371795D01*
X374614Y287701D01*
X370358Y280520D02*
X371795D01*
X346808Y255623D02*
X357558D01*
X357473Y250351D02*
X357642Y250520D01*
X351505Y250351D02*
X357473D01*
X351337Y250183D02*
X351505Y250351D01*
X370358Y235520D02*
X377325D01*
X374980Y265520D02*
X378500Y262000D01*
X370358Y265520D02*
X374980D01*
X371795Y255520D02*
X376815Y250500D01*
X371795Y250520D02*
X375815Y246500D01*
X374546Y245520D02*
X378565Y241500D01*
X377296Y240520D02*
X380816Y237000D01*
X381000D01*
X370358Y240520D02*
X377296D01*
X370358Y245520D02*
X374546D01*
X370358Y250520D02*
X371795D01*
X370358Y255520D02*
X371795D01*
X370358Y260520D02*
X374903D01*
X495733Y122767D02*
X496500Y122000D01*
X496235Y143550D02*
X496528Y143257D01*
Y142842D02*
Y143257D01*
Y142825D02*
Y142842D01*
X495998Y143787D02*
X496233Y143552D01*
X496500Y142000D02*
X496528Y142825D01*
X496500Y164460D02*
X496500Y162000D01*
X385272Y290180D02*
X385789Y290697D01*
X496207Y173869D02*
X496500Y173576D01*
X496500Y172000D01*
X496016Y174060D02*
X496205Y173872D01*
X370544Y295334D02*
X375666D01*
X385496Y291819D02*
X385789Y291526D01*
X385789Y291111D01*
Y290697D02*
Y291111D01*
X372752Y299563D02*
X376325Y296924D01*
X370358Y300520D02*
X372752Y299563D01*
X371795Y305520D02*
X385496Y291819D01*
X371795Y350520D02*
X402768Y319547D01*
X370358Y305520D02*
X371795D01*
X370358Y375520D02*
X371282Y374596D01*
X374752D01*
X382348Y367000D01*
X385654D01*
X351795Y370772D02*
X351922Y370646D01*
X357516D02*
X357642Y370520D01*
X351922Y370646D02*
X357516D01*
X351010Y280510D02*
X357632D01*
X356983Y279861D02*
X357632Y280510D01*
X183371Y121069D02*
X231156D01*
X152051Y89749D02*
X183371Y121069D01*
X231156D02*
X231724Y120500D01*
X153044Y70777D02*
Y80914D01*
X152051Y85516D02*
Y89749D01*
X149504Y82968D02*
X152051Y85516D01*
X152458Y81500D02*
X153044Y80914D01*
X149282Y82968D02*
X149504D01*
X148696Y82383D02*
X149282Y82968D01*
X148113Y81500D02*
X152458D01*
X149050Y66783D02*
X153044Y70777D01*
X148700Y66783D02*
X149050D01*
X148696Y81984D02*
Y82383D01*
X148212Y81500D02*
X148696Y81984D01*
X148113Y81500D02*
X148212D01*
X140749Y66783D02*
X143596D01*
X145449Y63533D02*
X148700Y66783D01*
X145449Y63533D02*
Y64931D01*
X143596Y66783D02*
X145449Y64931D01*
Y60000D02*
Y63533D01*
X136848Y60848D02*
Y62883D01*
X140749Y66783D01*
X136000Y60000D02*
X136848Y60848D01*
X348429Y375376D02*
X348500Y375448D01*
X357570D01*
X357642Y375520D01*
X351010Y290510D02*
X357632D01*
X357548Y365613D02*
X357642Y365520D01*
X346798Y365613D02*
X357548D01*
X346705Y365707D02*
X346798Y365613D01*
X442406Y289595D02*
X450819D01*
X439500Y292500D02*
X442406Y289595D01*
X346798Y315613D02*
X357548D01*
X370358Y295520D02*
X370544Y295334D01*
X123323Y81500D02*
X166482Y124659D01*
X223224D01*
X346798Y275613D02*
X357548D01*
X346798Y325613D02*
X357548D01*
X370358Y350520D02*
X371795D01*
X439500Y277000D02*
X439699Y276801D01*
X373953Y363476D02*
X443504Y293925D01*
X406358Y318985D02*
X440343Y285000D01*
X439699Y276801D02*
X450620D01*
X440343Y285000D02*
X450555D01*
X443504Y293925D02*
X450819D01*
X450555Y285000D02*
X450819Y285264D01*
X450620Y276801D02*
X450819Y276602D01*
X450760Y268000D02*
X450819Y267941D01*
X370358Y355520D02*
X371795D01*
X373838Y353476D01*
X373873D01*
X370358Y360520D02*
X371795D01*
X373838Y358476D01*
X373873D01*
X406358Y325991D01*
Y318985D02*
Y325991D01*
X370358Y365520D02*
X371795D01*
X373838Y363476D02*
X373953D01*
X371795Y365520D02*
X373838Y363476D01*
X346798Y355613D02*
X357548D01*
X357632Y360510D02*
X357642Y360520D01*
X351000Y360500D02*
X351010Y360510D01*
X357632D01*
X350024Y223289D02*
X351017D01*
X353248Y225520D01*
X357642D01*
X351010Y230510D02*
X351015Y230515D01*
X357637D01*
X357642Y230520D01*
X346715Y235716D02*
X346813Y235618D01*
X357543D01*
X357642Y235520D01*
X287724Y116013D02*
X322237Y81500D01*
X287724Y116013D02*
Y120500D01*
X295724D02*
X308224D01*
X347224Y75243D02*
Y81500D01*
X348689Y63059D02*
Y73778D01*
X344449Y60000D02*
X345630D01*
X347224Y75243D02*
X348689Y73778D01*
X308224Y120500D02*
X346642Y82083D01*
X347126Y81500D02*
X347224D01*
X346642Y81984D02*
Y82083D01*
X335000Y60000D02*
X344449D01*
X346642Y81984D02*
X347126Y81500D01*
X345630Y60000D02*
X348689Y63059D01*
X123098Y65832D02*
X124689Y67422D01*
X123224Y81500D02*
X123323D01*
X123098Y61468D02*
Y65832D01*
X121630Y60000D02*
X123098Y61468D01*
X111000Y60000D02*
X120449D01*
X123224Y74951D02*
Y81500D01*
Y74951D02*
X124689Y73487D01*
Y67422D02*
Y73487D01*
X120449Y60000D02*
X121630D01*
X319449D02*
X320630D01*
X322237Y81500D02*
X322335D01*
X323689Y63059D02*
Y73834D01*
X320630Y60000D02*
X323689Y63059D01*
X322335Y75187D02*
X323689Y73834D01*
X310000Y60000D02*
X319449D01*
X322335Y75187D02*
Y81500D01*
X279724Y99124D02*
X297348Y81500D01*
X297598Y65832D02*
X299189Y67422D01*
X294949Y60000D02*
X296130D01*
X297598Y61468D02*
Y65832D01*
X297447Y75090D02*
Y81500D01*
X297348D02*
X297447D01*
X296130Y60000D02*
X297598Y61468D01*
X285500Y60000D02*
X294949D01*
X297447Y75090D02*
X299189Y73348D01*
Y67422D02*
Y73348D01*
X279724Y99124D02*
Y120500D01*
X228084Y100859D02*
X247724Y120500D01*
X197989Y81500D02*
X217349Y100859D01*
X199689Y67422D02*
Y73320D01*
X196630Y60000D02*
X198098Y61468D01*
X195449Y60000D02*
X196630D01*
X186000D02*
X195449D01*
X217349Y100859D02*
X228084D01*
X197891Y75118D02*
Y81500D01*
X198098Y61468D02*
Y65832D01*
X197891Y81500D02*
X197989D01*
X197891Y75118D02*
X199689Y73320D01*
X198098Y65832D02*
X199689Y67422D01*
X254646Y118339D02*
X255724Y119418D01*
X210500Y60000D02*
X219949D01*
X255724Y119418D02*
Y120500D01*
X222878Y81500D02*
X239161Y97782D01*
X222780Y81500D02*
X222878D01*
X222780Y73672D02*
X224189Y72263D01*
X239161Y102436D02*
X254646Y117922D01*
X239161Y97782D02*
Y102436D01*
X254646Y117922D02*
Y118339D01*
X222780Y73672D02*
Y81500D01*
X224189Y63059D02*
Y72263D01*
X221130Y60000D02*
X224189Y63059D01*
X219949Y60000D02*
X221130D01*
X270959Y118149D02*
Y119735D01*
X269949Y60000D02*
X271130D01*
X268224Y85735D02*
Y115414D01*
X272459Y81500D02*
X272558D01*
X274189Y63059D02*
Y72263D01*
X272558Y73894D02*
X274189Y72263D01*
X270959Y119735D02*
X271724Y120500D01*
X272558Y73894D02*
Y81500D01*
X268224Y85735D02*
X272459Y81500D01*
X271130Y60000D02*
X274189Y63059D01*
X260500Y60000D02*
X269949D01*
X268224Y115414D02*
X270959Y118149D01*
X173098Y61468D02*
Y65832D01*
X174689Y67422D01*
X171630Y60000D02*
X173098Y61468D01*
X161000Y60000D02*
X170449D01*
X173002Y75062D02*
Y81500D01*
X174689Y67422D02*
Y73376D01*
X173002Y75062D02*
X174689Y73376D01*
X173101Y81500D02*
X173585Y81984D01*
X173002Y81500D02*
X173101D01*
X173585Y81984D02*
Y82083D01*
X247669Y81500D02*
X247767D01*
X227224Y108000D02*
X239724Y120500D01*
X199502Y108000D02*
X227224D01*
X173585Y82083D02*
X199502Y108000D01*
X235500Y60000D02*
X244949D01*
X246130D01*
X249189Y67422D02*
Y73459D01*
X247669Y74979D02*
X249189Y73459D01*
X246130Y60000D02*
X247598Y61468D01*
Y65832D01*
X249189Y67422D01*
X170449Y60000D02*
X171630D01*
X247669Y74979D02*
Y81500D01*
X247767D02*
X263724Y97457D01*
Y120500D01*
X351453Y380547D02*
X357614D01*
X351426Y380574D02*
X351453Y380547D01*
X357614D02*
X357642Y380520D01*
X351010Y350510D02*
X357632D01*
X346798Y345613D02*
X357548D01*
X346798Y295613D02*
X357548D01*
X351010Y300510D02*
X357632D01*
X351010Y320510D02*
X357632D01*
X346798Y305613D02*
X357548D01*
X346798Y335613D02*
X357548D01*
X351010Y340510D02*
X357632D01*
X351010Y310510D02*
X357632D01*
X346798Y285613D02*
X357548D01*
X351510Y390510D02*
X357632D01*
X357642Y390520D01*
X351500Y390500D02*
X351510Y390510D01*
X357632Y385510D02*
X357642Y385520D01*
X348010Y385510D02*
X357632D01*
X348000Y385500D02*
X348010Y385510D01*
X458500Y375500D02*
X465248Y368752D01*
Y354673D02*
Y368752D01*
X461295Y350720D02*
X465248Y354673D01*
X426994Y350720D02*
X461295D01*
X460467Y352720D02*
X463248Y355502D01*
X458500Y366484D02*
X463248Y361736D01*
Y355502D02*
Y361736D01*
X438032Y394000D02*
X438500Y393532D01*
X417558Y394000D02*
X438032D01*
X417558D02*
X417846Y394289D01*
D15*
X121500Y439217D02*
D03*
Y426500D02*
D03*
X126500Y439217D02*
D03*
Y426500D02*
D03*
X131500Y439217D02*
D03*
Y426500D02*
D03*
X146500Y439217D02*
D03*
Y426500D02*
D03*
X151500Y439217D02*
D03*
Y426500D02*
D03*
X156500Y439217D02*
D03*
Y426500D02*
D03*
X161500Y439217D02*
D03*
Y426500D02*
D03*
X166500Y439217D02*
D03*
X171500D02*
D03*
X176500D02*
D03*
X181500D02*
D03*
X186500D02*
D03*
X191500D02*
D03*
X196500D02*
D03*
X201500D02*
D03*
X206500D02*
D03*
X211500D02*
D03*
X216500D02*
D03*
X221500D02*
D03*
X226500D02*
D03*
X231500D02*
D03*
X236500D02*
D03*
X241500D02*
D03*
X246500D02*
D03*
X251500D02*
D03*
X256500D02*
D03*
X261500D02*
D03*
X266500D02*
D03*
X271500D02*
D03*
X276500D02*
D03*
X281500D02*
D03*
Y426500D02*
D03*
X286500Y439217D02*
D03*
Y426500D02*
D03*
X291500Y439217D02*
D03*
Y426500D02*
D03*
X296500Y439217D02*
D03*
Y426500D02*
D03*
X301500Y439217D02*
D03*
Y426500D02*
D03*
X306500Y439217D02*
D03*
Y426500D02*
D03*
X311500Y439217D02*
D03*
Y426500D02*
D03*
X316500Y439217D02*
D03*
Y426500D02*
D03*
X321500Y439217D02*
D03*
Y426500D02*
D03*
X326500Y439217D02*
D03*
Y426500D02*
D03*
X331500Y439217D02*
D03*
Y426500D02*
D03*
X336500Y439217D02*
D03*
Y426500D02*
D03*
X341500Y439217D02*
D03*
Y426500D02*
D03*
X346500Y439217D02*
D03*
Y426500D02*
D03*
X351500Y439217D02*
D03*
Y426500D02*
D03*
X141500Y439217D02*
D03*
Y426500D02*
D03*
X136500D02*
D03*
Y439217D02*
D03*
X116500D02*
D03*
X111500D02*
D03*
X116500Y426500D02*
D03*
X111500D02*
D03*
X106500D02*
D03*
Y439217D02*
D03*
X306500Y186500D02*
D03*
Y199217D02*
D03*
X111500D02*
D03*
X106500D02*
D03*
Y186500D02*
D03*
X111500D02*
D03*
X351500D02*
D03*
Y199217D02*
D03*
X346500Y186500D02*
D03*
Y199217D02*
D03*
X341500Y186500D02*
D03*
Y199217D02*
D03*
X336500Y186500D02*
D03*
Y199217D02*
D03*
X331500Y186500D02*
D03*
Y199217D02*
D03*
X326500Y186500D02*
D03*
Y199217D02*
D03*
X321500Y186500D02*
D03*
Y199217D02*
D03*
X316500Y186500D02*
D03*
Y199217D02*
D03*
X311500Y186500D02*
D03*
Y199217D02*
D03*
X301500Y186500D02*
D03*
Y199217D02*
D03*
X296500Y186500D02*
D03*
Y199217D02*
D03*
X291500Y186500D02*
D03*
Y199217D02*
D03*
X286500Y186500D02*
D03*
Y199217D02*
D03*
X281500Y186500D02*
D03*
Y199217D02*
D03*
X276500Y186500D02*
D03*
Y199217D02*
D03*
X271500Y186500D02*
D03*
Y199217D02*
D03*
X266500Y186500D02*
D03*
Y199217D02*
D03*
X261500Y186500D02*
D03*
Y199217D02*
D03*
X256500Y186500D02*
D03*
Y199217D02*
D03*
X251500Y186500D02*
D03*
Y199217D02*
D03*
X246500Y186500D02*
D03*
Y199217D02*
D03*
X241500Y186500D02*
D03*
Y199217D02*
D03*
X236500Y186500D02*
D03*
Y199217D02*
D03*
X231500Y186500D02*
D03*
Y199217D02*
D03*
X226500Y186500D02*
D03*
Y199217D02*
D03*
X221500Y186500D02*
D03*
Y199217D02*
D03*
X216500Y186500D02*
D03*
Y199217D02*
D03*
X211500Y186500D02*
D03*
Y199217D02*
D03*
X206500Y186500D02*
D03*
Y199217D02*
D03*
X201500Y186500D02*
D03*
Y199217D02*
D03*
X196500Y186500D02*
D03*
Y199217D02*
D03*
X191500Y186500D02*
D03*
Y199217D02*
D03*
X186500Y186500D02*
D03*
Y199217D02*
D03*
X181500Y186500D02*
D03*
Y199217D02*
D03*
X176500Y186500D02*
D03*
Y199217D02*
D03*
X171500Y186500D02*
D03*
Y199217D02*
D03*
X166500Y186500D02*
D03*
Y199217D02*
D03*
X161500Y186500D02*
D03*
Y199217D02*
D03*
X156500Y186500D02*
D03*
Y199217D02*
D03*
X151500Y186500D02*
D03*
Y199217D02*
D03*
X146500Y186500D02*
D03*
Y199217D02*
D03*
X141500Y186500D02*
D03*
Y199217D02*
D03*
X136500Y186500D02*
D03*
Y199217D02*
D03*
X131500Y186500D02*
D03*
Y199217D02*
D03*
X126500Y186500D02*
D03*
Y199217D02*
D03*
X121500Y186500D02*
D03*
Y199217D02*
D03*
X116500Y186500D02*
D03*
Y199217D02*
D03*
X166500Y426500D02*
D03*
X171500D02*
D03*
X176500D02*
D03*
X181500D02*
D03*
X186500D02*
D03*
X191500D02*
D03*
X196500D02*
D03*
X201500D02*
D03*
X206500D02*
D03*
X211500D02*
D03*
X216500D02*
D03*
X221500D02*
D03*
X226500D02*
D03*
X231500D02*
D03*
X236500D02*
D03*
X241500D02*
D03*
X246500D02*
D03*
X251500D02*
D03*
X256500D02*
D03*
X261500D02*
D03*
X266500D02*
D03*
X271500D02*
D03*
X276500D02*
D03*
D16*
X435642Y38693D02*
D03*
X467142D02*
D03*
X404642D02*
D03*
X373142D02*
D03*
X422358Y74913D02*
D03*
Y39087D02*
D03*
X390858Y74913D02*
D03*
Y39087D02*
D03*
X453358Y74913D02*
D03*
Y39087D02*
D03*
X484858Y74913D02*
D03*
Y39087D02*
D03*
X435642Y74913D02*
D03*
X467142D02*
D03*
X404642D02*
D03*
X373142D02*
D03*
D17*
X145449Y69842D02*
D03*
X136000D02*
D03*
X120449D02*
D03*
X111000D02*
D03*
X344449D02*
D03*
X335000D02*
D03*
X269949D02*
D03*
X260500D02*
D03*
X294949D02*
D03*
X285500D02*
D03*
X219949D02*
D03*
X210500D02*
D03*
X195449D02*
D03*
X186000D02*
D03*
X170449D02*
D03*
X161000D02*
D03*
X319449D02*
D03*
X310000D02*
D03*
X244949D02*
D03*
X235500D02*
D03*
X145449Y60000D02*
D03*
X136000D02*
D03*
X145449Y50157D02*
D03*
X136000D02*
D03*
X120449D02*
D03*
Y60000D02*
D03*
X111000Y50157D02*
D03*
Y60000D02*
D03*
X344449Y50157D02*
D03*
Y60000D02*
D03*
X335000Y50157D02*
D03*
Y60000D02*
D03*
X269949Y50157D02*
D03*
Y60000D02*
D03*
X260500Y50157D02*
D03*
Y60000D02*
D03*
X294949Y50157D02*
D03*
Y60000D02*
D03*
X285500Y50157D02*
D03*
Y60000D02*
D03*
X219949Y50157D02*
D03*
Y60000D02*
D03*
X210500Y50157D02*
D03*
Y60000D02*
D03*
X195449Y50157D02*
D03*
Y60000D02*
D03*
X186000Y50157D02*
D03*
Y60000D02*
D03*
X170449Y50157D02*
D03*
Y60000D02*
D03*
X161000Y50157D02*
D03*
Y60000D02*
D03*
X319449Y50157D02*
D03*
Y60000D02*
D03*
X310000Y50157D02*
D03*
Y60000D02*
D03*
X244949Y50157D02*
D03*
Y60000D02*
D03*
X235500Y50157D02*
D03*
Y60000D02*
D03*
D18*
X450819Y272272D02*
D03*
Y259870D02*
D03*
Y280933D02*
D03*
Y289595D02*
D03*
Y263610D02*
D03*
Y267941D02*
D03*
Y276602D02*
D03*
Y285264D02*
D03*
Y293925D02*
D03*
D19*
Y300028D02*
D03*
X467748Y256130D02*
D03*
D20*
X492154D02*
D03*
D21*
X508492D02*
D03*
D22*
X510268Y309279D02*
D03*
D23*
X475500Y100228D02*
D03*
X446500D02*
D03*
X403000D02*
D03*
X417500D02*
D03*
X388500D02*
D03*
X432000D02*
D03*
X374000D02*
D03*
X488000Y87272D02*
D03*
X456333D02*
D03*
X424667D02*
D03*
X393000D02*
D03*
X347224Y85043D02*
D03*
X322335D02*
D03*
X297447D02*
D03*
X272558D02*
D03*
X247669D02*
D03*
X222780D02*
D03*
X197891D02*
D03*
X173002D02*
D03*
X148113D02*
D03*
X123224D02*
D03*
X403000Y103772D02*
D03*
X475500D02*
D03*
X461000D02*
D03*
X446500D02*
D03*
X432000D02*
D03*
X417500D02*
D03*
X388500D02*
D03*
X374000D02*
D03*
X148113Y81500D02*
D03*
X424667Y83728D02*
D03*
X393000D02*
D03*
X456333D02*
D03*
X488000D02*
D03*
X222780Y81500D02*
D03*
X322335D02*
D03*
X272558D02*
D03*
X247669D02*
D03*
X173002D02*
D03*
X123224D02*
D03*
X297447D02*
D03*
X347224D02*
D03*
X197891D02*
D03*
D24*
X461000Y100228D02*
D03*
D25*
X392765Y357000D02*
D03*
X386235D02*
D03*
X391765Y376500D02*
D03*
X385235D02*
D03*
X411235Y386500D02*
D03*
X417765D02*
D03*
D26*
X392346Y367000D02*
D03*
X391846Y396500D02*
D03*
X385154D02*
D03*
X385654Y367000D02*
D03*
X412654Y352500D02*
D03*
Y362000D02*
D03*
X411154Y406500D02*
D03*
X417846D02*
D03*
X419346Y362000D02*
D03*
Y352500D02*
D03*
D27*
X370358Y370520D02*
D03*
Y380520D02*
D03*
Y390520D02*
D03*
Y385520D02*
D03*
Y230520D02*
D03*
Y345520D02*
D03*
X357642Y190520D02*
D03*
X370358D02*
D03*
X357642Y195520D02*
D03*
X370358D02*
D03*
X357642Y200520D02*
D03*
X370358D02*
D03*
X357642Y205520D02*
D03*
X370358D02*
D03*
X357642Y210520D02*
D03*
X370358D02*
D03*
X357642Y215520D02*
D03*
X370358D02*
D03*
X357642Y220520D02*
D03*
X370358D02*
D03*
X357642Y225520D02*
D03*
X370358D02*
D03*
X357642Y230520D02*
D03*
Y235520D02*
D03*
X370358D02*
D03*
X357642Y240520D02*
D03*
X370358D02*
D03*
X357642Y245520D02*
D03*
X370358D02*
D03*
X357642Y250520D02*
D03*
X370358D02*
D03*
Y255520D02*
D03*
X357642Y260520D02*
D03*
X370358D02*
D03*
X357642Y265520D02*
D03*
X370358D02*
D03*
X357642Y270520D02*
D03*
X370358D02*
D03*
X357642Y275520D02*
D03*
X370358D02*
D03*
X357642Y370520D02*
D03*
Y375520D02*
D03*
X370358D02*
D03*
X357642Y380520D02*
D03*
Y385520D02*
D03*
Y390520D02*
D03*
Y395520D02*
D03*
X370358D02*
D03*
X357642Y400520D02*
D03*
X370358D02*
D03*
X357642Y405520D02*
D03*
X370358D02*
D03*
X357642Y410520D02*
D03*
X370358D02*
D03*
X357642Y415520D02*
D03*
X370358D02*
D03*
X357642Y420520D02*
D03*
X370358D02*
D03*
X357642Y425520D02*
D03*
X370358D02*
D03*
X357642Y430520D02*
D03*
X370358D02*
D03*
X357642Y435520D02*
D03*
X370358D02*
D03*
Y350520D02*
D03*
X357642Y285520D02*
D03*
Y280520D02*
D03*
X370358Y310520D02*
D03*
Y285520D02*
D03*
Y280520D02*
D03*
X357642Y310520D02*
D03*
X370358Y340520D02*
D03*
Y305520D02*
D03*
X357642Y350520D02*
D03*
Y340520D02*
D03*
Y335520D02*
D03*
Y330520D02*
D03*
Y305520D02*
D03*
X370358Y315520D02*
D03*
X357642Y345520D02*
D03*
Y315520D02*
D03*
X370358Y335520D02*
D03*
Y330520D02*
D03*
Y320520D02*
D03*
X357642D02*
D03*
Y300520D02*
D03*
X370358D02*
D03*
Y290520D02*
D03*
X357642Y325520D02*
D03*
X370358D02*
D03*
X357642Y295520D02*
D03*
Y290520D02*
D03*
X370358Y295520D02*
D03*
X357642Y255520D02*
D03*
X370358Y365520D02*
D03*
X357642Y360520D02*
D03*
X370358D02*
D03*
Y355520D02*
D03*
X357642Y365520D02*
D03*
Y355520D02*
D03*
D28*
X391558Y387000D02*
D03*
X385442D02*
D03*
X411442Y397000D02*
D03*
X417558D02*
D03*
D29*
X402857Y110350D02*
D03*
X417286D02*
D03*
X431714D02*
D03*
X374000D02*
D03*
X388429D02*
D03*
X475000D02*
D03*
X460571D02*
D03*
X446143D02*
D03*
X402857Y116650D02*
D03*
X417286D02*
D03*
X431714D02*
D03*
X475000D02*
D03*
X460571D02*
D03*
X446143D02*
D03*
X388429D02*
D03*
X374000D02*
D03*
D48*
X496528Y142842D02*
D03*
X385789Y291111D02*
D03*
D49*
X109020Y432858D02*
D03*
X348980D02*
D03*
X364000Y193039D02*
D03*
Y433000D02*
D03*
X348980Y192858D02*
D03*
X109020D02*
D03*
D50*
X359000Y489000D02*
D03*
Y479000D02*
D03*
X279000D02*
D03*
X219000D02*
D03*
X189000Y489000D02*
D03*
Y479000D02*
D03*
X279000Y489000D02*
D03*
X209000D02*
D03*
Y479000D02*
D03*
X199000D02*
D03*
X179000Y489000D02*
D03*
Y479000D02*
D03*
X389000Y489000D02*
D03*
Y479000D02*
D03*
X139000D02*
D03*
Y489000D02*
D03*
X119000Y479000D02*
D03*
Y489000D02*
D03*
X109000Y479000D02*
D03*
Y489000D02*
D03*
X349000D02*
D03*
Y479000D02*
D03*
X309000Y489000D02*
D03*
Y479000D02*
D03*
X299000D02*
D03*
X199000Y489000D02*
D03*
X169000D02*
D03*
Y479000D02*
D03*
X149000D02*
D03*
Y489000D02*
D03*
X379000D02*
D03*
Y479000D02*
D03*
X319000Y489000D02*
D03*
X299000D02*
D03*
X329000D02*
D03*
X319000Y479000D02*
D03*
X289000Y489000D02*
D03*
Y479000D02*
D03*
X159000Y489000D02*
D03*
Y479000D02*
D03*
X329000D02*
D03*
X249000Y489000D02*
D03*
Y479000D02*
D03*
X229000Y489000D02*
D03*
X129000D02*
D03*
Y479000D02*
D03*
X339000D02*
D03*
X269000Y489000D02*
D03*
Y479000D02*
D03*
X239000Y489000D02*
D03*
X229000Y479000D02*
D03*
X369000Y489000D02*
D03*
Y479000D02*
D03*
X339000Y489000D02*
D03*
X259000D02*
D03*
Y479000D02*
D03*
X239000D02*
D03*
X219000Y489000D02*
D03*
X399000D02*
D03*
Y479000D02*
D03*
D51*
X438500Y357469D02*
D03*
X448500Y398039D02*
D03*
Y380008D02*
D03*
Y389024D02*
D03*
Y361976D02*
D03*
X438500Y375500D02*
D03*
Y384516D02*
D03*
X458500Y357469D02*
D03*
Y366484D02*
D03*
Y375500D02*
D03*
Y384516D02*
D03*
Y393532D02*
D03*
X448500Y370992D02*
D03*
X438500Y366484D02*
D03*
D52*
X448500Y327291D02*
D03*
Y425677D02*
D03*
D53*
X496500Y132000D02*
D03*
X506500D02*
D03*
Y112000D02*
D03*
Y172000D02*
D03*
Y242000D02*
D03*
Y232000D02*
D03*
Y222000D02*
D03*
Y212000D02*
D03*
Y202000D02*
D03*
Y192000D02*
D03*
Y182000D02*
D03*
Y162000D02*
D03*
Y152000D02*
D03*
Y142000D02*
D03*
Y122000D02*
D03*
X496500Y242000D02*
D03*
Y232000D02*
D03*
Y222000D02*
D03*
Y212000D02*
D03*
Y202000D02*
D03*
Y192000D02*
D03*
Y182000D02*
D03*
Y172000D02*
D03*
Y162000D02*
D03*
Y152000D02*
D03*
Y142000D02*
D03*
Y122000D02*
D03*
D54*
Y112000D02*
D03*
D55*
X438500Y393532D02*
D03*
D56*
X306539Y205461D02*
D03*
X306500Y179500D02*
D03*
X338724Y28500D02*
D03*
X136500Y445783D02*
D03*
Y419717D02*
D03*
X118500Y419000D02*
D03*
X118000Y446000D02*
D03*
X111500D02*
D03*
Y419717D02*
D03*
X104500Y446000D02*
D03*
Y419000D02*
D03*
X111500Y206000D02*
D03*
X113000Y179500D02*
D03*
X104000Y206000D02*
D03*
X105000Y179500D02*
D03*
X438500Y307500D02*
D03*
X434500Y284500D02*
D03*
X488000Y93500D02*
D03*
X455461Y92461D02*
D03*
X424732Y93959D02*
D03*
X393000Y93500D02*
D03*
X347224Y90500D02*
D03*
X141500Y415500D02*
D03*
X297224Y90500D02*
D03*
X322224D02*
D03*
X272724D02*
D03*
X222724D02*
D03*
X247724D02*
D03*
X172724D02*
D03*
X197724D02*
D03*
X148224Y91000D02*
D03*
X123224Y90500D02*
D03*
X351326Y240101D02*
D03*
X347907Y244524D02*
D03*
X436920Y265444D02*
D03*
X350972Y330472D02*
D03*
X402500Y396000D02*
D03*
Y405500D02*
D03*
X406000Y352500D02*
D03*
X405500Y362000D02*
D03*
X386000Y232500D02*
D03*
X385500Y241500D02*
D03*
X386500Y250500D02*
D03*
X381000Y246500D02*
D03*
X380090Y228000D02*
D03*
X380500Y254500D02*
D03*
X346715Y255716D02*
D03*
X351337Y250183D02*
D03*
X378500Y262000D02*
D03*
X381000Y237000D02*
D03*
X351795Y370772D02*
D03*
X351000Y280500D02*
D03*
X231724Y120500D02*
D03*
X348429Y375376D02*
D03*
X351000Y290500D02*
D03*
X346705Y365707D02*
D03*
X439500Y292500D02*
D03*
X346705Y315707D02*
D03*
X223224Y124659D02*
D03*
X346705Y275707D02*
D03*
Y325707D02*
D03*
X439500Y277000D02*
D03*
X346705Y355707D02*
D03*
X351000Y360500D02*
D03*
X350024Y223289D02*
D03*
X287724Y120500D02*
D03*
X351010Y230510D02*
D03*
X295724Y120500D02*
D03*
X279724D02*
D03*
X247724D02*
D03*
X255724D02*
D03*
X271724D02*
D03*
X239724D02*
D03*
X263724D02*
D03*
X351426Y380574D02*
D03*
X346715Y235716D02*
D03*
X351000Y350500D02*
D03*
X346705Y345707D02*
D03*
Y295707D02*
D03*
X351000Y300500D02*
D03*
Y320500D02*
D03*
X346705Y305707D02*
D03*
Y335707D02*
D03*
X351000Y340500D02*
D03*
Y310500D02*
D03*
X346705Y285707D02*
D03*
X351500Y390500D02*
D03*
X402500Y385500D02*
D03*
X348000D02*
D03*
M02*
