G04*
G04 #@! TF.GenerationSoftware,Altium Limited,Altium Designer,26.3.0 (6)*
G04*
G04 Layer_Color=16711935*
%FSLAX25Y25*%
%MOIN*%
G70*
G04*
G04 #@! TF.SameCoordinates,17AD82C4-5A9D-4AB1-B657-92F8F1A18579*
G04*
G04*
G04 #@! TF.FilePolarity,Negative*
G04*
G01*
G75*
%ADD30R,0.03713X0.06587*%
%ADD39R,0.04540X0.04343*%
%ADD40C,0.02257*%
%ADD41C,0.06115*%
%ADD42C,0.07296*%
%ADD43C,0.19698*%
%ADD44C,0.06902*%
%ADD45R,0.06902X0.06902*%
%ADD46R,0.07296X0.07296*%
%ADD47C,0.05800*%
D30*
X166500Y426500D02*
D03*
X171500D02*
D03*
X176500D02*
D03*
X181500D02*
D03*
X186500D02*
D03*
X191500D02*
D03*
X196500D02*
D03*
X201500D02*
D03*
X206500D02*
D03*
X211500D02*
D03*
X216500D02*
D03*
X221500D02*
D03*
X226500D02*
D03*
X231500D02*
D03*
X236500D02*
D03*
X241500D02*
D03*
X246500D02*
D03*
X251500D02*
D03*
X256500D02*
D03*
X261500D02*
D03*
X266500D02*
D03*
X271500D02*
D03*
X276500D02*
D03*
D39*
X402857Y116650D02*
D03*
X417286D02*
D03*
X431714D02*
D03*
X475000D02*
D03*
X460571D02*
D03*
X446143D02*
D03*
X388429D02*
D03*
X374000D02*
D03*
D40*
X109020Y432858D02*
D03*
X348980D02*
D03*
X364000Y193039D02*
D03*
Y433000D02*
D03*
X348980Y192858D02*
D03*
X109020D02*
D03*
D41*
X359000Y489000D02*
D03*
Y479000D02*
D03*
X279000D02*
D03*
X219000D02*
D03*
X189000Y489000D02*
D03*
Y479000D02*
D03*
X279000Y489000D02*
D03*
X209000D02*
D03*
Y479000D02*
D03*
X199000D02*
D03*
X179000Y489000D02*
D03*
Y479000D02*
D03*
X389000Y489000D02*
D03*
Y479000D02*
D03*
X139000D02*
D03*
Y489000D02*
D03*
X119000Y479000D02*
D03*
Y489000D02*
D03*
X109000Y479000D02*
D03*
Y489000D02*
D03*
X349000D02*
D03*
Y479000D02*
D03*
X309000Y489000D02*
D03*
Y479000D02*
D03*
X299000D02*
D03*
X199000Y489000D02*
D03*
X169000D02*
D03*
Y479000D02*
D03*
X149000D02*
D03*
Y489000D02*
D03*
X379000D02*
D03*
Y479000D02*
D03*
X319000Y489000D02*
D03*
X299000D02*
D03*
X329000D02*
D03*
X319000Y479000D02*
D03*
X289000Y489000D02*
D03*
Y479000D02*
D03*
X159000Y489000D02*
D03*
Y479000D02*
D03*
X329000D02*
D03*
X249000Y489000D02*
D03*
Y479000D02*
D03*
X229000Y489000D02*
D03*
X129000D02*
D03*
Y479000D02*
D03*
X339000D02*
D03*
X269000Y489000D02*
D03*
Y479000D02*
D03*
X239000Y489000D02*
D03*
X229000Y479000D02*
D03*
X369000Y489000D02*
D03*
Y479000D02*
D03*
X339000Y489000D02*
D03*
X259000D02*
D03*
Y479000D02*
D03*
X239000D02*
D03*
X219000Y489000D02*
D03*
X399000D02*
D03*
Y479000D02*
D03*
D42*
X438500Y357469D02*
D03*
X448500Y398039D02*
D03*
Y380008D02*
D03*
Y389024D02*
D03*
Y361976D02*
D03*
X438500Y375500D02*
D03*
Y384516D02*
D03*
X458500Y357469D02*
D03*
Y366484D02*
D03*
Y375500D02*
D03*
Y384516D02*
D03*
Y393532D02*
D03*
X448500Y370992D02*
D03*
X438500Y366484D02*
D03*
D43*
X448500Y327291D02*
D03*
Y425677D02*
D03*
D44*
X496500Y132000D02*
D03*
X506500D02*
D03*
Y112000D02*
D03*
Y172000D02*
D03*
Y242000D02*
D03*
Y232000D02*
D03*
Y222000D02*
D03*
Y212000D02*
D03*
Y202000D02*
D03*
Y192000D02*
D03*
Y182000D02*
D03*
Y162000D02*
D03*
Y152000D02*
D03*
Y142000D02*
D03*
Y122000D02*
D03*
X496500Y242000D02*
D03*
Y232000D02*
D03*
Y222000D02*
D03*
Y212000D02*
D03*
Y202000D02*
D03*
Y192000D02*
D03*
Y182000D02*
D03*
Y172000D02*
D03*
Y162000D02*
D03*
Y152000D02*
D03*
Y142000D02*
D03*
Y122000D02*
D03*
D45*
Y112000D02*
D03*
D46*
X438500Y393532D02*
D03*
D47*
X306539Y205461D02*
D03*
X306500Y179500D02*
D03*
X338724Y28500D02*
D03*
X136500Y445783D02*
D03*
Y419717D02*
D03*
X118500Y419000D02*
D03*
X118000Y446000D02*
D03*
X111500D02*
D03*
Y419717D02*
D03*
X104500Y446000D02*
D03*
Y419000D02*
D03*
X111500Y206000D02*
D03*
X113000Y179500D02*
D03*
X104000Y206000D02*
D03*
X105000Y179500D02*
D03*
X438500Y307500D02*
D03*
X434500Y284500D02*
D03*
X488000Y93500D02*
D03*
X455461Y92461D02*
D03*
X424732Y93959D02*
D03*
X393000Y93500D02*
D03*
X347224Y90500D02*
D03*
X141500Y415500D02*
D03*
X297224Y90500D02*
D03*
X322224D02*
D03*
X272724D02*
D03*
X222724D02*
D03*
X247724D02*
D03*
X172724D02*
D03*
X197724D02*
D03*
X148224Y91000D02*
D03*
X123224Y90500D02*
D03*
X351326Y240101D02*
D03*
X347907Y244524D02*
D03*
X436920Y265444D02*
D03*
X350972Y330472D02*
D03*
X402500Y396000D02*
D03*
Y405500D02*
D03*
X406000Y352500D02*
D03*
X405500Y362000D02*
D03*
X386000Y232500D02*
D03*
X385500Y241500D02*
D03*
X386500Y250500D02*
D03*
X381000Y246500D02*
D03*
X380090Y228000D02*
D03*
X380500Y254500D02*
D03*
X346715Y255716D02*
D03*
X351337Y250183D02*
D03*
X378500Y262000D02*
D03*
X381000Y237000D02*
D03*
X351795Y370772D02*
D03*
X351000Y280500D02*
D03*
X231724Y120500D02*
D03*
X348429Y375376D02*
D03*
X351000Y290500D02*
D03*
X346705Y365707D02*
D03*
X439500Y292500D02*
D03*
X346705Y315707D02*
D03*
X223224Y124659D02*
D03*
X346705Y275707D02*
D03*
Y325707D02*
D03*
X439500Y277000D02*
D03*
X346705Y355707D02*
D03*
X351000Y360500D02*
D03*
X350024Y223289D02*
D03*
X287724Y120500D02*
D03*
X351010Y230510D02*
D03*
X295724Y120500D02*
D03*
X279724D02*
D03*
X247724D02*
D03*
X255724D02*
D03*
X271724D02*
D03*
X239724D02*
D03*
X263724D02*
D03*
X351426Y380574D02*
D03*
X346715Y235716D02*
D03*
X351000Y350500D02*
D03*
X346705Y345707D02*
D03*
Y295707D02*
D03*
X351000Y300500D02*
D03*
Y320500D02*
D03*
X346705Y305707D02*
D03*
Y335707D02*
D03*
X351000Y340500D02*
D03*
Y310500D02*
D03*
X346705Y285707D02*
D03*
X351500Y390500D02*
D03*
X402500Y385500D02*
D03*
X348000D02*
D03*
M02*
