G04*
G04 #@! TF.GenerationSoftware,Altium Limited,Altium Designer,26.3.0 (6)*
G04*
G04 Layer_Color=65535*
%FSLAX25Y25*%
%MOIN*%
G70*
G04*
G04 #@! TF.SameCoordinates,17AD82C4-5A9D-4AB1-B657-92F8F1A18579*
G04*
G04*
G04 #@! TF.FilePolarity,Positive*
G04*
G01*
G75*
%ADD10C,0.00787*%
%ADD11C,0.00984*%
%ADD12C,0.00394*%
%ADD13C,0.00591*%
%ADD14C,0.01000*%
D10*
X106579Y443153D02*
G03*
X106579Y443153I-197J0D01*
G01*
X109000Y496874D02*
G03*
X109000Y496874I-197J0D01*
G01*
X374492Y435638D02*
G03*
X374492Y435638I-197J0D01*
G01*
X445996Y294024D02*
G03*
X446390Y294024I197J0D01*
G01*
D02*
G03*
X445996Y294024I-197J0D01*
G01*
D02*
G03*
X446390Y294024I197J0D01*
G01*
X106579Y203153D02*
G03*
X106579Y203153I-197J0D01*
G01*
X384141Y353334D02*
X394859D01*
X384141Y360666D02*
X394859D01*
X383141Y372834D02*
X393859D01*
X383141Y380166D02*
X393859D01*
X385154Y399650D02*
X391846D01*
X385175Y393322D02*
X391867D01*
X383752Y383630D02*
X393248D01*
X383752Y390370D02*
X393248D01*
X399609Y107201D02*
Y116650D01*
Y107201D02*
X406105D01*
Y116650D01*
X414038Y107201D02*
Y116650D01*
Y107201D02*
X420534D01*
Y116650D01*
X428466Y107201D02*
Y116650D01*
Y107201D02*
X434962D01*
Y116650D01*
X370752Y107201D02*
Y116650D01*
Y107201D02*
X377248D01*
Y116650D01*
X385180Y107201D02*
Y116650D01*
Y107201D02*
X391677D01*
Y116650D01*
X471752Y107201D02*
Y116650D01*
Y107201D02*
X478248D01*
Y116650D01*
X457323Y107201D02*
Y116650D01*
Y107201D02*
X463819D01*
Y116650D01*
X442895Y107201D02*
Y116650D01*
Y107201D02*
X449391D01*
Y116650D01*
X491756Y248496D02*
X511244D01*
X491756Y105504D02*
X511244D01*
Y248496D01*
X491756Y105504D02*
Y248496D01*
X432098Y44598D02*
Y69402D01*
Y44598D02*
X449126D01*
X456902D02*
Y69402D01*
X439874D02*
X449126D01*
X463598Y44598D02*
Y69402D01*
Y44598D02*
X480626D01*
X488402D02*
Y69402D01*
X471374D02*
X480626D01*
X401098Y44598D02*
Y69402D01*
Y44598D02*
X418126D01*
X425902D02*
Y69402D01*
X408874D02*
X418126D01*
X369598Y44598D02*
Y69402D01*
Y44598D02*
X386626D01*
X394402D02*
Y69402D01*
X377374D02*
X386626D01*
X133638Y77716D02*
X147811D01*
X133638Y42283D02*
Y46713D01*
Y53602D02*
Y56555D01*
Y63445D02*
Y66398D01*
Y73287D02*
Y77716D01*
Y42283D02*
X147811D01*
Y46713D01*
Y53602D02*
Y56555D01*
Y63445D02*
Y66398D01*
Y73287D02*
Y77716D01*
X108638D02*
X122811D01*
X108638Y42283D02*
Y46713D01*
Y53602D02*
Y56555D01*
Y63445D02*
Y66398D01*
Y73287D02*
Y77716D01*
Y42283D02*
X122811D01*
Y46713D01*
Y53602D02*
Y56555D01*
Y63445D02*
Y66398D01*
Y73287D02*
Y77716D01*
X332638D02*
X346811D01*
X332638Y42283D02*
Y46713D01*
Y53602D02*
Y56555D01*
Y63445D02*
Y66398D01*
Y73287D02*
Y77716D01*
Y42283D02*
X346811D01*
Y46713D01*
Y53602D02*
Y56555D01*
Y63445D02*
Y66398D01*
Y73287D02*
Y77716D01*
X258138D02*
X272311D01*
X258138Y42283D02*
Y46713D01*
Y53602D02*
Y56555D01*
Y63445D02*
Y66398D01*
Y73287D02*
Y77716D01*
Y42283D02*
X272311D01*
Y46713D01*
Y53602D02*
Y56555D01*
Y63445D02*
Y66398D01*
Y73287D02*
Y77716D01*
X283138D02*
X297311D01*
X283138Y42283D02*
Y46713D01*
Y53602D02*
Y56555D01*
Y63445D02*
Y66398D01*
Y73287D02*
Y77716D01*
Y42283D02*
X297311D01*
Y46713D01*
Y53602D02*
Y56555D01*
Y63445D02*
Y66398D01*
Y73287D02*
Y77716D01*
X208138D02*
X222311D01*
X208138Y42283D02*
Y46713D01*
Y53602D02*
Y56555D01*
Y63445D02*
Y66398D01*
Y73287D02*
Y77716D01*
Y42283D02*
X222311D01*
Y46713D01*
Y53602D02*
Y56555D01*
Y63445D02*
Y66398D01*
Y73287D02*
Y77716D01*
X183638D02*
X197811D01*
X183638Y42283D02*
Y46713D01*
Y53602D02*
Y56555D01*
Y63445D02*
Y66398D01*
Y73287D02*
Y77716D01*
Y42283D02*
X197811D01*
Y46713D01*
Y53602D02*
Y56555D01*
Y63445D02*
Y66398D01*
Y73287D02*
Y77716D01*
X158638D02*
X172811D01*
X158638Y42283D02*
Y46713D01*
Y53602D02*
Y56555D01*
Y63445D02*
Y66398D01*
Y73287D02*
Y77716D01*
Y42283D02*
X172811D01*
Y46713D01*
Y53602D02*
Y56555D01*
Y63445D02*
Y66398D01*
Y73287D02*
Y77716D01*
X307638D02*
X321811D01*
X307638Y42283D02*
Y46713D01*
Y53602D02*
Y56555D01*
Y63445D02*
Y66398D01*
Y73287D02*
Y77716D01*
Y42283D02*
X321811D01*
Y46713D01*
Y53602D02*
Y56555D01*
Y63445D02*
Y66398D01*
Y73287D02*
Y77716D01*
X233138D02*
X247311D01*
X233138Y42283D02*
Y46713D01*
Y53602D02*
Y56555D01*
Y63445D02*
Y66398D01*
Y73287D02*
Y77716D01*
Y42283D02*
X247311D01*
Y46713D01*
Y53602D02*
Y56555D01*
Y63445D02*
Y66398D01*
Y73287D02*
Y77716D01*
X409141Y390166D02*
X419859D01*
X409141Y382834D02*
X419859D01*
X409752Y400370D02*
X419248D01*
X409752Y393630D02*
X419248D01*
X411175Y403322D02*
X417867D01*
X411154Y409650D02*
X417846D01*
X493500Y435165D02*
X516335D01*
Y419811D02*
Y435165D01*
X493500Y419811D02*
X516335D01*
X493500Y333157D02*
X516335D01*
Y317803D02*
Y333157D01*
X493500Y317803D02*
X516335D01*
X493500Y408492D02*
X516335D01*
Y344476D02*
Y408492D01*
X493500Y344476D02*
X516335D01*
X428854Y315835D02*
X493500D01*
Y437134D01*
X428854D02*
X493500D01*
X428854Y315835D02*
Y437134D01*
X385675Y363822D02*
X392367D01*
X385654Y370150D02*
X392346D01*
X412675Y358822D02*
X419367D01*
X412654Y365150D02*
X419346D01*
X412675Y349322D02*
X419367D01*
X412654Y355650D02*
X419346D01*
D11*
X453850Y81213D02*
G03*
X453850Y81213I-492J0D01*
G01*
X485350D02*
G03*
X485350Y81213I-492J0D01*
G01*
X422850D02*
G03*
X422850Y81213I-492J0D01*
G01*
X391350D02*
G03*
X391350Y81213I-492J0D01*
G01*
X130980Y69744D02*
G03*
X130980Y69744I-492J0D01*
G01*
X105980D02*
G03*
X105980Y69744I-492J0D01*
G01*
X329980D02*
G03*
X329980Y69744I-492J0D01*
G01*
X255480D02*
G03*
X255480Y69744I-492J0D01*
G01*
X280480D02*
G03*
X280480Y69744I-492J0D01*
G01*
X205480D02*
G03*
X205480Y69744I-492J0D01*
G01*
X180980D02*
G03*
X180980Y69744I-492J0D01*
G01*
X155980D02*
G03*
X155980Y69744I-492J0D01*
G01*
X304980D02*
G03*
X304980Y69744I-492J0D01*
G01*
X230480D02*
G03*
X230480Y69744I-492J0D01*
G01*
D12*
X427083Y393531D02*
G03*
X426689Y393531I-197J0D01*
G01*
D02*
G03*
X427083Y393531I197J0D01*
G01*
X103154Y426854D02*
Y438862D01*
X354846Y426854D02*
Y438862D01*
X104000Y472996D02*
X404000D01*
X104000D02*
Y495004D01*
X404000D01*
Y472996D02*
Y495004D01*
X357996Y187173D02*
X370004D01*
X357996Y438866D02*
X370004D01*
X495996Y255736D02*
X500917D01*
X472370D02*
X488122D01*
X450425D02*
X462528D01*
X514004Y260362D02*
Y304654D01*
X450425Y310264D02*
X504854D01*
X450425Y304654D02*
Y310264D01*
X354846Y186854D02*
Y198862D01*
X103154Y186854D02*
Y198862D01*
D13*
X402213Y102000D02*
X403787D01*
X474713D02*
X476287D01*
X460213D02*
X461787D01*
X445713D02*
X447287D01*
X431213D02*
X432787D01*
X416713D02*
X418287D01*
X387713D02*
X389287D01*
X373213D02*
X374787D01*
X455546Y85500D02*
X457121D01*
X423879D02*
X425454D01*
X487213D02*
X488787D01*
X392213D02*
X393787D01*
X221992Y83272D02*
X223567D01*
X321548D02*
X323123D01*
X271770D02*
X273345D01*
X246881D02*
X248456D01*
X172215D02*
X173790D01*
X147326D02*
X148901D01*
X122437D02*
X124012D01*
X296659D02*
X298234D01*
X346437D02*
X348012D01*
X197104D02*
X198678D01*
X399496Y122733D02*
Y120765D01*
X400808D01*
X402776Y122733D02*
X401464D01*
Y120765D01*
X402776D01*
X401464Y121749D02*
X402120D01*
X403432Y122733D02*
Y120765D01*
X404416D01*
X404743Y121093D01*
Y122405D01*
X404416Y122733D01*
X403432D01*
X406711D02*
X405399D01*
Y121749D01*
X406055Y122077D01*
X406383D01*
X406711Y121749D01*
Y121093D01*
X406383Y120765D01*
X405727D01*
X405399Y121093D01*
X413924Y122733D02*
Y120765D01*
X415236D01*
X417204Y122733D02*
X415892D01*
Y120765D01*
X417204D01*
X415892Y121749D02*
X416548D01*
X417860Y122733D02*
Y120765D01*
X418844D01*
X419172Y121093D01*
Y122405D01*
X418844Y122733D01*
X417860D01*
X420812Y120765D02*
Y122733D01*
X419828Y121749D01*
X421140D01*
X428353Y122733D02*
Y120765D01*
X429665D01*
X431633Y122733D02*
X430321D01*
Y120765D01*
X431633D01*
X430321Y121749D02*
X430977D01*
X432289Y122733D02*
Y120765D01*
X433273D01*
X433601Y121093D01*
Y122405D01*
X433273Y122733D01*
X432289D01*
X434257Y122405D02*
X434585Y122733D01*
X435241D01*
X435569Y122405D01*
Y122077D01*
X435241Y121749D01*
X434912D01*
X435241D01*
X435569Y121421D01*
Y121093D01*
X435241Y120765D01*
X434585D01*
X434257Y121093D01*
X370639Y122733D02*
Y120765D01*
X371951D01*
X373919Y122733D02*
X372607D01*
Y120765D01*
X373919D01*
X372607Y121749D02*
X373263D01*
X374574Y122733D02*
Y120765D01*
X375558D01*
X375886Y121093D01*
Y122405D01*
X375558Y122733D01*
X374574D01*
X376542D02*
X377854D01*
Y122405D01*
X376542Y121093D01*
Y120765D01*
X385067Y122733D02*
Y120765D01*
X386379D01*
X388347Y122733D02*
X387035D01*
Y120765D01*
X388347D01*
X387035Y121749D02*
X387691D01*
X389003Y122733D02*
Y120765D01*
X389987D01*
X390315Y121093D01*
Y122405D01*
X389987Y122733D01*
X389003D01*
X392283D02*
X391627Y122405D01*
X390971Y121749D01*
Y121093D01*
X391299Y120765D01*
X391955D01*
X392283Y121093D01*
Y121421D01*
X391955Y121749D01*
X390971D01*
X471639Y122733D02*
Y120765D01*
X472951D01*
X474919Y122733D02*
X473606D01*
Y120765D01*
X474919D01*
X473606Y121749D02*
X474263D01*
X475574Y122733D02*
Y120765D01*
X476558D01*
X476886Y121093D01*
Y122405D01*
X476558Y122733D01*
X475574D01*
X477542Y122405D02*
X477870Y122733D01*
X478526D01*
X478854Y122405D01*
Y121093D01*
X478526Y120765D01*
X477870D01*
X477542Y121093D01*
Y122405D01*
X457538Y122733D02*
Y120765D01*
X458850D01*
X460818Y122733D02*
X459506D01*
Y120765D01*
X460818D01*
X459506Y121749D02*
X460162D01*
X461474Y122733D02*
Y120765D01*
X462458D01*
X462786Y121093D01*
Y122405D01*
X462458Y122733D01*
X461474D01*
X463442Y120765D02*
X464098D01*
X463770D01*
Y122733D01*
X463442Y122405D01*
X442781Y122733D02*
Y120765D01*
X444094D01*
X446061Y122733D02*
X444749D01*
Y120765D01*
X446061D01*
X444749Y121749D02*
X445405D01*
X446717Y122733D02*
Y120765D01*
X447701D01*
X448029Y121093D01*
Y122405D01*
X447701Y122733D01*
X446717D01*
X449997Y120765D02*
X448685D01*
X449997Y122077D01*
Y122405D01*
X449669Y122733D01*
X449013D01*
X448685Y122405D01*
D14*
X89352Y424607D02*
Y422608D01*
Y423607D01*
X94350D01*
X95350Y422608D01*
Y421608D01*
X94350Y420608D01*
X95350Y426606D02*
Y428606D01*
Y427606D01*
X89352D01*
X90352Y426606D01*
X90152Y473149D02*
Y471149D01*
Y472149D01*
X95150D01*
X96150Y471149D01*
Y470150D01*
X95150Y469150D01*
X90152Y475148D02*
Y479147D01*
X91152D01*
X95150Y475148D01*
X96150D01*
X363000Y447499D02*
X361001D01*
X362001D01*
Y442501D01*
X361001Y441501D01*
X360001D01*
X359002Y442501D01*
X368998Y441501D02*
X365000D01*
X368998Y445500D01*
Y446499D01*
X367999Y447499D01*
X365999D01*
X365000Y446499D01*
X484000Y249499D02*
X482001D01*
X483001D01*
Y244501D01*
X482001Y243501D01*
X481001D01*
X480002Y244501D01*
X489998Y249499D02*
X486000D01*
Y246500D01*
X487999Y247500D01*
X488999D01*
X489998Y246500D01*
Y244501D01*
X488999Y243501D01*
X486999D01*
X486000Y244501D01*
X469849Y31148D02*
X468849Y32148D01*
X466850D01*
X465850Y31148D01*
Y30149D01*
X466850Y29149D01*
X468849D01*
X469849Y28149D01*
Y27150D01*
X468849Y26150D01*
X466850D01*
X465850Y27150D01*
X471848Y32148D02*
Y26150D01*
X473847Y28149D01*
X475847Y26150D01*
Y32148D01*
X477846Y26150D02*
X479846D01*
X478846D01*
Y32148D01*
X477846Y31148D01*
X482844D02*
X483844Y32148D01*
X485844D01*
X486843Y31148D01*
Y30149D01*
X485844Y29149D01*
X484844D01*
X485844D01*
X486843Y28149D01*
Y27150D01*
X485844Y26150D01*
X483844D01*
X482844Y27150D01*
X438349Y31148D02*
X437349Y32148D01*
X435350D01*
X434350Y31148D01*
Y30149D01*
X435350Y29149D01*
X437349D01*
X438349Y28149D01*
Y27150D01*
X437349Y26150D01*
X435350D01*
X434350Y27150D01*
X440348Y32148D02*
Y26150D01*
X442347Y28149D01*
X444347Y26150D01*
Y32148D01*
X446346Y26150D02*
X448346D01*
X447346D01*
Y32148D01*
X446346Y31148D01*
X455343Y26150D02*
X451344D01*
X455343Y30149D01*
Y31148D01*
X454344Y32148D01*
X452344D01*
X451344Y31148D01*
X407349D02*
X406349Y32148D01*
X404350D01*
X403350Y31148D01*
Y30149D01*
X404350Y29149D01*
X406349D01*
X407349Y28149D01*
Y27150D01*
X406349Y26150D01*
X404350D01*
X403350Y27150D01*
X409348Y32148D02*
Y26150D01*
X411347Y28149D01*
X413347Y26150D01*
Y32148D01*
X415346Y26150D02*
X417346D01*
X416346D01*
Y32148D01*
X415346Y31148D01*
X420344Y26150D02*
X422344D01*
X421344D01*
Y32148D01*
X420344Y31148D01*
X375849D02*
X374849Y32148D01*
X372850D01*
X371850Y31148D01*
Y30149D01*
X372850Y29149D01*
X374849D01*
X375849Y28149D01*
Y27150D01*
X374849Y26150D01*
X372850D01*
X371850Y27150D01*
X377848Y32148D02*
Y26150D01*
X379847Y28149D01*
X381847Y26150D01*
Y32148D01*
X383846Y26150D02*
X385845D01*
X384846D01*
Y32148D01*
X383846Y31148D01*
X388844D02*
X389844Y32148D01*
X391844D01*
X392843Y31148D01*
Y27150D01*
X391844Y26150D01*
X389844D01*
X388844Y27150D01*
Y31148D01*
X108879Y37450D02*
X107879Y38450D01*
X105880D01*
X104880Y37450D01*
Y36451D01*
X105880Y35451D01*
X107879D01*
X108879Y34451D01*
Y33452D01*
X107879Y32452D01*
X105880D01*
X104880Y33452D01*
X110879Y38450D02*
Y32452D01*
X112878Y34451D01*
X114877Y32452D01*
Y38450D01*
X116876Y33452D02*
X117876Y32452D01*
X119876D01*
X120875Y33452D01*
Y37450D01*
X119876Y38450D01*
X117876D01*
X116876Y37450D01*
Y36451D01*
X117876Y35451D01*
X120875D01*
X136378Y37450D02*
X135379Y38450D01*
X133379D01*
X132380Y37450D01*
Y36451D01*
X133379Y35451D01*
X135379D01*
X136378Y34451D01*
Y33452D01*
X135379Y32452D01*
X133379D01*
X132380Y33452D01*
X138378Y38450D02*
Y32452D01*
X140377Y34451D01*
X142376Y32452D01*
Y38450D01*
X144376Y37450D02*
X145375Y38450D01*
X147375D01*
X148374Y37450D01*
Y36451D01*
X147375Y35451D01*
X148374Y34451D01*
Y33452D01*
X147375Y32452D01*
X145375D01*
X144376Y33452D01*
Y34451D01*
X145375Y35451D01*
X144376Y36451D01*
Y37450D01*
X145375Y35451D02*
X147375D01*
X161378Y37450D02*
X160379Y38450D01*
X158379D01*
X157380Y37450D01*
Y36451D01*
X158379Y35451D01*
X160379D01*
X161378Y34451D01*
Y33452D01*
X160379Y32452D01*
X158379D01*
X157380Y33452D01*
X163378Y38450D02*
Y32452D01*
X165377Y34451D01*
X167376Y32452D01*
Y38450D01*
X169376D02*
X173374D01*
Y37450D01*
X169376Y33452D01*
Y32452D01*
X186378Y37450D02*
X185379Y38450D01*
X183379D01*
X182380Y37450D01*
Y36451D01*
X183379Y35451D01*
X185379D01*
X186378Y34451D01*
Y33452D01*
X185379Y32452D01*
X183379D01*
X182380Y33452D01*
X188378Y38450D02*
Y32452D01*
X190377Y34451D01*
X192376Y32452D01*
Y38450D01*
X198374D02*
X196375Y37450D01*
X194376Y35451D01*
Y33452D01*
X195375Y32452D01*
X197375D01*
X198374Y33452D01*
Y34451D01*
X197375Y35451D01*
X194376D01*
X210878Y37450D02*
X209879Y38450D01*
X207879D01*
X206880Y37450D01*
Y36451D01*
X207879Y35451D01*
X209879D01*
X210878Y34451D01*
Y33452D01*
X209879Y32452D01*
X207879D01*
X206880Y33452D01*
X212878Y38450D02*
Y32452D01*
X214877Y34451D01*
X216876Y32452D01*
Y38450D01*
X222874D02*
X218876D01*
Y35451D01*
X220875Y36451D01*
X221875D01*
X222874Y35451D01*
Y33452D01*
X221875Y32452D01*
X219875D01*
X218876Y33452D01*
X235726Y37499D02*
X234726Y38499D01*
X232727D01*
X231727Y37499D01*
Y36500D01*
X232727Y35500D01*
X234726D01*
X235726Y34500D01*
Y33501D01*
X234726Y32501D01*
X232727D01*
X231727Y33501D01*
X237725Y38499D02*
Y32501D01*
X239724Y34500D01*
X241724Y32501D01*
Y38499D01*
X246722Y32501D02*
Y38499D01*
X243723Y35500D01*
X247722D01*
X260878Y37450D02*
X259879Y38450D01*
X257879D01*
X256880Y37450D01*
Y36451D01*
X257879Y35451D01*
X259879D01*
X260878Y34451D01*
Y33452D01*
X259879Y32452D01*
X257879D01*
X256880Y33452D01*
X262878Y38450D02*
Y32452D01*
X264877Y34451D01*
X266876Y32452D01*
Y38450D01*
X268876Y37450D02*
X269875Y38450D01*
X271875D01*
X272874Y37450D01*
Y36451D01*
X271875Y35451D01*
X270875D01*
X271875D01*
X272874Y34451D01*
Y33452D01*
X271875Y32452D01*
X269875D01*
X268876Y33452D01*
X285878Y37450D02*
X284879Y38450D01*
X282879D01*
X281880Y37450D01*
Y36451D01*
X282879Y35451D01*
X284879D01*
X285878Y34451D01*
Y33452D01*
X284879Y32452D01*
X282879D01*
X281880Y33452D01*
X287878Y38450D02*
Y32452D01*
X289877Y34451D01*
X291876Y32452D01*
Y38450D01*
X297874Y32452D02*
X293876D01*
X297874Y36451D01*
Y37450D01*
X296875Y38450D01*
X294875D01*
X293876Y37450D01*
X311378D02*
X310378Y38450D01*
X308379D01*
X307379Y37450D01*
Y36451D01*
X308379Y35451D01*
X310378D01*
X311378Y34451D01*
Y33452D01*
X310378Y32452D01*
X308379D01*
X307379Y33452D01*
X313377Y38450D02*
Y32452D01*
X315377Y34451D01*
X317376Y32452D01*
Y38450D01*
X319375Y32452D02*
X321375D01*
X320375D01*
Y38450D01*
X319375Y37450D01*
X336378D02*
X335378Y38450D01*
X333379D01*
X332379Y37450D01*
Y36451D01*
X333379Y35451D01*
X335378D01*
X336378Y34451D01*
Y33452D01*
X335378Y32452D01*
X333379D01*
X332379Y33452D01*
X338377Y38450D02*
Y32452D01*
X340377Y34451D01*
X342376Y32452D01*
Y38450D01*
X344375Y37450D02*
X345375Y38450D01*
X347374D01*
X348374Y37450D01*
Y33452D01*
X347374Y32452D01*
X345375D01*
X344375Y33452D01*
Y37450D01*
X441001Y254500D02*
Y252501D01*
Y253501D01*
X445999D01*
X446999Y252501D01*
Y251501D01*
X445999Y250502D01*
X441001Y260498D02*
X442001Y258499D01*
X444000Y256500D01*
X445999D01*
X446999Y257499D01*
Y259499D01*
X445999Y260498D01*
X445000D01*
X444000Y259499D01*
Y256500D01*
X432500Y445999D02*
X430501D01*
X431501D01*
Y441001D01*
X430501Y440001D01*
X429501D01*
X428502Y441001D01*
X437499Y440001D02*
Y445999D01*
X434500Y443000D01*
X438498D01*
X117001Y208500D02*
Y206501D01*
Y207501D01*
X121999D01*
X122999Y206501D01*
Y205501D01*
X121999Y204502D01*
X118001Y210500D02*
X117001Y211499D01*
Y213499D01*
X118001Y214498D01*
X119000D01*
X120000Y213499D01*
Y212499D01*
Y213499D01*
X121000Y214498D01*
X121999D01*
X122999Y213499D01*
Y211499D01*
X121999Y210500D01*
M02*
