G04*
G04 #@! TF.GenerationSoftware,Altium Limited,Altium Designer,26.3.0 (6)*
G04*
G04 Layer_Color=8421504*
%FSLAX25Y25*%
%MOIN*%
G70*
G04*
G04 #@! TF.SameCoordinates,17AD82C4-5A9D-4AB1-B657-92F8F1A18579*
G04*
G04*
G04 #@! TF.FilePolarity,Positive*
G04*
G01*
G75*
%ADD15R,0.02913X0.05787*%
%ADD16R,0.05512X0.08268*%
%ADD17R,0.06299X0.03937*%
%ADD18R,0.04724X0.02756*%
%ADD19R,0.04724X0.03937*%
%ADD20R,0.03150X0.03937*%
%ADD21R,0.11024X0.03937*%
%ADD22R,0.07480X0.05118*%
G04:AMPARAMS|DCode=23|XSize=21.65mil|YSize=19.68mil|CornerRadius=2.46mil|HoleSize=0mil|Usage=FLASHONLY|Rotation=0.000|XOffset=0mil|YOffset=0mil|HoleType=Round|Shape=RoundedRectangle|*
%AMROUNDEDRECTD23*
21,1,0.02165,0.01476,0,0,0.0*
21,1,0.01673,0.01968,0,0,0.0*
1,1,0.00492,0.00837,-0.00738*
1,1,0.00492,-0.00837,-0.00738*
1,1,0.00492,-0.00837,0.00738*
1,1,0.00492,0.00837,0.00738*
%
%ADD23ROUNDEDRECTD23*%
G04:AMPARAMS|DCode=24|XSize=21.65mil|YSize=19.68mil|CornerRadius=2.46mil|HoleSize=0mil|Usage=FLASHONLY|Rotation=270.000|XOffset=0mil|YOffset=0mil|HoleType=Round|Shape=RoundedRectangle|*
%AMROUNDEDRECTD24*
21,1,0.02165,0.01476,0,0,270.0*
21,1,0.01673,0.01968,0,0,270.0*
1,1,0.00492,-0.00738,-0.00837*
1,1,0.00492,-0.00738,0.00837*
1,1,0.00492,0.00738,0.00837*
1,1,0.00492,0.00738,-0.00837*
%
%ADD24ROUNDEDRECTD24*%
%ADD25R,0.04188X0.04182*%
%ADD26R,0.03543X0.03150*%
%ADD27R,0.05787X0.02913*%
%ADD28R,0.03381X0.03591*%
%ADD29R,0.03740X0.03543*%
D15*
X121500Y439217D02*
D03*
Y426500D02*
D03*
X126500Y439217D02*
D03*
Y426500D02*
D03*
X131500Y439217D02*
D03*
Y426500D02*
D03*
X146500Y439217D02*
D03*
Y426500D02*
D03*
X151500Y439217D02*
D03*
Y426500D02*
D03*
X156500Y439217D02*
D03*
Y426500D02*
D03*
X161500Y439217D02*
D03*
Y426500D02*
D03*
X166500Y439217D02*
D03*
X171500D02*
D03*
X176500D02*
D03*
X181500D02*
D03*
X186500D02*
D03*
X191500D02*
D03*
X196500D02*
D03*
X201500D02*
D03*
X206500D02*
D03*
X211500D02*
D03*
X216500D02*
D03*
X221500D02*
D03*
X226500D02*
D03*
X231500D02*
D03*
X236500D02*
D03*
X241500D02*
D03*
X246500D02*
D03*
X251500D02*
D03*
X256500D02*
D03*
X261500D02*
D03*
X266500D02*
D03*
X271500D02*
D03*
X276500D02*
D03*
X281500D02*
D03*
Y426500D02*
D03*
X286500Y439217D02*
D03*
Y426500D02*
D03*
X291500Y439217D02*
D03*
Y426500D02*
D03*
X296500Y439217D02*
D03*
Y426500D02*
D03*
X301500Y439217D02*
D03*
Y426500D02*
D03*
X306500Y439217D02*
D03*
Y426500D02*
D03*
X311500Y439217D02*
D03*
Y426500D02*
D03*
X316500Y439217D02*
D03*
Y426500D02*
D03*
X321500Y439217D02*
D03*
Y426500D02*
D03*
X326500Y439217D02*
D03*
Y426500D02*
D03*
X331500Y439217D02*
D03*
Y426500D02*
D03*
X336500Y439217D02*
D03*
Y426500D02*
D03*
X341500Y439217D02*
D03*
Y426500D02*
D03*
X346500Y439217D02*
D03*
Y426500D02*
D03*
X351500Y439217D02*
D03*
Y426500D02*
D03*
X141500Y439217D02*
D03*
Y426500D02*
D03*
X136500D02*
D03*
Y439217D02*
D03*
X116500D02*
D03*
X111500D02*
D03*
X116500Y426500D02*
D03*
X111500D02*
D03*
X106500D02*
D03*
Y439217D02*
D03*
X306500Y186500D02*
D03*
Y199217D02*
D03*
X111500D02*
D03*
X106500D02*
D03*
Y186500D02*
D03*
X111500D02*
D03*
X351500D02*
D03*
Y199217D02*
D03*
X346500Y186500D02*
D03*
Y199217D02*
D03*
X341500Y186500D02*
D03*
Y199217D02*
D03*
X336500Y186500D02*
D03*
Y199217D02*
D03*
X331500Y186500D02*
D03*
Y199217D02*
D03*
X326500Y186500D02*
D03*
Y199217D02*
D03*
X321500Y186500D02*
D03*
Y199217D02*
D03*
X316500Y186500D02*
D03*
Y199217D02*
D03*
X311500Y186500D02*
D03*
Y199217D02*
D03*
X301500Y186500D02*
D03*
Y199217D02*
D03*
X296500Y186500D02*
D03*
Y199217D02*
D03*
X291500Y186500D02*
D03*
Y199217D02*
D03*
X286500Y186500D02*
D03*
Y199217D02*
D03*
X281500Y186500D02*
D03*
Y199217D02*
D03*
X276500Y186500D02*
D03*
Y199217D02*
D03*
X271500Y186500D02*
D03*
Y199217D02*
D03*
X266500Y186500D02*
D03*
Y199217D02*
D03*
X261500Y186500D02*
D03*
Y199217D02*
D03*
X256500Y186500D02*
D03*
Y199217D02*
D03*
X251500Y186500D02*
D03*
Y199217D02*
D03*
X246500Y186500D02*
D03*
Y199217D02*
D03*
X241500Y186500D02*
D03*
Y199217D02*
D03*
X236500Y186500D02*
D03*
Y199217D02*
D03*
X231500Y186500D02*
D03*
Y199217D02*
D03*
X226500Y186500D02*
D03*
Y199217D02*
D03*
X221500Y186500D02*
D03*
Y199217D02*
D03*
X216500Y186500D02*
D03*
Y199217D02*
D03*
X211500Y186500D02*
D03*
Y199217D02*
D03*
X206500Y186500D02*
D03*
Y199217D02*
D03*
X201500Y186500D02*
D03*
Y199217D02*
D03*
X196500Y186500D02*
D03*
Y199217D02*
D03*
X191500Y186500D02*
D03*
Y199217D02*
D03*
X186500Y186500D02*
D03*
Y199217D02*
D03*
X181500Y186500D02*
D03*
Y199217D02*
D03*
X176500Y186500D02*
D03*
Y199217D02*
D03*
X171500Y186500D02*
D03*
Y199217D02*
D03*
X166500Y186500D02*
D03*
Y199217D02*
D03*
X161500Y186500D02*
D03*
Y199217D02*
D03*
X156500Y186500D02*
D03*
Y199217D02*
D03*
X151500Y186500D02*
D03*
Y199217D02*
D03*
X146500Y186500D02*
D03*
Y199217D02*
D03*
X141500Y186500D02*
D03*
Y199217D02*
D03*
X136500Y186500D02*
D03*
Y199217D02*
D03*
X131500Y186500D02*
D03*
Y199217D02*
D03*
X126500Y186500D02*
D03*
Y199217D02*
D03*
X121500Y186500D02*
D03*
Y199217D02*
D03*
X116500Y186500D02*
D03*
Y199217D02*
D03*
D16*
X435642Y38693D02*
D03*
X467142D02*
D03*
X404642D02*
D03*
X373142D02*
D03*
X422358Y74913D02*
D03*
Y39087D02*
D03*
X390858Y74913D02*
D03*
Y39087D02*
D03*
X453358Y74913D02*
D03*
Y39087D02*
D03*
X484858Y74913D02*
D03*
Y39087D02*
D03*
X435642Y74913D02*
D03*
X467142D02*
D03*
X404642D02*
D03*
X373142D02*
D03*
D17*
X145449Y69842D02*
D03*
X136000D02*
D03*
X120449D02*
D03*
X111000D02*
D03*
X344449D02*
D03*
X335000D02*
D03*
X269949D02*
D03*
X260500D02*
D03*
X294949D02*
D03*
X285500D02*
D03*
X219949D02*
D03*
X210500D02*
D03*
X195449D02*
D03*
X186000D02*
D03*
X170449D02*
D03*
X161000D02*
D03*
X319449D02*
D03*
X310000D02*
D03*
X244949D02*
D03*
X235500D02*
D03*
X145449Y60000D02*
D03*
X136000D02*
D03*
X145449Y50157D02*
D03*
X136000D02*
D03*
X120449D02*
D03*
Y60000D02*
D03*
X111000Y50157D02*
D03*
Y60000D02*
D03*
X344449Y50157D02*
D03*
Y60000D02*
D03*
X335000Y50157D02*
D03*
Y60000D02*
D03*
X269949Y50157D02*
D03*
Y60000D02*
D03*
X260500Y50157D02*
D03*
Y60000D02*
D03*
X294949Y50157D02*
D03*
Y60000D02*
D03*
X285500Y50157D02*
D03*
Y60000D02*
D03*
X219949Y50157D02*
D03*
Y60000D02*
D03*
X210500Y50157D02*
D03*
Y60000D02*
D03*
X195449Y50157D02*
D03*
Y60000D02*
D03*
X186000Y50157D02*
D03*
Y60000D02*
D03*
X170449Y50157D02*
D03*
Y60000D02*
D03*
X161000Y50157D02*
D03*
Y60000D02*
D03*
X319449Y50157D02*
D03*
Y60000D02*
D03*
X310000Y50157D02*
D03*
Y60000D02*
D03*
X244949Y50157D02*
D03*
Y60000D02*
D03*
X235500Y50157D02*
D03*
Y60000D02*
D03*
D18*
X450819Y272272D02*
D03*
Y259870D02*
D03*
Y280933D02*
D03*
Y289595D02*
D03*
Y263610D02*
D03*
Y267941D02*
D03*
Y276602D02*
D03*
Y285264D02*
D03*
Y293925D02*
D03*
D19*
Y300028D02*
D03*
X467748Y256130D02*
D03*
D20*
X492154D02*
D03*
D21*
X508492D02*
D03*
D22*
X510268Y309279D02*
D03*
D23*
X475500Y100228D02*
D03*
X446500D02*
D03*
X403000D02*
D03*
X417500D02*
D03*
X388500D02*
D03*
X432000D02*
D03*
X374000D02*
D03*
X488000Y87272D02*
D03*
X456333D02*
D03*
X424667D02*
D03*
X393000D02*
D03*
X347224Y85043D02*
D03*
X322335D02*
D03*
X297447D02*
D03*
X272558D02*
D03*
X247669D02*
D03*
X222780D02*
D03*
X197891D02*
D03*
X173002D02*
D03*
X148113D02*
D03*
X123224D02*
D03*
X403000Y103772D02*
D03*
X475500D02*
D03*
X461000D02*
D03*
X446500D02*
D03*
X432000D02*
D03*
X417500D02*
D03*
X388500D02*
D03*
X374000D02*
D03*
X148113Y81500D02*
D03*
X424667Y83728D02*
D03*
X393000D02*
D03*
X456333D02*
D03*
X488000D02*
D03*
X222780Y81500D02*
D03*
X322335D02*
D03*
X272558D02*
D03*
X247669D02*
D03*
X173002D02*
D03*
X123224D02*
D03*
X297447D02*
D03*
X347224D02*
D03*
X197891D02*
D03*
D24*
X461000Y100228D02*
D03*
D25*
X392765Y357000D02*
D03*
X386235D02*
D03*
X391765Y376500D02*
D03*
X385235D02*
D03*
X411235Y386500D02*
D03*
X417765D02*
D03*
D26*
X392346Y367000D02*
D03*
X391846Y396500D02*
D03*
X385154D02*
D03*
X385654Y367000D02*
D03*
X412654Y352500D02*
D03*
Y362000D02*
D03*
X411154Y406500D02*
D03*
X417846D02*
D03*
X419346Y362000D02*
D03*
Y352500D02*
D03*
D27*
X370358Y370520D02*
D03*
Y380520D02*
D03*
Y390520D02*
D03*
Y385520D02*
D03*
Y230520D02*
D03*
Y345520D02*
D03*
X357642Y190520D02*
D03*
X370358D02*
D03*
X357642Y195520D02*
D03*
X370358D02*
D03*
X357642Y200520D02*
D03*
X370358D02*
D03*
X357642Y205520D02*
D03*
X370358D02*
D03*
X357642Y210520D02*
D03*
X370358D02*
D03*
X357642Y215520D02*
D03*
X370358D02*
D03*
X357642Y220520D02*
D03*
X370358D02*
D03*
X357642Y225520D02*
D03*
X370358D02*
D03*
X357642Y230520D02*
D03*
Y235520D02*
D03*
X370358D02*
D03*
X357642Y240520D02*
D03*
X370358D02*
D03*
X357642Y245520D02*
D03*
X370358D02*
D03*
X357642Y250520D02*
D03*
X370358D02*
D03*
Y255520D02*
D03*
X357642Y260520D02*
D03*
X370358D02*
D03*
X357642Y265520D02*
D03*
X370358D02*
D03*
X357642Y270520D02*
D03*
X370358D02*
D03*
X357642Y275520D02*
D03*
X370358D02*
D03*
X357642Y370520D02*
D03*
Y375520D02*
D03*
X370358D02*
D03*
X357642Y380520D02*
D03*
Y385520D02*
D03*
Y390520D02*
D03*
Y395520D02*
D03*
X370358D02*
D03*
X357642Y400520D02*
D03*
X370358D02*
D03*
X357642Y405520D02*
D03*
X370358D02*
D03*
X357642Y410520D02*
D03*
X370358D02*
D03*
X357642Y415520D02*
D03*
X370358D02*
D03*
X357642Y420520D02*
D03*
X370358D02*
D03*
X357642Y425520D02*
D03*
X370358D02*
D03*
X357642Y430520D02*
D03*
X370358D02*
D03*
X357642Y435520D02*
D03*
X370358D02*
D03*
Y350520D02*
D03*
X357642Y285520D02*
D03*
Y280520D02*
D03*
X370358Y310520D02*
D03*
Y285520D02*
D03*
Y280520D02*
D03*
X357642Y310520D02*
D03*
X370358Y340520D02*
D03*
Y305520D02*
D03*
X357642Y350520D02*
D03*
Y340520D02*
D03*
Y335520D02*
D03*
Y330520D02*
D03*
Y305520D02*
D03*
X370358Y315520D02*
D03*
X357642Y345520D02*
D03*
Y315520D02*
D03*
X370358Y335520D02*
D03*
Y330520D02*
D03*
Y320520D02*
D03*
X357642D02*
D03*
Y300520D02*
D03*
X370358D02*
D03*
Y290520D02*
D03*
X357642Y325520D02*
D03*
X370358D02*
D03*
X357642Y295520D02*
D03*
Y290520D02*
D03*
X370358Y295520D02*
D03*
X357642Y255520D02*
D03*
X370358Y365520D02*
D03*
X357642Y360520D02*
D03*
X370358D02*
D03*
Y355520D02*
D03*
X357642Y365520D02*
D03*
Y355520D02*
D03*
D28*
X391558Y387000D02*
D03*
X385442D02*
D03*
X411442Y397000D02*
D03*
X417558D02*
D03*
D29*
X402857Y110350D02*
D03*
X417286D02*
D03*
X431714D02*
D03*
X374000D02*
D03*
X388429D02*
D03*
X475000D02*
D03*
X460571D02*
D03*
X446143D02*
D03*
M02*
