G04*
G04 #@! TF.GenerationSoftware,Altium Limited,Altium Designer,26.3.0 (6)*
G04*
G04 Layer_Physical_Order=2*
G04 Layer_Color=36540*
%FSLAX25Y25*%
%MOIN*%
G70*
G04*
G04 #@! TF.SameCoordinates,3252148B-6E92-4FCE-BCB3-50AFE4F8E010*
G04*
G04*
G04 #@! TF.FilePolarity,Positive*
G04*
G01*
G75*
%ADD10C,0.01000*%
%ADD17R,0.03740X0.03543*%
%ADD22R,0.02913X0.05787*%
%ADD50C,0.06496*%
%ADD51C,0.18898*%
%ADD52R,0.06496X0.06496*%
%ADD53C,0.01457*%
%ADD54C,0.06102*%
%ADD55R,0.06102X0.06102*%
%ADD56C,0.05315*%
%ADD57C,0.05000*%
D10*
X1168591Y731909D02*
X1169000Y731500D01*
X826122Y976991D02*
Y999179D01*
X909000Y946000D02*
Y947437D01*
X1014078Y839422D02*
X1016578D01*
X1164449Y731909D02*
X1168591D01*
X821500Y1003800D02*
X826122Y999179D01*
X909000Y947437D02*
X931860Y970297D01*
X1148642Y707358D02*
X1163142D01*
X1158999Y737358D02*
X1164449Y731909D01*
X827752Y981248D02*
X834000Y975000D01*
X981105Y1008105D02*
X981500Y1008500D01*
X1016578Y839422D02*
X1148642Y707358D01*
X1158999Y727358D02*
X1164449Y721909D01*
X1064269Y905000D02*
X1065000D01*
X981105Y1005015D02*
Y1008105D01*
X1013500Y840000D02*
X1014078Y839422D01*
X1164449Y721909D02*
X1168591D01*
X1061806Y902537D02*
X1064269Y905000D01*
X977752Y994252D02*
Y1001662D01*
X1058264Y819658D02*
X1095785Y782137D01*
X1168591Y721909D02*
X1169000Y721500D01*
X977752Y1001662D02*
X981105Y1005015D01*
X1096614Y782137D02*
X1099420Y784944D01*
X1163142Y717358D02*
X1169000Y711500D01*
X939000Y946000D02*
X953000Y960000D01*
X1095785Y782137D02*
X1096614D01*
X1163142Y707358D02*
X1169000Y701500D01*
X1037000Y997700D02*
Y1004000D01*
X1013500Y819000D02*
Y820000D01*
X1163142Y687358D02*
X1169000Y681500D01*
X1037000Y1004000D02*
X1041500Y1008500D01*
X1082915Y721727D02*
X1157284Y647358D01*
X1168024Y672476D02*
X1169000Y671500D01*
X1024800Y985500D02*
X1037000Y997700D01*
X1084545Y740097D02*
Y747955D01*
X1166024Y672476D02*
X1168024D01*
X831500Y1004014D02*
Y1008500D01*
X1082915Y721727D02*
Y745662D01*
X1161142Y677358D02*
X1166024Y672476D01*
X827752Y1000266D02*
X831500Y1004014D01*
X1013371Y815207D02*
X1082915Y745662D01*
X1084545Y740097D02*
X1158512Y666130D01*
X861500Y1003800D02*
Y1008500D01*
X1013500Y819000D02*
X1084545Y747955D01*
X1158512Y666130D02*
X1164370D01*
X855315Y997616D02*
X861500Y1003800D01*
X1005000Y702776D02*
Y751002D01*
X1164370Y666130D02*
X1169000Y661500D01*
X855315Y953753D02*
Y997616D01*
X1006630Y744630D02*
X1010931Y748931D01*
X1163142Y647358D02*
X1169000Y641500D01*
X849000Y947437D02*
X855315Y953753D01*
X942224Y640000D02*
X1005000Y702776D01*
X1157284Y647358D02*
X1163142D01*
X849000Y946000D02*
Y947437D01*
X1006630Y696406D02*
Y744630D01*
X885724Y682188D02*
X1009120Y805583D01*
X970674Y1007674D02*
X971500Y1008500D01*
X950224Y640000D02*
X1006630Y696406D01*
X1009120Y805583D02*
X1009769D01*
X970674Y1006174D02*
Y1007674D01*
X1008930Y760010D02*
X1013417D01*
X885724Y644159D02*
Y682188D01*
X965248Y1000748D02*
X970674Y1006174D01*
X995500Y754195D02*
X1008920Y767615D01*
X902224Y640000D02*
Y691528D01*
X965248Y996947D02*
Y1000748D01*
X1012754Y769683D02*
X1013837D01*
X902224Y691528D02*
X1005791Y795095D01*
X904000Y946000D02*
Y947437D01*
X995500Y717276D02*
Y754195D01*
X1005791Y795095D02*
X1009093D01*
X973826Y965526D02*
X1005248Y996947D01*
X1009325Y764024D02*
X1010407D01*
X1009093Y795095D02*
X1009205Y795207D01*
X1011500Y1003800D02*
Y1008500D01*
X1008920Y767615D02*
X1010686D01*
X1156142Y687358D02*
X1163142D01*
X1005248Y997548D02*
X1011500Y1003800D01*
X1000000Y756002D02*
X1006033Y762035D01*
X1086136Y748507D02*
X1157284Y677358D01*
X1005248Y996947D02*
Y997548D01*
X1007335Y762035D02*
X1009325Y764024D01*
X1157284Y677358D02*
X1161142D01*
X841500Y1003800D02*
Y1008500D01*
X1013417Y760010D02*
X1013826Y759601D01*
X1086136Y748507D02*
Y752442D01*
X837752Y1000053D02*
X841500Y1003800D01*
X1006033Y762035D02*
X1007335D01*
X1009205Y825207D02*
X1013371D01*
X837752Y948685D02*
Y1000053D01*
X1010686Y767615D02*
X1012754Y769683D01*
X1013500Y830000D02*
X1156142Y687358D01*
X837752Y948685D02*
X839000Y947437D01*
X1009215Y774134D02*
Y775216D01*
X1013371Y825207D02*
X1086136Y752442D01*
X839000Y946000D02*
Y947437D01*
X1008137Y772637D02*
Y773057D01*
X1158999Y697358D02*
X1164449Y691909D01*
X871500Y1003800D02*
Y1008500D01*
X910224Y640000D02*
Y674724D01*
X1168591Y691909D02*
X1169000Y691500D01*
X865248Y997548D02*
X871500Y1003800D01*
X1008137Y773057D02*
X1009215Y774134D01*
X1153892Y697358D02*
X1158999D01*
X865248Y958685D02*
Y997548D01*
X910224Y674724D02*
X1008137Y772637D01*
X1164449Y691909D02*
X1168591D01*
X854000Y947437D02*
X865248Y958685D01*
X881500Y1003800D02*
Y1008500D01*
X1009205Y835207D02*
X1016044D01*
X854000Y946000D02*
Y947437D01*
X875248Y997548D02*
X881500Y1003800D01*
X1016044Y835207D02*
X1153892Y697358D01*
X941500Y1003800D02*
Y1008500D01*
X875248Y963685D02*
Y997548D01*
X1028793Y885207D02*
X1102000Y812000D01*
X935248Y997548D02*
X941500Y1003800D01*
X859000Y947437D02*
X875248Y963685D01*
X1009205Y885207D02*
X1028793D01*
X935248Y993685D02*
Y997548D01*
X859000Y946000D02*
Y947437D01*
X894224Y640000D02*
X897580Y643355D01*
X889000Y947437D02*
X935248Y993685D01*
X921500Y1003800D02*
Y1008500D01*
X897580Y643355D02*
Y690580D01*
X889000Y946000D02*
Y947437D01*
X915248Y997548D02*
X921500Y1003800D01*
X897580Y690580D02*
X1007000Y800000D01*
X851500Y1003800D02*
Y1008500D01*
X915248Y983685D02*
Y997548D01*
X1007000Y800000D02*
X1013500D01*
X847752Y1000053D02*
X851500Y1003800D01*
X879000Y947437D02*
X915248Y983685D01*
X1014295Y890272D02*
X1051228D01*
X847752Y951189D02*
Y1000053D01*
X879000Y946000D02*
Y947437D01*
X1009205Y815207D02*
X1013371D01*
X844000Y947437D02*
X847752Y951189D01*
X1001500Y1003800D02*
Y1008500D01*
X1010929Y894876D02*
X1054624D01*
X844000Y946000D02*
Y947437D01*
X996863Y999164D02*
X1001500Y1003800D01*
X1054624Y894876D02*
X1068000Y881500D01*
X929000Y946000D02*
Y947437D01*
X996863Y998563D02*
Y999164D01*
X1051228Y890272D02*
X1068500Y873000D01*
X1016161Y1003161D02*
X1021500Y1008500D01*
X919000Y946000D02*
Y947437D01*
X1068500Y872000D02*
Y873000D01*
X1016161Y997861D02*
Y1003161D01*
X934000Y946000D02*
Y947437D01*
X1014000Y910000D02*
X1029000Y925000D01*
X934000Y947437D02*
X948829Y962266D01*
X1026500Y1003500D02*
X1031500Y1008500D01*
X1029000Y925000D02*
X1065000D01*
X957086Y968785D02*
X985248Y996947D01*
X869000Y946000D02*
Y947437D01*
X1060617Y909117D02*
Y912117D01*
X942525Y965526D02*
X973826D01*
X869000Y947437D02*
X896000Y974437D01*
X1056500Y905000D02*
X1060617Y909117D01*
X1010500Y905000D02*
X1056500D01*
X965456Y967155D02*
X996863Y998563D01*
X896000Y974437D02*
Y1003000D01*
X1060617Y912117D02*
X1064000Y915500D01*
X1017120Y902537D02*
X1061806D01*
X945459Y963896D02*
X982196D01*
X896000Y1003000D02*
X901500Y1008500D01*
X1064000Y915500D02*
X1065000D01*
X1013926Y900074D02*
X1014657D01*
X924957Y948394D02*
X925394D01*
X931500Y1003800D02*
Y1008500D01*
X1009205Y855207D02*
X1009498Y854914D01*
X1014657Y900074D02*
X1017120Y902537D01*
X924000Y946000D02*
Y947437D01*
X925248Y997548D02*
X931500Y1003800D01*
X1009498Y854914D02*
X1013205D01*
X1010931Y748931D02*
X1011349D01*
X928490Y971927D02*
X933880D01*
X925248Y988685D02*
Y997548D01*
X1014567Y853551D02*
X1014971D01*
X1011349Y748931D02*
X1012427Y750010D01*
X982196Y963896D02*
X1016161Y997861D01*
X884000Y947437D02*
X925248Y988685D01*
X1013205Y854914D02*
X1014567Y853551D01*
X1012427Y750010D02*
X1013510D01*
X919000Y947437D02*
X938719Y967155D01*
X884000Y946000D02*
Y947437D01*
X1143892Y717358D02*
X1163142D01*
X1008500Y690276D02*
Y738765D01*
X914000Y947437D02*
X935348Y968785D01*
X891500Y1003800D02*
Y1008500D01*
X1100850Y771994D02*
X1158506D01*
X958224Y640000D02*
X1008500Y690276D01*
X953915Y970415D02*
X977752Y994252D01*
X885248Y997548D02*
X891500Y1003800D01*
X1016044Y845207D02*
X1143892Y717358D01*
X1008500Y738765D02*
X1012524Y742789D01*
X935348Y968785D02*
X957086D01*
X885248Y968685D02*
Y997548D01*
X1009205Y845207D02*
X1016044D01*
X1005000Y751002D02*
X1009215Y755216D01*
X929000Y947437D02*
X945459Y963896D01*
X864000Y947437D02*
X885248Y968685D01*
X1013528Y849972D02*
X1136142Y727358D01*
X934224Y640000D02*
X1002000Y707776D01*
X940346Y972045D02*
X965248Y996947D01*
X864000Y946000D02*
Y947437D01*
X1013472Y849972D02*
X1013528D01*
X1002000Y753080D02*
X1008930Y760010D01*
X925120Y973557D02*
X931858D01*
X911500Y1003800D02*
Y1008500D01*
X1113181Y757358D02*
X1163142D01*
X1002000Y707776D02*
Y753080D01*
X899000Y947437D02*
X925120Y973557D01*
X905248Y997548D02*
X911500Y1003800D01*
X1128571Y737358D02*
X1158999D01*
X926224Y640000D02*
X1000000Y713776D01*
X934555Y970297D02*
X934673Y970415D01*
X905248Y978685D02*
Y997548D01*
X1136142Y727358D02*
X1158999D01*
X1000000Y713776D02*
Y756002D01*
X931858Y973557D02*
X956863Y998563D01*
X874000Y947437D02*
X905248Y978685D01*
X1120876Y747358D02*
X1158999D01*
X918224Y640000D02*
X995500Y717276D01*
X933880Y971927D02*
X933998Y972045D01*
X874000Y946000D02*
Y947437D01*
X1015646Y855181D02*
X1053414Y817414D01*
X1013500Y880000D02*
X1014500D01*
X938719Y967155D02*
X965456D01*
X821500Y1003800D02*
Y1008500D01*
X1051784Y814146D02*
Y816738D01*
X1014293Y875207D02*
X1058264Y831236D01*
X934673Y970415D02*
X953915D01*
X829000Y946000D02*
Y974113D01*
X1014971Y853551D02*
X1051784Y816738D01*
X1009205Y875207D02*
X1014293D01*
X925394Y948394D02*
X942525Y965526D01*
X951500Y1003800D02*
Y1008500D01*
X1053414Y814821D02*
Y817414D01*
X1014500Y880000D02*
X1097500Y797000D01*
X931860Y970297D02*
X934555D01*
X945248Y997548D02*
X951500Y1003800D01*
X1056673Y816171D02*
X1100850Y771994D01*
X1097500Y797000D02*
X1101500D01*
X924000Y947437D02*
X924957Y948394D01*
X945248Y996947D02*
Y997548D01*
X1051784Y814146D02*
X1128571Y737358D01*
X1101500Y797000D02*
X1102000Y796500D01*
X933998Y972045D02*
X940346D01*
X920971Y972671D02*
X945248Y996947D01*
X1053414Y814821D02*
X1120876Y747358D01*
X1158506Y771994D02*
X1169000Y761500D01*
X904000Y947437D02*
X928490Y971927D01*
X919234Y972671D02*
X920971D01*
X1055044Y815496D02*
X1113181Y757358D01*
X1163142D02*
X1169000Y751500D01*
X948829Y962266D02*
X991766D01*
X894000Y947437D02*
X919234Y972671D01*
X1055044Y815496D02*
Y818269D01*
X1026500Y997000D02*
Y1003500D01*
X1009205Y865207D02*
X1013371D01*
X894000Y946000D02*
Y947437D01*
X1055004Y818308D02*
Y823574D01*
X1158999Y747358D02*
X1164449Y741909D01*
X991766Y962266D02*
X1026500Y997000D01*
X985248Y1002248D02*
X991500Y1008500D01*
X1013500Y870000D02*
X1056634Y826866D01*
X1164449Y741909D02*
X1168591D01*
X953000Y960000D02*
X993000D01*
X985248Y996947D02*
Y1002248D01*
X1056634Y818983D02*
X1056673Y818944D01*
X1168591Y741909D02*
X1169000Y741500D01*
X1018500Y985500D02*
X1024800D01*
X914000Y946000D02*
Y947437D01*
X1058264Y819658D02*
Y831236D01*
X1013500Y860000D02*
X1014265Y859235D01*
X993000Y960000D02*
X1018500Y985500D01*
X961500Y1003800D02*
Y1008500D01*
X1056673Y816171D02*
Y818944D01*
X1014265Y856158D02*
Y859235D01*
X834000Y946000D02*
Y975000D01*
X956863Y999164D02*
X961500Y1003800D01*
X1056634Y818983D02*
Y826866D01*
X1015242Y855181D02*
X1015646D01*
X827752Y981248D02*
Y1000266D01*
X956863Y998563D02*
Y999164D01*
X1013371Y865207D02*
X1055004Y823574D01*
X1014265Y856158D02*
X1015242Y855181D01*
X826122Y976991D02*
X829000Y974113D01*
X899000Y946000D02*
Y947437D01*
X1055004Y818308D02*
X1055044Y818269D01*
D17*
X1137500Y636150D02*
D03*
X1123071D02*
D03*
X1108643D02*
D03*
X1094214D02*
D03*
X1079786D02*
D03*
X1065357D02*
D03*
X1050929D02*
D03*
X1036500D02*
D03*
D22*
X939000Y946000D02*
D03*
X934000D02*
D03*
X929000D02*
D03*
X924000D02*
D03*
X919000D02*
D03*
X914000D02*
D03*
X909000D02*
D03*
X904000D02*
D03*
X899000D02*
D03*
X894000D02*
D03*
X889000D02*
D03*
X884000D02*
D03*
X879000D02*
D03*
X874000D02*
D03*
X869000D02*
D03*
X864000D02*
D03*
X859000D02*
D03*
X854000D02*
D03*
X849000D02*
D03*
X844000D02*
D03*
X839000D02*
D03*
X834000D02*
D03*
X829000D02*
D03*
D50*
X1111000Y885992D02*
D03*
X1121000Y881484D02*
D03*
Y890500D02*
D03*
Y899516D02*
D03*
Y908532D02*
D03*
Y917547D02*
D03*
X1111000Y895008D02*
D03*
Y904024D02*
D03*
Y913039D02*
D03*
Y922055D02*
D03*
X1101000Y881484D02*
D03*
Y890500D02*
D03*
Y899516D02*
D03*
Y908532D02*
D03*
D51*
X1111000Y851307D02*
D03*
Y949693D02*
D03*
D52*
X1101000Y917547D02*
D03*
D53*
X1011480Y952358D02*
D03*
X771520D02*
D03*
Y712358D02*
D03*
X1011480D02*
D03*
X1026500Y952500D02*
D03*
Y712539D02*
D03*
D54*
X1159000Y641500D02*
D03*
Y661500D02*
D03*
Y671500D02*
D03*
Y681500D02*
D03*
Y691500D02*
D03*
Y701500D02*
D03*
Y711500D02*
D03*
Y721500D02*
D03*
Y731500D02*
D03*
Y741500D02*
D03*
Y751500D02*
D03*
Y761500D02*
D03*
X1169000Y641500D02*
D03*
Y661500D02*
D03*
Y671500D02*
D03*
Y681500D02*
D03*
Y701500D02*
D03*
Y711500D02*
D03*
Y721500D02*
D03*
Y731500D02*
D03*
Y741500D02*
D03*
Y751500D02*
D03*
Y761500D02*
D03*
Y691500D02*
D03*
Y631500D02*
D03*
Y651500D02*
D03*
X1159000D02*
D03*
D55*
Y631500D02*
D03*
D56*
X1061500Y998500D02*
D03*
Y1008500D02*
D03*
X1051500Y998500D02*
D03*
Y1008500D02*
D03*
X1041500Y998500D02*
D03*
Y1008500D02*
D03*
X1031500Y998500D02*
D03*
Y1008500D02*
D03*
X1021500Y998500D02*
D03*
Y1008500D02*
D03*
X1011500Y998500D02*
D03*
Y1008500D02*
D03*
X1001500Y998500D02*
D03*
Y1008500D02*
D03*
X991500Y998500D02*
D03*
Y1008500D02*
D03*
X981500Y998500D02*
D03*
Y1008500D02*
D03*
X971500Y998500D02*
D03*
Y1008500D02*
D03*
X961500Y998500D02*
D03*
Y1008500D02*
D03*
X951500Y998500D02*
D03*
Y1008500D02*
D03*
X941500Y998500D02*
D03*
Y1008500D02*
D03*
X931500Y998500D02*
D03*
Y1008500D02*
D03*
X921500Y998500D02*
D03*
Y1008500D02*
D03*
X911500Y998500D02*
D03*
Y1008500D02*
D03*
X901500Y998500D02*
D03*
Y1008500D02*
D03*
X891500Y998500D02*
D03*
Y1008500D02*
D03*
X881500Y998500D02*
D03*
Y1008500D02*
D03*
X871500Y998500D02*
D03*
Y1008500D02*
D03*
X861500Y998500D02*
D03*
Y1008500D02*
D03*
X851500Y998500D02*
D03*
Y1008500D02*
D03*
X841500Y998500D02*
D03*
Y1008500D02*
D03*
X831500Y998500D02*
D03*
Y1008500D02*
D03*
X821500Y998500D02*
D03*
Y1008500D02*
D03*
X811500Y998500D02*
D03*
Y1008500D02*
D03*
X801500Y998500D02*
D03*
Y1008500D02*
D03*
X791500Y998500D02*
D03*
Y1008500D02*
D03*
X781500Y998500D02*
D03*
Y1008500D02*
D03*
X771500Y998500D02*
D03*
Y1008500D02*
D03*
D57*
X810500Y616000D02*
D03*
X786000D02*
D03*
X959500Y615500D02*
D03*
X885000D02*
D03*
X859109Y618228D02*
D03*
X835500Y614587D02*
D03*
X910000Y615500D02*
D03*
X935500D02*
D03*
X985000D02*
D03*
X1009500Y616000D02*
D03*
X1150000Y615000D02*
D03*
X1065000Y925000D02*
D03*
X950224Y640000D02*
D03*
X1065000Y915500D02*
D03*
X1012524Y742789D02*
D03*
X1013472Y849972D02*
D03*
X1013500Y880000D02*
D03*
X1099420Y784944D02*
D03*
X1009205Y875207D02*
D03*
X1010407Y764024D02*
D03*
X1102000Y796500D02*
D03*
X1013826Y759601D02*
D03*
X1055500Y615500D02*
D03*
X1009205Y845207D02*
D03*
X804000Y935000D02*
D03*
X1117961Y614461D02*
D03*
X1009205Y795207D02*
D03*
X1010500Y905000D02*
D03*
X1097000Y804000D02*
D03*
X885724Y644159D02*
D03*
X1014000Y910000D02*
D03*
X1101000Y827000D02*
D03*
X1009205Y835207D02*
D03*
X1087232Y615959D02*
D03*
X1009205Y805207D02*
D03*
X767500Y699000D02*
D03*
X1102000Y812000D02*
D03*
X1013500Y830000D02*
D03*
X766500Y725500D02*
D03*
X1009205Y885207D02*
D03*
X1013500Y860000D02*
D03*
X775500Y699000D02*
D03*
X1013500Y810000D02*
D03*
X1009205Y855207D02*
D03*
X774000Y725500D02*
D03*
X1010929Y894876D02*
D03*
X1009205Y825207D02*
D03*
X767000Y938500D02*
D03*
Y965500D02*
D03*
X894224Y640000D02*
D03*
X1013500Y840000D02*
D03*
X774000Y939217D02*
D03*
X1013500Y800000D02*
D03*
Y820000D02*
D03*
X774000Y965500D02*
D03*
X1014295Y890272D02*
D03*
X1009205Y815207D02*
D03*
X780500Y965500D02*
D03*
X1043500Y756500D02*
D03*
X1009205Y865207D02*
D03*
X781000Y938500D02*
D03*
X1041000Y781500D02*
D03*
X1013500Y870000D02*
D03*
X799000Y939217D02*
D03*
X1013837Y769683D02*
D03*
X1009215Y755216D02*
D03*
X799000Y965283D02*
D03*
X1009215Y775216D02*
D03*
X1013926Y900074D02*
D03*
X1001224Y548000D02*
D03*
X1043000Y774000D02*
D03*
X926224Y640000D02*
D03*
X969000Y699000D02*
D03*
X1042591Y747500D02*
D03*
X902224Y640000D02*
D03*
X969039Y724961D02*
D03*
X1043500Y766000D02*
D03*
X934224Y640000D02*
D03*
X1065000Y905000D02*
D03*
X1049000Y770000D02*
D03*
X918224Y640000D02*
D03*
X1048000Y761000D02*
D03*
X910224Y640000D02*
D03*
X1048500Y752000D02*
D03*
X942224Y640000D02*
D03*
X1068000Y881500D02*
D03*
X958224Y640000D02*
D03*
X1068500Y872000D02*
D03*
X1013510Y750010D02*
D03*
M02*
