M48
;Layer_Color=9474304
;FILE_FORMAT=2:5
INCH
;TYPE=PLATED
T01F00S00C0.02800
T02F00S00C0.03189
T03F00S00C0.04016
T04F00S00C0.04331
T05F00S00C0.12598
%
T01
X1117961Y0614461
X1150000Y0615000
X1087232Y0615959
X1055500Y0615500
X1009500Y0616000
X0985000Y0615500
X0959500
X1001224Y0548000
X0935500Y0615500
X0910000
X0885000
X0859109Y0618228
X0835500Y0614587
X0810500Y0616000
X0786000
X0775500Y0699000
X0767500
X0766500Y0725500
X0774000
X0885724Y0644159
X0894224Y0640000
X0902224
X0910224
X0918224
X0926224
X0934224
X0942224
X0950224
X0958224
X0969000Y0699000
X0969039Y0724961
X1012524Y0742789
X1013510Y0750010
X1009215Y0755216
X1013826Y0759601
X1010407Y0764024
X1013837Y0769683
X1009215Y0775216
X1043000Y0774000
X1043500Y0766000
Y0756500
X1048000Y0761000
X1048500Y0752000
X1042591Y0747500
X1049000Y0770000
X1099420Y0784944
X1102000Y0796500
X1097000Y0804000
X1102000Y0812000
X1101000Y0827000
X1068500Y0872000
X1068000Y0881500
X1065000Y0905000
Y0915500
Y0925000
X1014000Y0910000
X1010500Y0905000
X1013926Y0900074
X1010929Y0894876
X1014295Y0890272
X1009205Y0885207
X1013500Y0880000
X1009205Y0875207
X1013500Y0870000
X1009205Y0865207
X1013500Y0860000
X1009205Y0855207
X1013472Y0849972
X1009205Y0845207
X1013500Y0840000
X1009205Y0835207
X1013500Y0830000
X1009205Y0825207
X1013500Y0820000
X1009205Y0815207
X1013500Y0810000
X1009205Y0805207
X1013500Y0800000
X1009205Y0795207
X1041000Y0781500
X0804000Y0935000
X0781000Y0938500
X0774000Y0939217
X0767000Y0938500
Y0965500
X0774000
X0780500
X0799000Y0965283
Y0939217
T02
X0771500Y0998500
Y1008500
X0781500
X0791500
X0801500
X0811500
X0821500
X0831500
X0841500
X0851500
X0861500
X0871500
X0881500
X0891500
X0901500
X0911500
X0921500
X0931500
Y0998500
X0921500
X0911500
X0901500
X0891500
X0881500
X0871500
X0861500
X0851500
X0841500
X0831500
X0821500
X0811500
X0801500
X0791500
X0781500
X0941500
X0951500
X0961500
X0971500
X0981500
X0991500
X1001500
X1011500
X1021500
X1031500
X1041500
X1051500
X1061500
Y1008500
X1051500
X1041500
X1031500
X1021500
X1011500
X1001500
X0991500
X0981500
X0971500
X0961500
X0951500
X0941500
T03
X1159000Y0631500
Y0641500
X1169000
Y0631500
Y0651500
Y0661500
X1159000
Y0671500
Y0681500
Y0691500
Y0701500
Y0711500
Y0721500
Y0731500
Y0741500
Y0751500
Y0761500
X1169000
Y0751500
Y0741500
Y0731500
Y0721500
Y0711500
Y0701500
Y0691500
Y0681500
Y0671500
X1159000Y0651500
T04
X1101000Y0881484
Y0890500
Y0899516
Y0908532
Y0917547
X1111000Y0922055
Y0913039
Y0904024
Y0895008
Y0885992
X1121000Y0881484
Y0890500
Y0899516
Y0908532
Y0917547
T05
X1111000Y0851307
Y0949693
M30
