M48
;Layer_Color=9474304
;FILE_FORMAT=4:4
METRIC,LZ
;TYPE=PLATED
T01F00S00C0.7112
T02F00S00C0.8100
T03F00S00C1.0200
T04F00S00C1.1000
T05F00S00C3.2000
;TYPE=NON_PLATED
T06F00S00C0.7400
%
T01
X0031242Y0023749
X0037592Y0023876
X0043815Y0023749
X0050165
X0056515
X0062865
X0069215
X0075438
X0075114Y0030607
X0073082
X007105
X0069018
X0066986
X0064954
X0062922
X006089
X0058858
X0056699Y00316635
X0081788Y0023749
X0088138
X0099822Y0024384
X01078819Y00245005
X01156871Y00241201
X0086036Y0007239
X0123952Y0024384
X01109778Y00674227
X0111633Y0070358
X0110363Y0072263
X0111633Y0074295
X0111379Y0078105
X0089154Y0078867
X0088063Y00776495
X0089154Y0076327
X0088063Y00751095
X0089154Y0073787
X0088063Y00725695
X0089154Y0071247
X0088063Y00700295
X00880655Y0064952
X00892395Y00635465
X00883684Y00621091
X00892368Y00609856
X00880655Y0059872
X00891565Y00585495
X0088906Y00567154
X0096543Y0057912
X0096774Y0060198
X0097917Y0061341
X0098044Y0059055
X0098171Y0063627
X0096774Y0062611
X0096647Y0064643
X0096139Y0066548
X00778609Y00521871
X0077851Y0045593
X0028702
X002667
X0026416Y0052324
X0028321
Y0106608
X0030099Y0106426
X0026543
Y0113284
X0028321
X0029972
X0034671Y0113229
Y0106608
X0035941Y0105537
X0089281Y0099187
X0088392Y0097917
X00892622Y00966658
X00885009Y00953456
X0089356Y0094176
X0088063Y00928895
X0089154Y0091567
X0088063Y00903495
X0089154Y0089027
X0088063Y00878095
X0089154Y0086487
X0088063Y00852695
X00891469Y00839399
X0088063Y00827295
X0089154Y0081407
X0088063Y00801895
X0103124Y0089535
X0102997Y0091948
X0102235Y0097917
Y0100584
Y0102997
T02
X0081026Y0121666
Y0124206
X0083566
Y0121666
X0086106
Y0124206
X0088646
Y0121666
X0091186
Y0124206
X0093726
Y0121666
X0096266
Y0124206
X0098806
Y0121666
X0101346
Y0124206
X0078486
X0075946
X0073406
X0070866
X0068326
X0065786
X0063246
X0060706
X0058166
X0055626
X0053086
X0050546
X0048006
X0045466
X0042926
X0040386
Y0121666
X0042926
X0045466
X0048006
X0050546
X0053086
X0055626
X0058166
X0060706
X0063246
X0065786
X0068326
X0070866
X0073406
X0075946
X0078486
X0037846
X0035306
X0032766
X0030226
X0027686
Y0124206
X0030226
X0032766
X0035306
X0037846
T03
X0126111Y0028448
X0128651
Y0030988
Y0033528
X0126111
Y0036068
X0128651
Y0038608
X0126111
Y0030988
Y0041148
X0128651
Y0043688
Y0046228
Y0048768
Y0051308
Y0053848
Y0056388
Y0058928
Y0061468
X0126111
Y0058928
Y0056388
Y0053848
Y0051308
Y0048768
Y0046228
Y0043688
T04
X0111379Y0091944
Y0094234
Y0096524
Y0098814
Y0101104
X0113919Y0102249
Y0099959
Y0097669
Y0095379
Y0093089
X0116459Y0094234
Y0091944
Y0096524
Y0098814
Y0101104
T05
X0113919Y0084279
Y0109269
T06
X0088641Y0048986
X0092456Y0049032
X0027691Y0048986
Y0109946
X0088641
X0092456Y0109982
M30
