G04*
G04 #@! TF.GenerationSoftware,Altium Limited,Altium Designer,26.3.0 (6)*
G04*
G04 Layer_Color=65535*
%FSLAX25Y25*%
%MOIN*%
G70*
G04*
G04 #@! TF.SameCoordinates,3252148B-6E92-4FCE-BCB3-50AFE4F8E010*
G04*
G04*
G04 #@! TF.FilePolarity,Positive*
G04*
G01*
G75*
%ADD10C,0.01000*%
%ADD11C,0.00984*%
%ADD12C,0.00394*%
%ADD13C,0.00787*%
%ADD14C,0.00591*%
D10*
X1153500Y575838D02*
G03*
X1153500Y575838I-3000J0D01*
G01*
X1121333D02*
G03*
X1121333Y575838I-3000J0D01*
G01*
X1089167D02*
G03*
X1089167Y575838I-3000J0D01*
G01*
X1057000D02*
G03*
X1057000Y575838I-3000J0D01*
G01*
X1144594Y567964D02*
X1146047D01*
X1154953Y583712D02*
X1156406D01*
Y567964D02*
Y583712D01*
X1154953Y567964D02*
X1156406D01*
X1144594D02*
Y583712D01*
X1146047D01*
X1112428Y567964D02*
X1113880D01*
X1122787Y583712D02*
X1124239D01*
Y567964D02*
Y583712D01*
X1122787Y567964D02*
X1124239D01*
X1112428D02*
Y583712D01*
X1113880D01*
X1080261Y567964D02*
X1081713D01*
X1090620Y583712D02*
X1092072D01*
Y567964D02*
Y583712D01*
X1090620Y567964D02*
X1092072D01*
X1080261D02*
Y583712D01*
X1081713D01*
X1048094Y567964D02*
X1049547D01*
X1058453Y583712D02*
X1059906D01*
Y567964D02*
Y583712D01*
X1058453Y567964D02*
X1059906D01*
X1048094D02*
Y583712D01*
X1049547D01*
X1144002Y561499D02*
X1143002Y562499D01*
X1141003D01*
X1140003Y561499D01*
Y560500D01*
X1141003Y559500D01*
X1143002D01*
X1144002Y558500D01*
Y557501D01*
X1143002Y556501D01*
X1141003D01*
X1140003Y557501D01*
X1146002Y562499D02*
Y556501D01*
X1148001Y558500D01*
X1150000Y556501D01*
Y562499D01*
X1151999Y556501D02*
X1153999D01*
X1152999D01*
Y562499D01*
X1151999Y561499D01*
X1156998D02*
X1157998Y562499D01*
X1159997D01*
X1160997Y561499D01*
Y560500D01*
X1159997Y559500D01*
X1158997D01*
X1159997D01*
X1160997Y558500D01*
Y557501D01*
X1159997Y556501D01*
X1157998D01*
X1156998Y557501D01*
X1111169Y561499D02*
X1110169Y562499D01*
X1108170D01*
X1107170Y561499D01*
Y560500D01*
X1108170Y559500D01*
X1110169D01*
X1111169Y558500D01*
Y557501D01*
X1110169Y556501D01*
X1108170D01*
X1107170Y557501D01*
X1113168Y562499D02*
Y556501D01*
X1115168Y558500D01*
X1117167Y556501D01*
Y562499D01*
X1119166Y556501D02*
X1121166D01*
X1120166D01*
Y562499D01*
X1119166Y561499D01*
X1128164Y556501D02*
X1124165D01*
X1128164Y560500D01*
Y561499D01*
X1127164Y562499D01*
X1125165D01*
X1124165Y561499D01*
X1080335D02*
X1079335Y562499D01*
X1077336D01*
X1076336Y561499D01*
Y560500D01*
X1077336Y559500D01*
X1079335D01*
X1080335Y558500D01*
Y557501D01*
X1079335Y556501D01*
X1077336D01*
X1076336Y557501D01*
X1082335Y562499D02*
Y556501D01*
X1084334Y558500D01*
X1086333Y556501D01*
Y562499D01*
X1088333Y556501D02*
X1090332D01*
X1089332D01*
Y562499D01*
X1088333Y561499D01*
X1093331Y556501D02*
X1095330D01*
X1094331D01*
Y562499D01*
X1093331Y561499D01*
X1047502D02*
X1046502Y562499D01*
X1044503D01*
X1043503Y561499D01*
Y560500D01*
X1044503Y559500D01*
X1046502D01*
X1047502Y558500D01*
Y557501D01*
X1046502Y556501D01*
X1044503D01*
X1043503Y557501D01*
X1049502Y562499D02*
Y556501D01*
X1051501Y558500D01*
X1053500Y556501D01*
Y562499D01*
X1055499Y556501D02*
X1057499D01*
X1056499D01*
Y562499D01*
X1055499Y561499D01*
X1060498D02*
X1061498Y562499D01*
X1063497D01*
X1064497Y561499D01*
Y557501D01*
X1063497Y556501D01*
X1061498D01*
X1060498Y557501D01*
Y561499D01*
X767501Y984000D02*
Y982001D01*
Y983001D01*
X772499D01*
X773499Y982001D01*
Y981001D01*
X772499Y980002D01*
X767501Y986000D02*
Y989998D01*
X768501D01*
X772499Y986000D01*
X773499D01*
X1146500Y768999D02*
X1144501D01*
X1145501D01*
Y764001D01*
X1144501Y763001D01*
X1143501D01*
X1142502Y764001D01*
X1152498Y768999D02*
X1148500D01*
Y766000D01*
X1150499Y767000D01*
X1151499D01*
X1152498Y766000D01*
Y764001D01*
X1151499Y763001D01*
X1149499D01*
X1148500Y764001D01*
X771379Y556950D02*
X770379Y557950D01*
X768380D01*
X767380Y556950D01*
Y555951D01*
X768380Y554951D01*
X770379D01*
X771379Y553951D01*
Y552952D01*
X770379Y551952D01*
X768380D01*
X767380Y552952D01*
X773379Y557950D02*
Y551952D01*
X775378Y553951D01*
X777377Y551952D01*
Y557950D01*
X779377Y552952D02*
X780376Y551952D01*
X782376D01*
X783375Y552952D01*
Y556950D01*
X782376Y557950D01*
X780376D01*
X779377Y556950D01*
Y555951D01*
X780376Y554951D01*
X783375D01*
X798878Y556950D02*
X797879Y557950D01*
X795879D01*
X794880Y556950D01*
Y555951D01*
X795879Y554951D01*
X797879D01*
X798878Y553951D01*
Y552952D01*
X797879Y551952D01*
X795879D01*
X794880Y552952D01*
X800878Y557950D02*
Y551952D01*
X802877Y553951D01*
X804876Y551952D01*
Y557950D01*
X806876Y556950D02*
X807875Y557950D01*
X809875D01*
X810874Y556950D01*
Y555951D01*
X809875Y554951D01*
X810874Y553951D01*
Y552952D01*
X809875Y551952D01*
X807875D01*
X806876Y552952D01*
Y553951D01*
X807875Y554951D01*
X806876Y555951D01*
Y556950D01*
X807875Y554951D02*
X809875D01*
X823878Y556950D02*
X822879Y557950D01*
X820879D01*
X819880Y556950D01*
Y555951D01*
X820879Y554951D01*
X822879D01*
X823878Y553951D01*
Y552952D01*
X822879Y551952D01*
X820879D01*
X819880Y552952D01*
X825878Y557950D02*
Y551952D01*
X827877Y553951D01*
X829876Y551952D01*
Y557950D01*
X831876D02*
X835874D01*
Y556950D01*
X831876Y552952D01*
Y551952D01*
X848878Y556950D02*
X847879Y557950D01*
X845879D01*
X844880Y556950D01*
Y555951D01*
X845879Y554951D01*
X847879D01*
X848878Y553951D01*
Y552952D01*
X847879Y551952D01*
X845879D01*
X844880Y552952D01*
X850878Y557950D02*
Y551952D01*
X852877Y553951D01*
X854876Y551952D01*
Y557950D01*
X860874D02*
X858875Y556950D01*
X856876Y554951D01*
Y552952D01*
X857875Y551952D01*
X859875D01*
X860874Y552952D01*
Y553951D01*
X859875Y554951D01*
X856876D01*
X873378Y556950D02*
X872379Y557950D01*
X870379D01*
X869380Y556950D01*
Y555951D01*
X870379Y554951D01*
X872379D01*
X873378Y553951D01*
Y552952D01*
X872379Y551952D01*
X870379D01*
X869380Y552952D01*
X875378Y557950D02*
Y551952D01*
X877377Y553951D01*
X879376Y551952D01*
Y557950D01*
X885374D02*
X881376D01*
Y554951D01*
X883375Y555951D01*
X884375D01*
X885374Y554951D01*
Y552952D01*
X884375Y551952D01*
X882375D01*
X881376Y552952D01*
X898226Y556999D02*
X897226Y557999D01*
X895227D01*
X894227Y556999D01*
Y556000D01*
X895227Y555000D01*
X897226D01*
X898226Y554000D01*
Y553001D01*
X897226Y552001D01*
X895227D01*
X894227Y553001D01*
X900225Y557999D02*
Y552001D01*
X902224Y554000D01*
X904224Y552001D01*
Y557999D01*
X909222Y552001D02*
Y557999D01*
X906223Y555000D01*
X910222D01*
X923378Y556950D02*
X922379Y557950D01*
X920379D01*
X919380Y556950D01*
Y555951D01*
X920379Y554951D01*
X922379D01*
X923378Y553951D01*
Y552952D01*
X922379Y551952D01*
X920379D01*
X919380Y552952D01*
X925378Y557950D02*
Y551952D01*
X927377Y553951D01*
X929376Y551952D01*
Y557950D01*
X931376Y556950D02*
X932375Y557950D01*
X934375D01*
X935374Y556950D01*
Y555951D01*
X934375Y554951D01*
X933375D01*
X934375D01*
X935374Y553951D01*
Y552952D01*
X934375Y551952D01*
X932375D01*
X931376Y552952D01*
X948378Y556950D02*
X947379Y557950D01*
X945379D01*
X944380Y556950D01*
Y555951D01*
X945379Y554951D01*
X947379D01*
X948378Y553951D01*
Y552952D01*
X947379Y551952D01*
X945379D01*
X944380Y552952D01*
X950378Y557950D02*
Y551952D01*
X952377Y553951D01*
X954376Y551952D01*
Y557950D01*
X960374Y551952D02*
X956376D01*
X960374Y555951D01*
Y556950D01*
X959375Y557950D01*
X957375D01*
X956376Y556950D01*
X973878D02*
X972878Y557950D01*
X970879D01*
X969879Y556950D01*
Y555951D01*
X970879Y554951D01*
X972878D01*
X973878Y553951D01*
Y552952D01*
X972878Y551952D01*
X970879D01*
X969879Y552952D01*
X975877Y557950D02*
Y551952D01*
X977877Y553951D01*
X979876Y551952D01*
Y557950D01*
X981875Y551952D02*
X983875D01*
X982875D01*
Y557950D01*
X981875Y556950D01*
X998878D02*
X997878Y557950D01*
X995879D01*
X994879Y556950D01*
Y555951D01*
X995879Y554951D01*
X997878D01*
X998878Y553951D01*
Y552952D01*
X997878Y551952D01*
X995879D01*
X994879Y552952D01*
X1000877Y557950D02*
Y551952D01*
X1002877Y553951D01*
X1004876Y551952D01*
Y557950D01*
X1006875Y556950D02*
X1007875Y557950D01*
X1009874D01*
X1010874Y556950D01*
Y552952D01*
X1009874Y551952D01*
X1007875D01*
X1006875Y552952D01*
Y556950D01*
X1103501Y774000D02*
Y772001D01*
Y773001D01*
X1108499D01*
X1109499Y772001D01*
Y771001D01*
X1108499Y770002D01*
X1103501Y779998D02*
X1104501Y777999D01*
X1106500Y776000D01*
X1108499D01*
X1109499Y776999D01*
Y778999D01*
X1108499Y779998D01*
X1107500D01*
X1106500Y778999D01*
Y776000D01*
X1095000Y970015D02*
X1093001D01*
X1094001D01*
Y965016D01*
X1093001Y964017D01*
X1092001D01*
X1091002Y965016D01*
X1099999Y964017D02*
Y970015D01*
X1097000Y967016D01*
X1100998D01*
X779501Y728000D02*
Y726001D01*
Y727001D01*
X784499D01*
X785499Y726001D01*
Y725001D01*
X784499Y724002D01*
X780501Y730000D02*
X779501Y730999D01*
Y732999D01*
X780501Y733998D01*
X781500D01*
X782500Y732999D01*
Y731999D01*
Y732999D01*
X783500Y733998D01*
X784499D01*
X785499Y732999D01*
Y730999D01*
X784499Y730000D01*
X1025500Y966999D02*
X1023501D01*
X1024501D01*
Y962001D01*
X1023501Y961001D01*
X1022501D01*
X1021502Y962001D01*
X1031498Y961001D02*
X1027500D01*
X1031498Y965000D01*
Y965999D01*
X1030499Y966999D01*
X1028499D01*
X1027500Y965999D01*
X767501Y973500D02*
Y971501D01*
Y972500D01*
X772499D01*
X773499Y971501D01*
Y970501D01*
X772499Y969501D01*
X773499Y975499D02*
Y977499D01*
Y976499D01*
X767501D01*
X768501Y975499D01*
D11*
X867980Y589244D02*
G03*
X867980Y589244I-492J0D01*
G01*
X892980D02*
G03*
X892980Y589244I-492J0D01*
G01*
X917980D02*
G03*
X917980Y589244I-492J0D01*
G01*
X942980D02*
G03*
X942980Y589244I-492J0D01*
G01*
X967480D02*
G03*
X967480Y589244I-492J0D01*
G01*
X768480D02*
G03*
X768480Y589244I-492J0D01*
G01*
X992480D02*
G03*
X992480Y589244I-492J0D01*
G01*
X793480D02*
G03*
X793480Y589244I-492J0D01*
G01*
X818480D02*
G03*
X818480Y589244I-492J0D01*
G01*
X843480D02*
G03*
X843480Y589244I-492J0D01*
G01*
D12*
X1089583Y917547D02*
G03*
X1089189Y917547I-197J0D01*
G01*
D02*
G03*
X1089583Y917547I197J0D01*
G01*
X1017346Y946354D02*
Y958362D01*
X765654Y946354D02*
Y958362D01*
X1112925Y824154D02*
Y829764D01*
X1167354D01*
X1176504Y779862D02*
Y824154D01*
X1112925Y775236D02*
X1125028D01*
X1134870D02*
X1150622D01*
X1158496D02*
X1163417D01*
X765654Y706354D02*
Y718362D01*
X1017346Y706354D02*
Y718362D01*
X1020496Y958366D02*
X1032504D01*
X1020496Y706673D02*
X1032504D01*
X1066500Y992496D02*
Y1014504D01*
X766500D02*
X1066500D01*
X766500Y992496D02*
Y1014504D01*
Y992496D02*
X1066500D01*
D13*
X769079Y962654D02*
G03*
X769079Y962654I-197J0D01*
G01*
X1108496Y813524D02*
G03*
X1108890Y813524I197J0D01*
G01*
D02*
G03*
X1108496Y813524I-197J0D01*
G01*
D02*
G03*
X1108890Y813524I197J0D01*
G01*
X769079Y722653D02*
G03*
X769079Y722653I-197J0D01*
G01*
X1036992Y955138D02*
G03*
X1036992Y955138I-197J0D01*
G01*
X771500Y1016374D02*
G03*
X771500Y1016374I-197J0D01*
G01*
X884811Y592787D02*
Y597217D01*
Y582945D02*
Y585898D01*
Y573102D02*
Y576055D01*
Y561784D02*
Y566213D01*
X870638Y561784D02*
X884811D01*
X870638Y592787D02*
Y597217D01*
Y582945D02*
Y585898D01*
Y573102D02*
Y576055D01*
Y561784D02*
Y566213D01*
Y597217D02*
X884811D01*
X1105395Y629850D02*
Y639299D01*
X1111891D01*
Y629850D02*
Y639299D01*
X909811Y592787D02*
Y597217D01*
Y582945D02*
Y585898D01*
Y573102D02*
Y576055D01*
Y561784D02*
Y566213D01*
X895638Y561784D02*
X909811D01*
X895638Y592787D02*
Y597217D01*
Y582945D02*
Y585898D01*
Y573102D02*
Y576055D01*
Y561784D02*
Y566213D01*
Y597217D02*
X909811D01*
X1119823Y629850D02*
Y639299D01*
X1126319D01*
Y629850D02*
Y639299D01*
X1047680Y629850D02*
Y639299D01*
X1054177D01*
Y629850D02*
Y639299D01*
X1156000Y959181D02*
X1178835D01*
Y943827D02*
Y959181D01*
X1156000Y943827D02*
X1178835D01*
X1156000Y857173D02*
X1178835D01*
Y841819D02*
Y857173D01*
X1156000Y841819D02*
X1178835D01*
X1156000Y932508D02*
X1178835D01*
Y868492D02*
Y932508D01*
X1156000Y868492D02*
X1178835D01*
X1091354Y839850D02*
X1156000D01*
Y961150D01*
X1091354D02*
X1156000D01*
X1091354Y839850D02*
Y961150D01*
X934811Y592787D02*
Y597217D01*
Y582945D02*
Y585898D01*
Y573102D02*
Y576055D01*
Y561784D02*
Y566213D01*
X920638Y561784D02*
X934811D01*
X920638Y592787D02*
Y597217D01*
Y582945D02*
Y585898D01*
Y573102D02*
Y576055D01*
Y561784D02*
Y566213D01*
Y597217D02*
X934811D01*
X1062109Y629850D02*
Y639299D01*
X1068605D01*
Y629850D02*
Y639299D01*
X959811Y592787D02*
Y597217D01*
Y582945D02*
Y585898D01*
Y573102D02*
Y576055D01*
Y561784D02*
Y566213D01*
X945638Y561784D02*
X959811D01*
X945638Y592787D02*
Y597217D01*
Y582945D02*
Y585898D01*
Y573102D02*
Y576055D01*
Y561784D02*
Y566213D01*
Y597217D02*
X959811D01*
X1154256Y625004D02*
Y767996D01*
X1173744Y625004D02*
Y767996D01*
X1154256Y625004D02*
X1173744D01*
X1154256Y767996D02*
X1173744D01*
X984311Y592787D02*
Y597217D01*
Y582945D02*
Y585898D01*
Y573102D02*
Y576055D01*
Y561784D02*
Y566213D01*
X970138Y561784D02*
X984311D01*
X970138Y592787D02*
Y597217D01*
Y582945D02*
Y585898D01*
Y573102D02*
Y576055D01*
Y561784D02*
Y566213D01*
Y597217D02*
X984311D01*
X785311Y592787D02*
Y597217D01*
Y582945D02*
Y585898D01*
Y573102D02*
Y576055D01*
Y561784D02*
Y566213D01*
X771138Y561784D02*
X785311D01*
X771138Y592787D02*
Y597217D01*
Y582945D02*
Y585898D01*
Y573102D02*
Y576055D01*
Y561784D02*
Y566213D01*
Y597217D02*
X785311D01*
X1090966Y629850D02*
Y639299D01*
X1097462D01*
Y629850D02*
Y639299D01*
X1009311Y592787D02*
Y597217D01*
Y582945D02*
Y585898D01*
Y573102D02*
Y576055D01*
Y561784D02*
Y566213D01*
X995138Y561784D02*
X1009311D01*
X995138Y592787D02*
Y597217D01*
Y582945D02*
Y585898D01*
Y573102D02*
Y576055D01*
Y561784D02*
Y566213D01*
Y597217D02*
X1009311D01*
X810311Y592787D02*
Y597217D01*
Y582945D02*
Y585898D01*
Y573102D02*
Y576055D01*
Y561784D02*
Y566213D01*
X796138Y561784D02*
X810311D01*
X796138Y592787D02*
Y597217D01*
Y582945D02*
Y585898D01*
Y573102D02*
Y576055D01*
Y561784D02*
Y566213D01*
Y597217D02*
X810311D01*
X1134252Y629850D02*
Y639299D01*
X1140748D01*
Y629850D02*
Y639299D01*
X835311Y592787D02*
Y597217D01*
Y582945D02*
Y585898D01*
Y573102D02*
Y576055D01*
Y561784D02*
Y566213D01*
X821138Y561784D02*
X835311D01*
X821138Y592787D02*
Y597217D01*
Y582945D02*
Y585898D01*
Y573102D02*
Y576055D01*
Y561784D02*
Y566213D01*
Y597217D02*
X835311D01*
X1033252Y629850D02*
Y639299D01*
X1039748D01*
Y629850D02*
Y639299D01*
X860311Y592787D02*
Y597217D01*
Y582945D02*
Y585898D01*
Y573102D02*
Y576055D01*
Y561784D02*
Y566213D01*
X846138Y561784D02*
X860311D01*
X846138Y592787D02*
Y597217D01*
Y582945D02*
Y585898D01*
Y573102D02*
Y576055D01*
Y561784D02*
Y566213D01*
Y597217D02*
X860311D01*
X1076538Y629850D02*
Y639299D01*
X1083034D01*
Y629850D02*
Y639299D01*
D14*
X1033146Y642735D02*
Y640767D01*
X1034458D01*
X1036426Y642735D02*
X1035114D01*
Y640767D01*
X1036426D01*
X1035114Y641751D02*
X1035770D01*
X1037082Y642735D02*
Y640767D01*
X1038066D01*
X1038393Y641095D01*
Y642407D01*
X1038066Y642735D01*
X1037082D01*
X1039049D02*
X1040361D01*
Y642407D01*
X1039049Y641095D01*
Y640767D01*
X1047574Y642735D02*
Y640767D01*
X1048886D01*
X1050854Y642735D02*
X1049542D01*
Y640767D01*
X1050854D01*
X1049542Y641751D02*
X1050198D01*
X1051510Y642735D02*
Y640767D01*
X1052494D01*
X1052822Y641095D01*
Y642407D01*
X1052494Y642735D01*
X1051510D01*
X1054790D02*
X1054134Y642407D01*
X1053478Y641751D01*
Y641095D01*
X1053806Y640767D01*
X1054462D01*
X1054790Y641095D01*
Y641423D01*
X1054462Y641751D01*
X1053478D01*
X1062003Y642735D02*
Y640767D01*
X1063315D01*
X1065283Y642735D02*
X1063971D01*
Y640767D01*
X1065283D01*
X1063971Y641751D02*
X1064627D01*
X1065939Y642735D02*
Y640767D01*
X1066923D01*
X1067251Y641095D01*
Y642407D01*
X1066923Y642735D01*
X1065939D01*
X1069218D02*
X1067906D01*
Y641751D01*
X1068563Y642079D01*
X1068890D01*
X1069218Y641751D01*
Y641095D01*
X1068890Y640767D01*
X1068235D01*
X1067906Y641095D01*
X1120045Y642735D02*
Y640767D01*
X1121357D01*
X1123325Y642735D02*
X1122013D01*
Y640767D01*
X1123325D01*
X1122013Y641751D02*
X1122669D01*
X1123981Y642735D02*
Y640767D01*
X1124965D01*
X1125293Y641095D01*
Y642407D01*
X1124965Y642735D01*
X1123981D01*
X1125949Y640767D02*
X1126605D01*
X1126277D01*
Y642735D01*
X1125949Y642407D01*
X1105289Y642735D02*
Y640767D01*
X1106601D01*
X1108568Y642735D02*
X1107257D01*
Y640767D01*
X1108568D01*
X1107257Y641751D02*
X1107913D01*
X1109224Y642735D02*
Y640767D01*
X1110208D01*
X1110536Y641095D01*
Y642407D01*
X1110208Y642735D01*
X1109224D01*
X1112504Y640767D02*
X1111192D01*
X1112504Y642079D01*
Y642407D01*
X1112176Y642735D01*
X1111520D01*
X1111192Y642407D01*
X1076431Y642735D02*
Y640767D01*
X1077743D01*
X1079711Y642735D02*
X1078399D01*
Y640767D01*
X1079711D01*
X1078399Y641751D02*
X1079055D01*
X1080367Y642735D02*
Y640767D01*
X1081351D01*
X1081679Y641095D01*
Y642407D01*
X1081351Y642735D01*
X1080367D01*
X1083319Y640767D02*
Y642735D01*
X1082335Y641751D01*
X1083647D01*
X1134146Y642735D02*
Y640767D01*
X1135458D01*
X1137426Y642735D02*
X1136114D01*
Y640767D01*
X1137426D01*
X1136114Y641751D02*
X1136770D01*
X1138081Y642735D02*
Y640767D01*
X1139065D01*
X1139393Y641095D01*
Y642407D01*
X1139065Y642735D01*
X1138081D01*
X1140049Y642407D02*
X1140377Y642735D01*
X1141033D01*
X1141361Y642407D01*
Y641095D01*
X1141033Y640767D01*
X1140377D01*
X1140049Y641095D01*
Y642407D01*
X1090860Y642735D02*
Y640767D01*
X1092172D01*
X1094140Y642735D02*
X1092828D01*
Y640767D01*
X1094140D01*
X1092828Y641751D02*
X1093484D01*
X1094796Y642735D02*
Y640767D01*
X1095780D01*
X1096108Y641095D01*
Y642407D01*
X1095780Y642735D01*
X1094796D01*
X1096764Y642407D02*
X1097092Y642735D01*
X1097748D01*
X1098076Y642407D01*
Y642079D01*
X1097748Y641751D01*
X1097420D01*
X1097748D01*
X1098076Y641423D01*
Y641095D01*
X1097748Y640767D01*
X1097092D01*
X1096764Y641095D01*
M02*
