G04*
G04 #@! TF.GenerationSoftware,Altium Limited,Altium Designer,26.3.0 (6)*
G04*
G04 Layer_Physical_Order=3*
G04 Layer_Color=16440176*
%FSLAX25Y25*%
%MOIN*%
G70*
G04*
G04 #@! TF.SameCoordinates,3252148B-6E92-4FCE-BCB3-50AFE4F8E010*
G04*
G04*
G04 #@! TF.FilePolarity,Positive*
G04*
G01*
G75*
%ADD10C,0.01000*%
%ADD17R,0.03740X0.03543*%
%ADD22R,0.02913X0.05787*%
%ADD50C,0.06496*%
%ADD51C,0.18898*%
%ADD52R,0.06496X0.06496*%
%ADD53C,0.01457*%
%ADD54C,0.06102*%
%ADD55R,0.06102X0.06102*%
%ADD56C,0.05315*%
%ADD57C,0.05000*%
D10*
X834087Y616000D02*
X834406Y615681D01*
X810500Y616000D02*
X834087D01*
X829719Y619698D02*
X834418Y615000D01*
X829719Y619698D02*
Y909281D01*
X786000Y616000D02*
X810500D01*
X834418Y615000D02*
X835500D01*
X836000Y615500D01*
X859000D01*
X859500Y616000D01*
X884750Y615750D02*
X885000Y615500D01*
X859500Y616000D02*
X859750Y615750D01*
X885000Y615500D02*
X910000D01*
X859750Y615750D02*
X884750D01*
X910000Y615500D02*
X935500D01*
X959500D01*
X985000D01*
X985250Y615750D02*
X1009250D01*
X1009500Y616000D01*
X985000Y615500D02*
X985250Y615750D01*
X1009500Y616000D02*
X1010500D01*
X1150000Y615000D02*
X1153883Y618883D01*
X1149981Y614981D02*
X1150000Y615000D01*
X1010500Y616000D02*
X1016500Y610000D01*
X1052500D01*
X1118710Y614981D02*
X1149981D01*
X804000Y935000D02*
X829719Y909281D01*
X804000Y935000D02*
X964489D01*
X1029989Y869500D01*
X1031500D01*
X1097000Y804000D01*
X1159000Y621500D02*
Y631500D01*
X1169000D01*
X1087003Y615729D02*
X1087232Y615959D01*
X1087981Y615210D02*
X1117442D01*
X1053568Y612486D02*
X1055500Y614418D01*
X1055729Y615729D02*
X1087003D01*
X1055500Y615500D02*
X1055729Y615729D01*
X1156383Y618883D02*
X1159000Y621500D01*
X1055500Y614418D02*
Y615500D01*
X1052500Y610000D02*
X1053568Y611068D01*
X1087232Y615959D02*
X1087981Y615210D01*
X1153883Y618883D02*
X1156383D01*
X1053568Y611068D02*
Y612486D01*
D17*
X1137500Y636150D02*
D03*
X1123071D02*
D03*
X1108643D02*
D03*
X1094214D02*
D03*
X1079786D02*
D03*
X1065357D02*
D03*
X1050929D02*
D03*
X1036500D02*
D03*
D22*
X939000Y946000D02*
D03*
X934000D02*
D03*
X929000D02*
D03*
X924000D02*
D03*
X919000D02*
D03*
X914000D02*
D03*
X909000D02*
D03*
X904000D02*
D03*
X899000D02*
D03*
X894000D02*
D03*
X889000D02*
D03*
X884000D02*
D03*
X879000D02*
D03*
X874000D02*
D03*
X869000D02*
D03*
X864000D02*
D03*
X859000D02*
D03*
X854000D02*
D03*
X849000D02*
D03*
X844000D02*
D03*
X839000D02*
D03*
X834000D02*
D03*
X829000D02*
D03*
D50*
X1111000Y885992D02*
D03*
X1121000Y881484D02*
D03*
Y890500D02*
D03*
Y899516D02*
D03*
Y908532D02*
D03*
Y917547D02*
D03*
X1111000Y895008D02*
D03*
Y904024D02*
D03*
Y913039D02*
D03*
Y922055D02*
D03*
X1101000Y881484D02*
D03*
Y890500D02*
D03*
Y899516D02*
D03*
Y908532D02*
D03*
D51*
X1111000Y851307D02*
D03*
Y949693D02*
D03*
D52*
X1101000Y917547D02*
D03*
D53*
X1011480Y952358D02*
D03*
X771520D02*
D03*
Y712358D02*
D03*
X1011480D02*
D03*
X1026500Y952500D02*
D03*
Y712539D02*
D03*
D54*
X1159000Y641500D02*
D03*
Y661500D02*
D03*
Y671500D02*
D03*
Y681500D02*
D03*
Y691500D02*
D03*
Y701500D02*
D03*
Y711500D02*
D03*
Y721500D02*
D03*
Y731500D02*
D03*
Y741500D02*
D03*
Y751500D02*
D03*
Y761500D02*
D03*
X1169000Y641500D02*
D03*
Y661500D02*
D03*
Y671500D02*
D03*
Y681500D02*
D03*
Y701500D02*
D03*
Y711500D02*
D03*
Y721500D02*
D03*
Y731500D02*
D03*
Y741500D02*
D03*
Y751500D02*
D03*
Y761500D02*
D03*
Y691500D02*
D03*
Y631500D02*
D03*
Y651500D02*
D03*
X1159000D02*
D03*
D55*
Y631500D02*
D03*
D56*
X1061500Y998500D02*
D03*
Y1008500D02*
D03*
X1051500Y998500D02*
D03*
Y1008500D02*
D03*
X1041500Y998500D02*
D03*
Y1008500D02*
D03*
X1031500Y998500D02*
D03*
Y1008500D02*
D03*
X1021500Y998500D02*
D03*
Y1008500D02*
D03*
X1011500Y998500D02*
D03*
Y1008500D02*
D03*
X1001500Y998500D02*
D03*
Y1008500D02*
D03*
X991500Y998500D02*
D03*
Y1008500D02*
D03*
X981500Y998500D02*
D03*
Y1008500D02*
D03*
X971500Y998500D02*
D03*
Y1008500D02*
D03*
X961500Y998500D02*
D03*
Y1008500D02*
D03*
X951500Y998500D02*
D03*
Y1008500D02*
D03*
X941500Y998500D02*
D03*
Y1008500D02*
D03*
X931500Y998500D02*
D03*
Y1008500D02*
D03*
X921500Y998500D02*
D03*
Y1008500D02*
D03*
X911500Y998500D02*
D03*
Y1008500D02*
D03*
X901500Y998500D02*
D03*
Y1008500D02*
D03*
X891500Y998500D02*
D03*
Y1008500D02*
D03*
X881500Y998500D02*
D03*
Y1008500D02*
D03*
X871500Y998500D02*
D03*
Y1008500D02*
D03*
X861500Y998500D02*
D03*
Y1008500D02*
D03*
X851500Y998500D02*
D03*
Y1008500D02*
D03*
X841500Y998500D02*
D03*
Y1008500D02*
D03*
X831500Y998500D02*
D03*
Y1008500D02*
D03*
X821500Y998500D02*
D03*
Y1008500D02*
D03*
X811500Y998500D02*
D03*
Y1008500D02*
D03*
X801500Y998500D02*
D03*
Y1008500D02*
D03*
X791500Y998500D02*
D03*
Y1008500D02*
D03*
X781500Y998500D02*
D03*
Y1008500D02*
D03*
X771500Y998500D02*
D03*
Y1008500D02*
D03*
D57*
X810500Y616000D02*
D03*
X786000D02*
D03*
X959500Y615500D02*
D03*
X885000D02*
D03*
X859109Y618228D02*
D03*
X835500Y614587D02*
D03*
X910000Y615500D02*
D03*
X935500D02*
D03*
X985000D02*
D03*
X1009500Y616000D02*
D03*
X1150000Y615000D02*
D03*
X1065000Y925000D02*
D03*
X950224Y640000D02*
D03*
X1065000Y915500D02*
D03*
X1012524Y742789D02*
D03*
X1013472Y849972D02*
D03*
X1013500Y880000D02*
D03*
X1099420Y784944D02*
D03*
X1009205Y875207D02*
D03*
X1010407Y764024D02*
D03*
X1102000Y796500D02*
D03*
X1013826Y759601D02*
D03*
X1055500Y615500D02*
D03*
X1009205Y845207D02*
D03*
X804000Y935000D02*
D03*
X1117961Y614461D02*
D03*
X1009205Y795207D02*
D03*
X1010500Y905000D02*
D03*
X1097000Y804000D02*
D03*
X885724Y644159D02*
D03*
X1014000Y910000D02*
D03*
X1101000Y827000D02*
D03*
X1009205Y835207D02*
D03*
X1087232Y615959D02*
D03*
X1009205Y805207D02*
D03*
X767500Y699000D02*
D03*
X1102000Y812000D02*
D03*
X1013500Y830000D02*
D03*
X766500Y725500D02*
D03*
X1009205Y885207D02*
D03*
X1013500Y860000D02*
D03*
X775500Y699000D02*
D03*
X1013500Y810000D02*
D03*
X1009205Y855207D02*
D03*
X774000Y725500D02*
D03*
X1010929Y894876D02*
D03*
X1009205Y825207D02*
D03*
X767000Y938500D02*
D03*
Y965500D02*
D03*
X894224Y640000D02*
D03*
X1013500Y840000D02*
D03*
X774000Y939217D02*
D03*
X1013500Y800000D02*
D03*
Y820000D02*
D03*
X774000Y965500D02*
D03*
X1014295Y890272D02*
D03*
X1009205Y815207D02*
D03*
X780500Y965500D02*
D03*
X1043500Y756500D02*
D03*
X1009205Y865207D02*
D03*
X781000Y938500D02*
D03*
X1041000Y781500D02*
D03*
X1013500Y870000D02*
D03*
X799000Y939217D02*
D03*
X1013837Y769683D02*
D03*
X1009215Y755216D02*
D03*
X799000Y965283D02*
D03*
X1009215Y775216D02*
D03*
X1013926Y900074D02*
D03*
X1001224Y548000D02*
D03*
X1043000Y774000D02*
D03*
X926224Y640000D02*
D03*
X969000Y699000D02*
D03*
X1042591Y747500D02*
D03*
X902224Y640000D02*
D03*
X969039Y724961D02*
D03*
X1043500Y766000D02*
D03*
X934224Y640000D02*
D03*
X1065000Y905000D02*
D03*
X1049000Y770000D02*
D03*
X918224Y640000D02*
D03*
X1048000Y761000D02*
D03*
X910224Y640000D02*
D03*
X1048500Y752000D02*
D03*
X942224Y640000D02*
D03*
X1068000Y881500D02*
D03*
X958224Y640000D02*
D03*
X1068500Y872000D02*
D03*
X1013510Y750010D02*
D03*
M02*
