G04*
G04 #@! TF.GenerationSoftware,Altium Limited,Altium Designer,26.3.0 (6)*
G04*
G04 Layer_Physical_Order=1*
G04 Layer_Color=255*
%FSLAX25Y25*%
%MOIN*%
G70*
G04*
G04 #@! TF.SameCoordinates,3252148B-6E92-4FCE-BCB3-50AFE4F8E010*
G04*
G04*
G04 #@! TF.FilePolarity,Positive*
G04*
G01*
G75*
%ADD10C,0.01000*%
%ADD15R,0.07874X0.05315*%
%ADD16R,0.03543X0.03740*%
%ADD17R,0.03740X0.03543*%
%ADD18R,0.06299X0.03937*%
%ADD19R,0.03740X0.03543*%
%ADD20R,0.02362X0.02165*%
%ADD21R,0.02165X0.02362*%
%ADD22R,0.02913X0.05787*%
%ADD23R,0.04724X0.02756*%
%ADD24R,0.07480X0.05118*%
%ADD25R,0.11024X0.03937*%
%ADD26R,0.03150X0.03937*%
%ADD27R,0.04724X0.03937*%
%ADD28R,0.05787X0.02913*%
%ADD50C,0.06496*%
%ADD51C,0.18898*%
%ADD52R,0.06496X0.06496*%
%ADD53C,0.01457*%
%ADD54C,0.06102*%
%ADD55R,0.06102X0.06102*%
%ADD56C,0.05315*%
%ADD57C,0.05000*%
D10*
X1154023Y673742D02*
G03*
X1154018Y673744I-6517J-21106D01*
G01*
X1048289Y810611D02*
Y810612D01*
X1158735Y663050D02*
G03*
X1158733Y663052I-707J-707D01*
G01*
X1150256Y667168D02*
G03*
X1158498Y663287I10112J10783D01*
G01*
X1159028Y662342D02*
Y662343D01*
X1158344Y684784D02*
G03*
X1152904Y687911I-8056J-7722D01*
G01*
X1159000Y671500D02*
G03*
X1154023Y673742I-11494J-18864D01*
G01*
X1147164Y704925D02*
G03*
X1153399Y674304I79520J248D01*
G01*
X1101000Y908532D02*
G03*
X1092585Y901153I2560J-11408D01*
G01*
X1152488Y688441D02*
G03*
X1152710Y688105I929J371D01*
G01*
X1142372Y691808D02*
G03*
X1152297Y651388I250988J40205D01*
G01*
X1147163Y705337D02*
G03*
X1147164Y704925I79520J-163D01*
G01*
X1143639Y695140D02*
G03*
X1149998Y667572I142378J18326D01*
G01*
X1152344Y650996D02*
G03*
X1152297Y651388I-997J79D01*
G01*
X1142324Y692104D02*
G03*
X1142372Y691808I251035J39908D01*
G01*
X1152344Y650996D02*
G03*
X1158233Y642267I8375J-701D01*
G01*
X1150000Y667564D02*
G03*
X1150256Y667168I945J328D01*
G01*
X1153399Y674304D02*
G03*
X1154018Y673744I919J394D01*
G01*
X1158707Y693369D02*
G03*
X1158705Y693372I-707J-707D01*
G01*
X1152502Y697997D02*
G03*
X1158516Y693560I8399J5091D01*
G01*
X1159000Y683960D02*
G03*
X1158344Y684784I-4806J-3154D01*
G01*
X1091909Y900535D02*
G03*
X1092585Y901153I-263J965D01*
G01*
X1098000Y548000D02*
X1116000D01*
X1135176Y567176D01*
X1150500D01*
X1098000Y548000D02*
Y548122D01*
X1117054Y567176D01*
X1118333D01*
X1073000Y548000D02*
X1098000D01*
X1073000D02*
X1086167Y561167D01*
Y567176D01*
X1053414Y548000D02*
X1073000D01*
X1150500Y584500D02*
X1150500Y584500D01*
Y602646D01*
X1118000Y584833D02*
X1118333Y584500D01*
X1118000Y584833D02*
Y602646D01*
X1086167Y584500D02*
X1087000Y585333D01*
Y602646D01*
X1054000Y548586D02*
Y567176D01*
X1053414Y548000D02*
X1054000Y548586D01*
X1001224Y548000D02*
X1053414D01*
X1115500Y623000D02*
X1135756Y602744D01*
X1149917D01*
X1115500Y623000D02*
Y644000D01*
X1054000Y584500D02*
X1054914Y585414D01*
Y602642D01*
X1054917Y602744D01*
X791000Y602000D02*
X833159Y644159D01*
X785724Y602000D02*
X791000D01*
X785724Y594451D02*
Y602000D01*
X786000Y608122D02*
Y609000D01*
Y608122D02*
Y616000D01*
X815544Y601586D02*
X817229Y603271D01*
X815958Y602000D02*
X818500Y604542D01*
X812196Y602000D02*
X815958D01*
X811196Y601000D02*
X812196Y602000D01*
X810500Y607579D02*
X810724Y607354D01*
X810500Y607579D02*
Y616000D01*
X1009027Y601697D02*
X1009724Y601000D01*
Y594743D02*
Y601000D01*
X984835Y594687D02*
Y602000D01*
X980500D02*
X984835D01*
X950224Y632276D02*
X980500Y602000D01*
X959947Y594590D02*
Y602646D01*
X955354D02*
X959947D01*
X942224Y615776D02*
X955354Y602646D01*
X959500Y608354D02*
Y615500D01*
X930724Y602776D02*
X931000Y602500D01*
X930724Y602776D02*
Y634914D01*
X931000Y602500D02*
X935058D01*
Y593394D02*
Y602500D01*
X915500Y602000D02*
X926224Y612724D01*
X910169Y602000D02*
X915500D01*
X910169Y594479D02*
Y602000D01*
X890500D02*
X901661Y613161D01*
X885280Y602000D02*
X890500D01*
X885280Y601000D02*
Y602000D01*
Y601000D02*
X885378D01*
X885000Y607622D02*
Y615500D01*
X859500Y627500D02*
X889724D01*
X848393Y616393D02*
X859500Y627500D01*
X848393Y609537D02*
Y616393D01*
X859109Y608197D02*
X859609Y607697D01*
X859109Y608197D02*
Y618228D01*
X860000Y602146D02*
X860160Y602305D01*
X860000Y595009D02*
X862189Y592820D01*
X860160Y602305D02*
X865305D01*
X883359Y620360D01*
X860000Y595009D02*
Y602146D01*
X1108741Y619728D02*
X1113961Y614508D01*
X1117961Y607692D02*
Y614461D01*
X1087232Y606730D02*
Y615959D01*
X1055500Y607854D02*
Y615500D01*
X935500Y608122D02*
Y615500D01*
X910000Y607622D02*
Y615500D01*
X985000Y608122D02*
Y615500D01*
X835502Y594562D02*
Y602000D01*
X840856D01*
X848393Y609537D01*
X835500Y607709D02*
Y614587D01*
X968500Y640000D02*
X1006803Y601697D01*
X1009027D01*
X958224Y640000D02*
X968500D01*
X1150000Y615000D02*
Y616000D01*
Y608854D02*
Y615000D01*
X1009500Y608354D02*
Y616000D01*
X1150000Y608854D02*
X1150500Y608354D01*
X1146272Y619728D02*
X1150000Y616000D01*
X1138000Y619728D02*
X1146272D01*
X1123500D02*
X1138000D01*
X1080000D02*
X1083462D01*
X1079884D02*
X1080000D01*
X1055000Y606772D02*
Y607854D01*
X909525Y962525D02*
X924882Y977882D01*
X1032858Y860020D02*
X1035252Y859063D01*
X792724Y548000D02*
Y588757D01*
X1032858Y765020D02*
X1037046D01*
X984500Y975500D02*
X991500Y982500D01*
X1009298Y875113D02*
X1020048D01*
X789000Y958717D02*
Y960154D01*
X1044885Y808064D02*
X1046474Y799778D01*
X1013510Y840010D02*
X1020132D01*
X965512Y979512D02*
X971500Y985500D01*
X1032858Y835020D02*
X1035252Y834063D01*
X792724Y547500D02*
X817724D01*
X914000Y958717D02*
Y963000D01*
X1032858Y760020D02*
X1039797D01*
X1034295Y885020D02*
X1036339Y882976D01*
X787586Y961110D02*
X788043D01*
X1013510Y820010D02*
X1020132D01*
X1105040Y603228D02*
X1118735D01*
X1036842Y846928D02*
X1059082Y814994D01*
X894957Y961110D02*
X895110D01*
X817724Y547500D02*
Y588757D01*
X914000Y963000D02*
X926500Y975500D01*
X1043316Y756500D02*
X1043500D01*
X1036339Y882976D02*
X1036452D01*
X788043Y961110D02*
X789000Y960154D01*
X1009298Y815113D02*
X1020048D01*
X895110Y961110D02*
X916772Y982772D01*
X926224Y612724D02*
Y640000D01*
X1032858Y845020D02*
X1035252Y844063D01*
X918310Y589342D02*
X923000D01*
X1039797Y760020D02*
X1043316Y756500D01*
X926500Y975500D02*
X984500D01*
X1032858Y885020D02*
X1034295D01*
X787000Y961696D02*
X787586Y961110D01*
X1063614Y817096D02*
X1091033Y782238D01*
X1051000Y619630D02*
X1055130Y615500D01*
X1009298Y865113D02*
X1020048D01*
X818500Y613198D02*
X845871Y640569D01*
X784000Y946000D02*
Y958717D01*
X1035252Y859063D02*
X1036842Y856928D01*
X917724Y588757D02*
X918310Y589342D01*
X821500Y967654D02*
Y998500D01*
X1037046Y765020D02*
X1041065Y761000D01*
X1068858Y838485D02*
Y845491D01*
X1101000Y827000D02*
X1105453D01*
X1091033Y782238D02*
X1096238Y777034D01*
X1013510Y870010D02*
X1020132D01*
X1117914Y614508D02*
X1117961Y614461D01*
X784000Y946000D02*
X789000D01*
X1036842Y851928D02*
X1060378Y816015D01*
X923000Y589342D02*
X932449D01*
X821500Y967654D02*
X829000Y960154D01*
X1034295Y770020D02*
X1038315Y766000D01*
X1036373Y877976D02*
X1068858Y845491D01*
X1130248Y775630D02*
X1154653D01*
X1081254Y778195D02*
X1150133Y707642D01*
X1020114Y900047D02*
X1020142Y900020D01*
X818500Y604542D02*
Y613198D01*
X784000Y958717D02*
X789000D01*
X1035252Y864063D02*
X1036842Y861928D01*
X898000Y589342D02*
X907449D01*
X829000Y958717D02*
Y960154D01*
X1034295Y775020D02*
X1039315Y770000D01*
X1036339Y877976D02*
X1036373D01*
X1154653Y775630D02*
X1170992D01*
X1053869Y812755D02*
X1081254Y778195D01*
X1013926Y900074D02*
X1013953Y900047D01*
X1087000Y621268D02*
X1105040Y603228D01*
X789000Y958717D02*
X794000D01*
X1034295Y830020D02*
X1051975Y812340D01*
X868567Y589342D02*
X873000D01*
X935772Y982772D02*
X951500Y998500D01*
X1032858Y785020D02*
X1037480D01*
X1034295Y880020D02*
X1036339Y877976D01*
X1170992Y775630D02*
X1171299D01*
X1084514Y779537D02*
X1135881Y728170D01*
X1051000Y623272D02*
Y629779D01*
X1013953Y900047D02*
X1020114D01*
X1087000Y621268D02*
Y640500D01*
X794000Y958717D02*
Y995120D01*
X1036842Y856928D02*
X1062008Y816527D01*
X867724Y588500D02*
X868567Y589342D01*
X1037480Y785020D02*
X1041000Y781500D01*
X981086Y998086D02*
X981500Y998500D01*
X1032858Y880020D02*
X1034295D01*
X1129854Y775630D02*
X1130248D01*
X1072000Y616500D02*
Y759500D01*
X832949Y579500D02*
X834130D01*
X1050929Y629850D02*
X1051000Y629779D01*
X1059841Y813940D02*
X1086144Y780212D01*
X833159Y644159D02*
X885724D01*
X789000Y946000D02*
X794000D01*
X1098409Y795013D02*
X1100513Y792909D01*
X873000Y589342D02*
X882449D01*
X1032858Y755020D02*
X1039825D01*
X981086Y978586D02*
Y998086D01*
X1036339Y872976D02*
X1036373D01*
X1171299Y775630D02*
X1172768Y777098D01*
X1072000Y616500D02*
X1085895Y602605D01*
X1087774Y780887D02*
X1120421Y748240D01*
X910098Y585332D02*
X911689Y586922D01*
X791500Y1007620D02*
Y1008500D01*
X1060378Y816015D02*
X1060712Y815519D01*
X943310Y589342D02*
X948000D01*
X909000Y958717D02*
X909525Y959241D01*
X1013837Y769683D02*
X1014005Y769851D01*
X1034295Y875020D02*
X1036339Y872976D01*
X1126114Y779370D02*
X1129854Y775630D01*
X1085895Y602105D02*
X1086702Y601381D01*
X1061086Y814999D02*
X1087774Y780887D01*
X910098Y580969D02*
Y585332D01*
X791500Y997620D02*
X794000Y995120D01*
X1054846Y886500D02*
X1088500D01*
X1035252Y849063D02*
X1036842Y846928D01*
X942724Y588757D02*
X943310Y589342D01*
X909525Y959241D02*
Y962525D01*
X1014005Y769851D02*
X1019973D01*
X1032858Y875020D02*
X1034295D01*
X1113319Y779370D02*
X1122000D01*
X1086702Y601381D02*
X1087167Y601646D01*
X1089404Y781563D02*
X1121096Y749870D01*
X908630Y579500D02*
X910098Y580969D01*
X791500Y997620D02*
Y998500D01*
X1088500Y886500D02*
X1101580Y899580D01*
X1017748Y849972D02*
X1020132Y850010D01*
X948000Y589342D02*
X957449D01*
X1019973Y769851D02*
X1020142Y770020D01*
X1113260Y787500D02*
X1113319Y787441D01*
X1041500Y994000D02*
Y998500D01*
X1122000Y779370D02*
X1126114D01*
X1121096Y749870D02*
X1129730Y741500D01*
X910169Y594479D02*
X911689Y592959D01*
X1067082Y906000D02*
X1073735D01*
X1032858Y855020D02*
X1035252Y854063D01*
X892724Y588757D02*
X893310Y589342D01*
X1009308Y775123D02*
X1020058D01*
X1113120Y796301D02*
X1113319Y796102D01*
X939524Y962525D02*
X940500Y963500D01*
X1122000Y779370D02*
Y787500D01*
X1102901Y783055D02*
X1103729Y783055D01*
X911689Y586922D02*
Y592959D01*
X1108643Y629850D02*
X1109000Y629493D01*
X1151243Y706532D02*
X1152502Y697997D01*
X1066082Y905000D02*
X1067082Y906000D01*
X893310Y589342D02*
X898000D01*
X1032858Y800020D02*
X1034295D01*
X1113055Y804500D02*
X1113319Y804764D01*
X939000Y958717D02*
X939524Y959241D01*
X1138000Y623272D02*
Y629350D01*
X1105453Y827000D02*
X1112925Y819528D01*
X907449Y579500D02*
X908630D01*
X1059721Y814099D02*
X1059841Y813940D01*
X1099552Y780841D02*
X1100136Y781425D01*
X1065000Y905000D02*
X1066082D01*
X1079786Y629850D02*
X1080000Y629636D01*
X967310Y589342D02*
X972500D01*
X940500Y963500D02*
X1011000D01*
X1106004Y813425D02*
X1113319D01*
X1034295Y810020D02*
X1037114Y807201D01*
X1113319Y791772D02*
X1117728D01*
X898000Y579500D02*
X907449D01*
X1059447Y814480D02*
X1059721Y814099D01*
X1099552Y780474D02*
Y780841D01*
X1059600Y903704D02*
X1062512Y900793D01*
X966724Y588757D02*
X967310Y589342D01*
X1102843Y804500D02*
X1113055D01*
X1011000Y963500D02*
X1041500Y994000D01*
X1032858Y810020D02*
X1034295D01*
X1117728Y791772D02*
X1122000Y787500D01*
X1058211Y813379D02*
X1058606Y812869D01*
X889724Y627500D02*
X902224Y640000D01*
X1100136Y781425D02*
X1101575D01*
X1062512Y900793D02*
X1062805Y900500D01*
X972500Y589342D02*
X981949D01*
X1037403Y780020D02*
X1043000Y774422D01*
X1102199Y796301D02*
X1113120D01*
X939524Y959241D02*
Y962525D01*
X1112925Y819528D02*
X1162335D01*
X835502Y594562D02*
X837189Y592876D01*
X1036841Y841905D02*
X1058211Y813379D01*
X1100513Y792909D02*
X1106257Y787500D01*
X1091780Y900500D02*
X1091909Y900535D01*
X843810Y589342D02*
X848500D01*
X804000Y935000D02*
Y946000D01*
X1043000Y774000D02*
Y774422D01*
X1068858Y838485D02*
X1102843Y804500D01*
X1162335Y819528D02*
X1171587Y828780D01*
X1038565Y796650D02*
X1041476Y793739D01*
X837189Y586922D02*
Y592876D01*
X1106257Y787500D02*
X1113260D01*
X1091646Y900500D02*
X1091780Y900500D01*
X843224Y588757D02*
X843810Y589342D01*
X804000Y958717D02*
Y991000D01*
X1036452Y882976D02*
X1106004Y813425D01*
X1171587Y828780D02*
X1172768D01*
X1041476Y793739D02*
X1041500Y793659D01*
X823500Y579500D02*
X832949D01*
X1036373Y872976D02*
X1066565Y842784D01*
X1062805Y900500D02*
X1091646D01*
X1123500Y623272D02*
Y629422D01*
X969000Y699000D02*
Y706000D01*
X804000Y991000D02*
X807337Y994337D01*
X1032858Y750020D02*
X1038363D01*
X1102000Y796500D02*
X1102199Y796301D01*
X1172768Y777098D02*
Y828780D01*
X834130Y579500D02*
X835598Y580969D01*
X1143419Y695375D02*
X1143639Y695140D01*
X1101575Y781425D02*
X1121500Y761500D01*
X1079918Y917547D02*
X1101000D01*
X804000Y946000D02*
Y958717D01*
X1041590Y747500D02*
X1042591D01*
X1032858Y870020D02*
X1034295D01*
X767500Y700082D02*
X769000Y701582D01*
X835598Y585332D02*
X837189Y586922D01*
X1047093Y798511D02*
X1143419Y695375D01*
X1078772Y916500D02*
X1078870D01*
X1032858Y840020D02*
X1035252Y839063D01*
X807337Y994337D02*
X811500Y998500D01*
X1039262Y749828D02*
X1041590Y747500D01*
X1009298Y845113D02*
X1020048D01*
X767500Y699000D02*
Y700082D01*
X835598Y580969D02*
Y585332D01*
X1143639Y695140D02*
X1143639Y695140D01*
X1036500Y623272D02*
Y629850D01*
X1078870Y916500D02*
X1079918Y917547D01*
X1013472Y849972D02*
X1017748D01*
X807337Y994337D02*
Y1004337D01*
X1038363Y750020D02*
X1038554Y749828D01*
X1009298Y795113D02*
X1020048D01*
X769000Y701582D02*
Y706000D01*
X1149998Y667572D02*
X1150000Y667564D01*
X930724Y634914D02*
X933459Y637649D01*
X1121500Y761500D02*
X1159000D01*
X1127748Y874173D02*
Y893752D01*
X807337Y1004337D02*
X811500Y1008500D01*
X1038554Y749828D02*
X1039262D01*
X1032858Y815020D02*
X1033044Y814834D01*
X766500Y725500D02*
X766798Y725202D01*
X923000Y579500D02*
X932449D01*
X1044844Y799103D02*
X1045431Y797686D01*
X1065268Y817732D02*
Y839047D01*
X1121984Y899516D02*
X1127748Y893752D01*
X1041065Y761000D02*
X1048000D01*
X1051027Y619728D02*
X1065500D01*
X1009298Y835113D02*
X1020048D01*
X769000Y718717D02*
Y720154D01*
X1045498Y797522D02*
X1142324Y692104D01*
X933630Y579500D02*
X936689Y582559D01*
X1046771Y799481D02*
X1047024Y798719D01*
X1121000Y899516D02*
X1121984D01*
X1038315Y766000D02*
X1043500D01*
X1102000Y812000D02*
X1104906Y809095D01*
X1100000Y801000D02*
X1112752D01*
X766798Y722356D02*
Y725202D01*
X1045431Y797686D02*
X1045498Y797522D01*
X1152710Y688105D02*
X1152904Y687911D01*
X1081846Y873000D02*
X1082879Y871968D01*
X1039315Y770000D02*
X1049000D01*
X1097000Y804000D02*
X1100000Y801000D01*
X1104906Y809095D02*
X1113319D01*
X766798Y722356D02*
X769000Y720154D01*
X1043316Y798371D02*
X1044760Y795009D01*
X933459Y639235D02*
X934224Y640000D01*
X1047024Y798719D02*
X1047093Y798511D01*
X1125748Y875002D02*
Y885752D01*
X1042845Y752000D02*
X1048500D01*
X1112752Y801000D02*
X1113319Y800433D01*
X1009205Y885207D02*
X1009298Y885113D01*
X775500Y699000D02*
Y700082D01*
X935058Y593394D02*
X936689Y591763D01*
X1035252Y804063D02*
X1042906Y794643D01*
X1095448Y785552D02*
X1096034Y786137D01*
X1121000Y890500D02*
X1125748Y885752D01*
X831500Y962654D02*
Y998500D01*
X1039825Y755020D02*
X1042845Y752000D01*
X1009298Y885113D02*
X1020048D01*
X774000Y701582D02*
Y706000D01*
X1042906Y794643D02*
X1043130Y794334D01*
X936689Y582559D02*
Y591763D01*
X1094474Y785552D02*
X1095448D01*
X831500Y962654D02*
X834000Y960154D01*
X774000Y701582D02*
X775500Y700082D01*
X932449Y579500D02*
X933630D01*
X1073630Y760175D02*
X1087000Y640500D01*
X1065268Y817732D02*
X1096034Y786966D01*
X885280Y593172D02*
Y599917D01*
X834000Y958717D02*
Y960154D01*
X774000Y718717D02*
Y725500D01*
X1075181Y761319D02*
X1115500Y644000D01*
X933459Y637649D02*
Y639235D01*
X1096034Y786137D02*
Y786966D01*
X961500Y987681D02*
Y998500D01*
X767000Y939582D02*
X769000Y941582D01*
X882449Y579500D02*
X883630D01*
X1043130Y794334D02*
X1043437Y790758D01*
X1047772Y804728D02*
X1147163Y705337D01*
X901661Y613161D02*
Y621936D01*
X899000Y958717D02*
Y960154D01*
X767000Y938500D02*
Y939582D01*
X1041500Y790000D02*
X1072000Y759500D01*
X883630Y579500D02*
X886689Y582559D01*
X1097741Y778663D02*
X1099552Y780474D01*
X902092Y962701D02*
X902984D01*
X769000Y958815D02*
Y960154D01*
X886689Y582559D02*
Y591763D01*
X1020048Y885113D02*
X1020142Y885020D01*
X1052213Y812101D02*
X1079624Y777531D01*
X969019Y718736D02*
Y724942D01*
X901453Y962062D02*
X902092Y962701D01*
X1080000Y623272D02*
Y629636D01*
X769000Y941582D02*
Y946000D01*
X1043437Y790758D02*
X1073630Y760175D01*
X917146Y637422D02*
Y637839D01*
X1013510Y810010D02*
X1020132D01*
X969000Y718717D02*
X969019Y718736D01*
X900867Y961110D02*
X901453Y961696D01*
X766916Y965416D02*
X767000Y965500D01*
X1041500Y790000D02*
Y793659D01*
X901661Y621936D02*
X917146Y637422D01*
X1020070Y894948D02*
X1020142Y895020D01*
X1047772Y804728D02*
Y809680D01*
X969019Y724942D02*
X969039Y724961D01*
X899957Y961110D02*
X900867D01*
X766916Y962238D02*
Y965416D01*
X885280Y593172D02*
X886689Y591763D01*
X1011000Y894948D02*
X1020070D01*
X1152990Y711500D02*
X1159000D01*
X1044829Y916000D02*
X1049228D01*
X899000Y960154D02*
X899957Y961110D01*
X766916Y962238D02*
X769000Y960154D01*
X1010929Y894876D02*
X1011000Y894948D01*
X1044760Y795009D02*
X1045067Y791433D01*
X918224Y638918D02*
Y640000D01*
X1038166Y814834D02*
X1038692Y814308D01*
X1065500Y623272D02*
Y629707D01*
X901453Y961696D02*
Y962062D01*
X1052772Y916000D02*
X1054346D01*
X774000Y939217D02*
Y946000D01*
X873000Y579500D02*
X882449D01*
X798500D02*
X799348Y580348D01*
X1036842Y861928D02*
X1063614Y817096D01*
X883359Y620360D02*
X890584D01*
X1035776Y906500D02*
X1049228D01*
X904000Y958717D02*
Y960154D01*
X774000Y958717D02*
Y965500D01*
X799348Y582383D02*
X803249Y586283D01*
X1054917Y602744D02*
X1055500Y603228D01*
X917146Y637839D02*
X918224Y638918D01*
X1150719Y707056D02*
X1151243Y706532D01*
X971500Y985500D02*
Y998500D01*
X1053084Y906187D02*
X1054265D01*
X779000Y944500D02*
X779750Y945250D01*
X799348Y580348D02*
Y582383D01*
X1045067Y791433D02*
X1075181Y761319D01*
X860598Y585332D02*
X862189Y586922D01*
X1062337Y816055D02*
X1089404Y781563D01*
X1052772Y906500D02*
X1053084Y906187D01*
X1011500Y980500D02*
Y998500D01*
X781000Y938500D02*
Y939582D01*
X807949Y579500D02*
Y583033D01*
X1032858Y795020D02*
X1037890D01*
X1002000Y971000D02*
X1011500Y980500D01*
X1052772Y896000D02*
Y906500D01*
X779000Y941582D02*
Y944500D01*
X806096Y586283D02*
X807949Y584431D01*
X1040202Y787798D02*
X1069000Y759000D01*
X860598Y580969D02*
Y585332D01*
X1041724Y806615D02*
X1043214Y798779D01*
X929500Y971000D02*
X1002000D01*
X1042228Y896000D02*
X1049228D01*
X779000Y941582D02*
X781000Y939582D01*
X848500Y579500D02*
X857949D01*
X807949Y583033D02*
Y584431D01*
X1037890Y795020D02*
X1038476Y794434D01*
X1079624Y777531D02*
X1148793Y706012D01*
X924000Y965500D02*
X929500Y971000D01*
X1078772Y906000D02*
Y912214D01*
X1032858Y910020D02*
X1038848D01*
X779000Y958717D02*
Y963066D01*
X857949Y579500D02*
X859130D01*
X807949Y583033D02*
X811200Y586283D01*
X1043214Y798779D02*
X1043316Y798371D01*
X1046474Y799778D02*
X1046771Y799481D01*
X924000Y958717D02*
Y965500D01*
X1038208Y900020D02*
X1042228Y896000D01*
X1078772Y912214D02*
X1080346Y913789D01*
X779000Y963066D02*
X780500Y964567D01*
X803249Y586283D02*
X806096D01*
X859130Y579500D02*
X860598Y580969D01*
X1038825Y816424D02*
X1040282Y814967D01*
X841500Y962654D02*
Y998500D01*
X1080346Y913789D02*
Y915024D01*
X1032858Y900020D02*
X1038208D01*
X779000Y946000D02*
X779750Y945250D01*
X811200Y586283D02*
X811550D01*
X862189Y586922D02*
Y592820D01*
X1038476Y794434D02*
X1040202Y787798D01*
X1035252Y839063D02*
X1055517Y813348D01*
X839000Y960154D02*
X841500Y962654D01*
X1078870Y916500D02*
X1080346Y915024D01*
X780500Y964567D02*
Y965500D01*
X811550Y586283D02*
X815544Y590277D01*
X1019932Y759810D02*
X1020142Y760020D01*
X890584Y620360D02*
X910224Y640000D01*
X1035252Y844063D02*
X1036841Y841905D01*
X839000Y958717D02*
Y960154D01*
X1078772Y916500D02*
Y926000D01*
X1094214Y629850D02*
X1094500Y629565D01*
X799000Y958500D02*
Y965283D01*
X1019644Y764522D02*
X1020142Y765020D01*
X961689Y586922D02*
Y592848D01*
X1035252Y834063D02*
X1053869Y812755D01*
X849000Y958717D02*
Y986000D01*
X1067082Y926000D02*
X1075228D01*
X799000Y939217D02*
Y946000D01*
X815544Y590277D02*
Y601586D01*
X1013826Y759601D02*
X1014035Y759810D01*
X959947Y594590D02*
X961689Y592848D01*
X1103729Y783055D02*
X1113264D01*
X849000Y986000D02*
X861500Y998500D01*
X1032858Y890020D02*
X1033815Y889063D01*
X817724Y547500D02*
X843224D01*
X948000Y579500D02*
X957449D01*
X1010407Y764024D02*
X1010905Y764522D01*
X893656Y640569D02*
X894224Y640000D01*
X1034295Y800020D02*
X1037360Y796955D01*
X854000Y981000D02*
X871500Y998500D01*
X1033815Y889063D02*
X1036006D01*
X843224Y547500D02*
X867724D01*
X1010905Y764522D02*
X1019644D01*
X958630Y579500D02*
X960098Y580969D01*
X845871Y640569D02*
X893656D01*
X1058606Y812869D02*
X1084514Y779537D01*
X854000Y958717D02*
Y981000D01*
X1054765Y886419D02*
X1054846Y886500D01*
X1033815Y889063D02*
X1033815Y889063D01*
X848500Y589342D02*
X857949D01*
X1014035Y759810D02*
X1019932D01*
X960098Y580969D02*
Y585332D01*
X1019483Y799361D02*
X1020132Y800010D01*
X1043353Y807290D02*
X1044844Y799103D01*
X844000Y958717D02*
Y991000D01*
X1049866Y876863D02*
X1050228Y876500D01*
X1068000Y881500D02*
X1074154D01*
X843224Y547500D02*
Y588757D01*
X869000Y958717D02*
Y966000D01*
X957449Y579500D02*
X958630D01*
X1013510Y800010D02*
X1020132D01*
X1121973Y751500D02*
X1159000D01*
X844000Y991000D02*
X851500Y998500D01*
X1084407Y880593D02*
X1092780Y872220D01*
X1048206Y876863D02*
X1049866D01*
X892724Y547500D02*
X917224D01*
X869000Y966000D02*
X901500Y998500D01*
X960098Y585332D02*
X961689Y586922D01*
X1014421Y890146D02*
X1020016D01*
X1055517Y813348D02*
X1082884Y778862D01*
X881500Y989993D02*
Y998500D01*
X1036006Y889063D02*
X1048206Y876863D01*
X1082753Y880593D02*
X1084407D01*
X966724Y547500D02*
X992224D01*
X921500Y992000D02*
Y998500D01*
X972500Y579500D02*
X981949D01*
X1020016Y890146D02*
X1020142Y890020D01*
X1129730Y741500D02*
X1159000D01*
X859000Y958717D02*
Y967493D01*
X1081846Y881500D02*
X1082753Y880593D01*
X1094214Y619728D02*
X1094500D01*
X892724Y547500D02*
Y588757D01*
X879000Y958717D02*
Y960154D01*
X984835Y594687D02*
X986189Y593334D01*
X1014295Y890272D02*
X1014421Y890146D01*
X1051975Y812340D02*
X1052213Y812101D01*
X859000Y967493D02*
X881500Y989993D01*
X1092780Y872220D02*
X1122967D01*
X1094500Y619728D02*
X1108741D01*
X867724Y547500D02*
X892724D01*
X879000Y960154D02*
X879957Y961110D01*
X1044848Y886500D02*
X1048154D01*
X983130Y579500D02*
X986189Y582559D01*
X1068500Y872000D02*
X1074154D01*
X889000Y958717D02*
Y960154D01*
X867724Y547500D02*
Y588500D01*
X879957Y961110D02*
X880867D01*
X1037252Y894096D02*
X1044848Y886500D01*
X986189Y582559D02*
Y593334D01*
X941500Y992500D02*
Y998500D01*
X1088215Y871500D02*
X1089494Y870220D01*
X1036500Y619728D02*
X1051000D01*
X966724Y547500D02*
Y588757D01*
X880867Y961110D02*
X881453Y961696D01*
X981949Y579500D02*
X983130D01*
X1033782Y894096D02*
X1037252D01*
X1150133Y707642D02*
X1150719Y707056D01*
X1069000Y614500D02*
Y759000D01*
X1082879Y871968D02*
X1084532D01*
X1021500Y979336D02*
Y998500D01*
X917724Y548000D02*
Y588757D01*
X782949Y579500D02*
X784130D01*
X881453Y961696D02*
Y962062D01*
X1032858Y895020D02*
X1033782Y894096D01*
X1041138Y807201D02*
X1041724Y806615D01*
X1084532Y871968D02*
X1085000Y871500D01*
X1011164Y969000D02*
X1021500Y979336D01*
X1055500Y603228D02*
X1057728D01*
X1137500Y629850D02*
X1138000Y629350D01*
X917724Y547500D02*
X942724D01*
X787189Y586922D02*
Y592987D01*
X1031500Y987000D02*
Y998500D01*
X1032858Y825020D02*
X1034295D01*
X1040282Y814967D02*
X1044885Y808064D01*
X929000Y966000D02*
X932000Y969000D01*
X1085000Y871500D02*
X1088215D01*
X1057728Y603228D02*
X1069000Y614500D01*
X1065357Y629850D02*
X1065500Y629707D01*
X942724Y547500D02*
Y588757D01*
X785724Y594451D02*
X787189Y592987D01*
X1034295Y870020D02*
X1065268Y839047D01*
X934000Y958717D02*
X934025Y958741D01*
X1059082Y814994D02*
X1059447Y814480D01*
X1066082Y925000D02*
X1067082Y926000D01*
X929000Y958717D02*
Y966000D01*
X942724Y547500D02*
X966724D01*
X773500Y579500D02*
X782949D01*
X1034295Y825020D02*
X1047996Y811319D01*
X934025Y958741D02*
Y962525D01*
X1136603Y729800D02*
X1159000Y721500D01*
X932000Y969000D02*
X1011164D01*
X1065000Y925000D02*
X1066082D01*
X917224Y547500D02*
X917724Y548000D01*
X784130Y579500D02*
X785598Y580969D01*
X934025Y962525D02*
X937500Y966000D01*
X1032858Y820020D02*
X1035252Y819063D01*
X1032858Y805020D02*
X1035252Y804063D01*
X1123071Y629850D02*
X1123500Y629422D01*
X917161Y987661D02*
X921500Y992000D01*
X1038848Y910020D02*
X1044829Y916000D01*
X992224Y547500D02*
X1000724D01*
X785598Y580969D02*
Y585332D01*
X1010500Y966000D02*
X1031500Y987000D01*
X1035252Y819063D02*
X1038825Y816424D01*
X1092663Y783741D02*
X1092663Y782913D01*
X894000Y960154D02*
X894957Y961110D01*
X1032858Y905020D02*
X1034295D01*
X992224Y547500D02*
Y588757D01*
X785598Y585332D02*
X787189Y586922D01*
X937500Y966000D02*
X1010500D01*
X1048289Y810197D02*
Y810611D01*
X1062008Y816527D02*
X1062337Y816055D01*
X902984Y962701D02*
X921425Y981142D01*
X1034295Y905020D02*
X1035776Y906500D01*
X992224Y588757D02*
X992810Y589342D01*
X891500Y992493D02*
Y998500D01*
X1048289Y811026D02*
X1048289Y810612D01*
X1008130Y579500D02*
X1011189Y582559D01*
X1082884Y778862D02*
X1159000Y701500D01*
X980382Y977882D02*
X981086Y978586D01*
X1054346Y906293D02*
Y916000D01*
X992810Y589342D02*
X997500D01*
X864000Y964993D02*
X891500Y992493D01*
X1047996Y811319D02*
X1048289Y811026D01*
X997500Y579500D02*
X1006949D01*
X1096238Y777034D02*
X1121973Y751500D01*
X907052Y987661D02*
X917161D01*
X1055248Y905182D02*
X1056726Y903704D01*
X1000724Y547500D02*
X1001224Y548000D01*
X864000Y958717D02*
Y964993D01*
X1009724Y594743D02*
X1011189Y593278D01*
X1033044Y814834D02*
X1038166D01*
X1092663Y783741D02*
X1094474Y785552D01*
X923358Y979512D02*
X965512D01*
X1054265Y906187D02*
X1055248Y905204D01*
X997500Y589342D02*
X1006949D01*
X884000Y958717D02*
Y960154D01*
X1158516Y693560D02*
X1158705Y693372D01*
X1006949Y579500D02*
X1008130D01*
X1122967Y872220D02*
X1125748Y875002D01*
X1037114Y807201D02*
X1041138D01*
X913248Y984402D02*
X933402D01*
X1055248Y905182D02*
Y905204D01*
X1109000Y623272D02*
Y629493D01*
X764810Y547500D02*
X792224D01*
X931500Y988500D02*
Y998500D01*
X1159000Y693076D02*
X1159000Y691500D01*
X1011189Y582559D02*
Y593278D01*
X1137485Y731500D02*
X1159000D01*
X1089494Y870220D02*
X1123795D01*
X933402Y984402D02*
X941500Y992500D01*
X1056726Y903704D02*
X1059600D01*
X764224Y588757D02*
X764810Y589342D01*
X1020043Y755118D02*
X1020142Y755020D01*
X1158707Y693369D02*
X1159000Y693076D01*
X1001500Y976500D02*
Y998500D01*
X1149857Y700668D02*
X1152488Y688441D01*
X1123795Y870220D02*
X1127748Y874173D01*
X916772Y982772D02*
X935772D01*
X1054765Y876500D02*
Y886419D01*
X764810Y589342D02*
X773500D01*
X1009313Y755118D02*
X1020043D01*
X998000Y973000D02*
X1001500Y976500D01*
X1047772Y809680D02*
X1048289Y810197D01*
X1092663Y782913D02*
X1096913Y778663D01*
X1010500Y905000D02*
X1010510Y905010D01*
X1065500Y916000D02*
X1074442D01*
X894000Y958717D02*
Y960154D01*
X764224Y548086D02*
X764810Y547500D01*
X919000Y958717D02*
Y963500D01*
X1159000Y683960D02*
X1159000Y681500D01*
X1009215Y755216D02*
X1009313Y755118D01*
X1120421Y748240D02*
X1137485Y731500D01*
X1010510Y905010D02*
X1020132D01*
X904000Y960154D02*
X923358Y979512D01*
X1065000Y915500D02*
X1065500Y916000D01*
X773500Y589342D02*
X782949D01*
X1020137Y750015D02*
X1020142Y750020D01*
X1159000Y661500D02*
X1159028Y662325D01*
X928500Y973000D02*
X998000D01*
X1037360Y796955D02*
X1038565Y796650D01*
X1020132Y905010D02*
X1020142Y905020D01*
X889000Y960154D02*
X913248Y984402D01*
X950224Y632276D02*
Y640000D01*
X1032858Y830020D02*
X1034295D01*
X764224Y548086D02*
Y588757D01*
X919000Y963500D02*
X928500Y973000D01*
X1013515Y750015D02*
X1020137D01*
X1158498Y663287D02*
X1158733Y663052D01*
X1096913Y778663D02*
X1097741Y778663D01*
X1014000Y910000D02*
X1014010Y910010D01*
X929031Y986032D02*
X931500Y988500D01*
X1113264Y783055D02*
X1113319Y783110D01*
X793310Y589342D02*
X798500D01*
X910702Y997702D02*
X911500Y998500D01*
X1159028Y662325D02*
Y662342D01*
X1013510Y750010D02*
X1013515Y750015D01*
X1099420Y784944D02*
X1102901Y783055D01*
X1051000Y619630D02*
Y619728D01*
X1020132Y910010D02*
X1020142Y910020D01*
X884000Y960154D02*
X909878Y986032D01*
X1066565Y842784D02*
X1066858Y842491D01*
X792724Y588757D02*
X793310Y589342D01*
X910702Y994202D02*
Y997702D01*
X1015748Y745020D02*
X1020142D01*
X1159028Y662343D02*
Y662757D01*
X1060712Y815519D02*
X1061086Y814999D01*
X1014010Y910010D02*
X1020132D01*
X881453Y962062D02*
X907052Y987661D01*
X1066858Y842491D02*
X1067228Y837810D01*
X942224Y615776D02*
Y640000D01*
X798500Y589342D02*
X807949D01*
X881500Y965000D02*
X910702Y994202D01*
X1013517Y742789D02*
X1015748Y745020D01*
X1158735Y663050D02*
X1159028Y662757D01*
X1086144Y780212D02*
X1119746Y746610D01*
X1009298Y805113D02*
X1020048D01*
X1113961Y614508D02*
X1117914D01*
X924882Y977882D02*
X980382D01*
X1032858Y865020D02*
X1035252Y864063D01*
X818310Y589342D02*
X823500D01*
X874000Y963000D02*
X876000Y965000D01*
X1158233Y642267D02*
X1159000Y641500D01*
X1012524Y742789D02*
X1013517D01*
X1148793Y706012D02*
X1149857Y700668D01*
X1013510Y830010D02*
X1020132D01*
X1083462Y619728D02*
X1087232Y615959D01*
X954961Y981142D02*
X961500Y987681D01*
X1032858Y850020D02*
X1035252Y849063D01*
X817724Y588757D02*
X818310Y589342D01*
X876000Y965000D02*
X881500D01*
X1032858Y780020D02*
X1037403D01*
X1013510Y880010D02*
X1020132D01*
X1038692Y814308D02*
X1043353Y807290D01*
X1013510Y860010D02*
X1020132D01*
X1117961Y607692D02*
X1118397Y607256D01*
X1094500Y623272D02*
Y629565D01*
X921425Y981142D02*
X954961D01*
X1067228Y837810D02*
X1098409Y795013D01*
X823500Y589342D02*
X832949D01*
X874000Y958717D02*
Y963000D01*
X1032858Y775020D02*
X1034295D01*
X1013500Y880000D02*
X1013510Y880010D01*
X787000Y961696D02*
Y1003120D01*
X1135881Y728170D02*
X1152990Y711500D01*
X1055130Y615500D02*
X1055500D01*
X1009298Y855113D02*
X1020048D01*
X909878Y986032D02*
X929031D01*
X1035252Y854063D02*
X1036842Y851928D01*
X792224Y547500D02*
X792724Y548000D01*
X1032858Y770020D02*
X1034295D01*
X991500Y982500D02*
Y998500D01*
X1020132Y880010D02*
X1020142Y880020D01*
X787000Y1003120D02*
X791500Y1007620D01*
X1119746Y746610D02*
X1136603Y729800D01*
X1009298Y825113D02*
X1020048D01*
D15*
X1150500Y567176D02*
D03*
Y584500D02*
D03*
X1118333Y567176D02*
D03*
Y584500D02*
D03*
X1086167Y567176D02*
D03*
Y584500D02*
D03*
X1054000Y567176D02*
D03*
Y584500D02*
D03*
D16*
X810500Y602146D02*
D03*
Y607854D02*
D03*
X959500Y602646D02*
D03*
Y608354D02*
D03*
X885000Y601913D02*
D03*
Y607622D02*
D03*
X835500Y602000D02*
D03*
Y607709D02*
D03*
X1056000Y602646D02*
D03*
Y608354D02*
D03*
X985000Y608122D02*
D03*
Y602413D02*
D03*
X910000Y607622D02*
D03*
Y601913D02*
D03*
X1009500Y608354D02*
D03*
Y602646D02*
D03*
X1118000Y608354D02*
D03*
Y602646D02*
D03*
X1150500Y608354D02*
D03*
Y602646D02*
D03*
X1087000Y608354D02*
D03*
Y602646D02*
D03*
X786000Y608122D02*
D03*
Y602413D02*
D03*
X860000Y607854D02*
D03*
Y602146D02*
D03*
X935500Y608122D02*
D03*
Y602413D02*
D03*
D17*
X1036500Y629850D02*
D03*
X1050929D02*
D03*
X1065357D02*
D03*
X1079786D02*
D03*
X1094214D02*
D03*
X1108643D02*
D03*
X1123071D02*
D03*
X1137500D02*
D03*
Y636150D02*
D03*
X1123071D02*
D03*
X1108643D02*
D03*
X1094214D02*
D03*
X1079786D02*
D03*
X1065357D02*
D03*
X1050929D02*
D03*
X1036500D02*
D03*
D18*
X873000Y579500D02*
D03*
Y569658D02*
D03*
X882449Y579500D02*
D03*
Y569658D02*
D03*
X873000Y589342D02*
D03*
X882449D02*
D03*
X898000Y579500D02*
D03*
Y569658D02*
D03*
X907449Y579500D02*
D03*
Y569658D02*
D03*
X898000Y589342D02*
D03*
X907449D02*
D03*
X923000Y579500D02*
D03*
Y569658D02*
D03*
X932449Y579500D02*
D03*
Y569658D02*
D03*
X923000Y589342D02*
D03*
X932449D02*
D03*
X948000Y579500D02*
D03*
Y569658D02*
D03*
X957449Y579500D02*
D03*
Y569658D02*
D03*
X948000Y589342D02*
D03*
X957449D02*
D03*
X972500Y579500D02*
D03*
Y569658D02*
D03*
X981949Y579500D02*
D03*
Y569658D02*
D03*
X972500Y589342D02*
D03*
X981949D02*
D03*
X773500Y579500D02*
D03*
Y569658D02*
D03*
X782949Y579500D02*
D03*
Y569658D02*
D03*
X773500Y589342D02*
D03*
X782949D02*
D03*
X997500Y579500D02*
D03*
Y569658D02*
D03*
X1006949Y579500D02*
D03*
Y569658D02*
D03*
X997500Y589342D02*
D03*
X1006949D02*
D03*
X798500Y569658D02*
D03*
X807949D02*
D03*
X798500Y579500D02*
D03*
X807949D02*
D03*
X798500Y589342D02*
D03*
X807949D02*
D03*
X823500Y579500D02*
D03*
Y569658D02*
D03*
X832949Y579500D02*
D03*
Y569658D02*
D03*
X823500Y589342D02*
D03*
X832949D02*
D03*
X848500Y579500D02*
D03*
Y569658D02*
D03*
X857949Y579500D02*
D03*
Y569658D02*
D03*
X848500Y589342D02*
D03*
X857949D02*
D03*
D19*
X1081354Y872000D02*
D03*
X1075646D02*
D03*
X1081354Y881500D02*
D03*
X1075646D02*
D03*
X1054354Y886500D02*
D03*
X1048646D02*
D03*
D20*
X1075228Y906000D02*
D03*
X1078772D02*
D03*
X1049228Y906500D02*
D03*
X1052772D02*
D03*
X1050228Y876500D02*
D03*
X1053772D02*
D03*
X1049228Y896000D02*
D03*
X1052772D02*
D03*
X1075228Y926000D02*
D03*
X1078772D02*
D03*
X1075228Y916500D02*
D03*
X1078772D02*
D03*
X1049228Y916000D02*
D03*
X1052772D02*
D03*
D21*
X1123500Y619728D02*
D03*
Y623272D02*
D03*
X1065500Y619728D02*
D03*
Y623272D02*
D03*
X1109000Y619728D02*
D03*
Y623272D02*
D03*
X1051000Y619728D02*
D03*
Y623272D02*
D03*
X1036500Y619728D02*
D03*
Y623272D02*
D03*
X1094500Y619728D02*
D03*
Y623272D02*
D03*
X1138000Y619728D02*
D03*
Y623272D02*
D03*
X1080000Y619728D02*
D03*
Y623272D02*
D03*
D22*
X804000Y946000D02*
D03*
Y958717D02*
D03*
X1014000Y946000D02*
D03*
Y958717D02*
D03*
X1009000Y946000D02*
D03*
Y958717D02*
D03*
X1004000Y946000D02*
D03*
Y958717D02*
D03*
X999000Y946000D02*
D03*
Y958717D02*
D03*
X994000Y946000D02*
D03*
Y958717D02*
D03*
X989000Y946000D02*
D03*
Y958717D02*
D03*
X984000Y946000D02*
D03*
Y958717D02*
D03*
X979000Y946000D02*
D03*
Y958717D02*
D03*
X974000Y946000D02*
D03*
Y958717D02*
D03*
X969000Y946000D02*
D03*
Y958717D02*
D03*
X964000Y946000D02*
D03*
Y958717D02*
D03*
X959000Y946000D02*
D03*
Y958717D02*
D03*
X954000Y946000D02*
D03*
Y958717D02*
D03*
X949000Y946000D02*
D03*
Y958717D02*
D03*
X944000Y946000D02*
D03*
Y958717D02*
D03*
X939000D02*
D03*
X934000D02*
D03*
X929000D02*
D03*
X924000D02*
D03*
X919000D02*
D03*
X914000D02*
D03*
X909000D02*
D03*
X904000D02*
D03*
X899000D02*
D03*
X894000D02*
D03*
X889000D02*
D03*
X884000D02*
D03*
X879000D02*
D03*
X874000D02*
D03*
X869000D02*
D03*
X864000D02*
D03*
X859000D02*
D03*
X854000D02*
D03*
X849000D02*
D03*
X844000D02*
D03*
X839000D02*
D03*
X834000D02*
D03*
X829000D02*
D03*
X824000Y946000D02*
D03*
Y958717D02*
D03*
X819000Y946000D02*
D03*
Y958717D02*
D03*
X814000Y946000D02*
D03*
Y958717D02*
D03*
X809000Y946000D02*
D03*
Y958717D02*
D03*
X784000Y946000D02*
D03*
X789000Y958717D02*
D03*
Y946000D02*
D03*
X784000Y958717D02*
D03*
X794000D02*
D03*
Y946000D02*
D03*
X769000Y958717D02*
D03*
Y946000D02*
D03*
X774000D02*
D03*
X779000D02*
D03*
X774000Y958717D02*
D03*
X779000D02*
D03*
X799000D02*
D03*
Y946000D02*
D03*
X779000Y718717D02*
D03*
Y706000D02*
D03*
X784000Y718717D02*
D03*
Y706000D02*
D03*
X789000Y718717D02*
D03*
Y706000D02*
D03*
X794000Y718717D02*
D03*
Y706000D02*
D03*
X799000Y718717D02*
D03*
Y706000D02*
D03*
X804000Y718717D02*
D03*
Y706000D02*
D03*
X809000Y718717D02*
D03*
Y706000D02*
D03*
X814000Y718717D02*
D03*
Y706000D02*
D03*
X819000Y718717D02*
D03*
Y706000D02*
D03*
X824000Y718717D02*
D03*
Y706000D02*
D03*
X829000Y718717D02*
D03*
Y706000D02*
D03*
X834000Y718717D02*
D03*
Y706000D02*
D03*
X839000Y718717D02*
D03*
Y706000D02*
D03*
X844000Y718717D02*
D03*
Y706000D02*
D03*
X849000Y718717D02*
D03*
Y706000D02*
D03*
X854000Y718717D02*
D03*
Y706000D02*
D03*
X859000Y718717D02*
D03*
Y706000D02*
D03*
X864000Y718717D02*
D03*
Y706000D02*
D03*
X869000Y718717D02*
D03*
Y706000D02*
D03*
X874000Y718717D02*
D03*
Y706000D02*
D03*
X879000Y718717D02*
D03*
Y706000D02*
D03*
X884000Y718717D02*
D03*
Y706000D02*
D03*
X889000Y718717D02*
D03*
Y706000D02*
D03*
X894000Y718717D02*
D03*
Y706000D02*
D03*
X899000Y718717D02*
D03*
Y706000D02*
D03*
X904000Y718717D02*
D03*
Y706000D02*
D03*
X909000Y718717D02*
D03*
Y706000D02*
D03*
X914000Y718717D02*
D03*
Y706000D02*
D03*
X919000Y718717D02*
D03*
Y706000D02*
D03*
X924000Y718717D02*
D03*
Y706000D02*
D03*
X929000Y718717D02*
D03*
Y706000D02*
D03*
X934000Y718717D02*
D03*
Y706000D02*
D03*
X939000Y718717D02*
D03*
Y706000D02*
D03*
X944000Y718717D02*
D03*
Y706000D02*
D03*
X949000Y718717D02*
D03*
Y706000D02*
D03*
X954000Y718717D02*
D03*
Y706000D02*
D03*
X959000Y718717D02*
D03*
Y706000D02*
D03*
X964000Y718717D02*
D03*
Y706000D02*
D03*
X974000Y718717D02*
D03*
Y706000D02*
D03*
X979000Y718717D02*
D03*
Y706000D02*
D03*
X984000Y718717D02*
D03*
Y706000D02*
D03*
X989000Y718717D02*
D03*
Y706000D02*
D03*
X994000Y718717D02*
D03*
Y706000D02*
D03*
X999000Y718717D02*
D03*
Y706000D02*
D03*
X1004000Y718717D02*
D03*
Y706000D02*
D03*
X1009000Y718717D02*
D03*
Y706000D02*
D03*
X1014000Y718717D02*
D03*
Y706000D02*
D03*
X774000D02*
D03*
X769000D02*
D03*
Y718717D02*
D03*
X774000D02*
D03*
X969000D02*
D03*
Y706000D02*
D03*
X939000Y946000D02*
D03*
X934000D02*
D03*
X929000D02*
D03*
X924000D02*
D03*
X919000D02*
D03*
X914000D02*
D03*
X909000D02*
D03*
X904000D02*
D03*
X899000D02*
D03*
X894000D02*
D03*
X889000D02*
D03*
X884000D02*
D03*
X879000D02*
D03*
X874000D02*
D03*
X869000D02*
D03*
X864000D02*
D03*
X859000D02*
D03*
X854000D02*
D03*
X849000D02*
D03*
X844000D02*
D03*
X839000D02*
D03*
X834000D02*
D03*
X829000D02*
D03*
D23*
X1113319Y813425D02*
D03*
Y804764D02*
D03*
Y796102D02*
D03*
Y787441D02*
D03*
Y783110D02*
D03*
Y809095D02*
D03*
Y800433D02*
D03*
Y779370D02*
D03*
Y791772D02*
D03*
D24*
X1172768Y828780D02*
D03*
D25*
X1170992Y775630D02*
D03*
D26*
X1154653D02*
D03*
D27*
X1130248D02*
D03*
X1113319Y819528D02*
D03*
D28*
X1020142Y875020D02*
D03*
Y885020D02*
D03*
X1032858Y875020D02*
D03*
Y880020D02*
D03*
X1020142D02*
D03*
X1032858Y885020D02*
D03*
X1020142Y775020D02*
D03*
X1032858Y815020D02*
D03*
X1020142Y810020D02*
D03*
Y815020D02*
D03*
X1032858Y845020D02*
D03*
X1020142D02*
D03*
X1032858Y810020D02*
D03*
Y820020D02*
D03*
X1020142D02*
D03*
Y840020D02*
D03*
X1032858D02*
D03*
Y850020D02*
D03*
Y855020D02*
D03*
X1020142Y835020D02*
D03*
Y865020D02*
D03*
X1032858Y835020D02*
D03*
X1020142Y825020D02*
D03*
Y850020D02*
D03*
Y855020D02*
D03*
Y860020D02*
D03*
Y870020D02*
D03*
X1032858Y825020D02*
D03*
Y860020D02*
D03*
X1020142Y830020D02*
D03*
X1032858Y800020D02*
D03*
Y805020D02*
D03*
Y830020D02*
D03*
X1020142Y800020D02*
D03*
Y805020D02*
D03*
X1032858Y870020D02*
D03*
Y955020D02*
D03*
X1020142D02*
D03*
X1032858Y950020D02*
D03*
X1020142D02*
D03*
X1032858Y945020D02*
D03*
X1020142D02*
D03*
X1032858Y940020D02*
D03*
X1020142D02*
D03*
X1032858Y935020D02*
D03*
X1020142D02*
D03*
X1032858Y930020D02*
D03*
X1020142D02*
D03*
X1032858Y925020D02*
D03*
X1020142D02*
D03*
X1032858Y920020D02*
D03*
X1020142D02*
D03*
X1032858Y915020D02*
D03*
X1020142D02*
D03*
Y910020D02*
D03*
Y905020D02*
D03*
Y900020D02*
D03*
X1032858Y895020D02*
D03*
X1020142D02*
D03*
Y890020D02*
D03*
X1032858Y795020D02*
D03*
X1020142D02*
D03*
X1032858Y790020D02*
D03*
X1020142D02*
D03*
X1032858Y785020D02*
D03*
X1020142D02*
D03*
X1032858Y780020D02*
D03*
X1020142D02*
D03*
X1032858Y775020D02*
D03*
Y770020D02*
D03*
X1020142D02*
D03*
X1032858Y765020D02*
D03*
X1020142D02*
D03*
X1032858Y760020D02*
D03*
X1020142D02*
D03*
X1032858Y755020D02*
D03*
X1020142D02*
D03*
Y750020D02*
D03*
X1032858Y745020D02*
D03*
X1020142D02*
D03*
X1032858Y740020D02*
D03*
X1020142D02*
D03*
X1032858Y735020D02*
D03*
X1020142D02*
D03*
X1032858Y730020D02*
D03*
X1020142D02*
D03*
X1032858Y725020D02*
D03*
X1020142D02*
D03*
X1032858Y720020D02*
D03*
X1020142D02*
D03*
X1032858Y715020D02*
D03*
X1020142D02*
D03*
X1032858Y710020D02*
D03*
X1020142D02*
D03*
X1032858Y865020D02*
D03*
Y750020D02*
D03*
Y905020D02*
D03*
Y910020D02*
D03*
Y900020D02*
D03*
Y890020D02*
D03*
D50*
X1111000Y885992D02*
D03*
X1121000Y881484D02*
D03*
Y890500D02*
D03*
Y899516D02*
D03*
Y908532D02*
D03*
Y917547D02*
D03*
X1111000Y895008D02*
D03*
Y904024D02*
D03*
Y913039D02*
D03*
Y922055D02*
D03*
X1101000Y881484D02*
D03*
Y890500D02*
D03*
Y899516D02*
D03*
Y908532D02*
D03*
D51*
X1111000Y851307D02*
D03*
Y949693D02*
D03*
D52*
X1101000Y917547D02*
D03*
D53*
X1011480Y952358D02*
D03*
X771520D02*
D03*
Y712358D02*
D03*
X1011480D02*
D03*
X1026500Y952500D02*
D03*
Y712539D02*
D03*
D54*
X1159000Y641500D02*
D03*
Y661500D02*
D03*
Y671500D02*
D03*
Y681500D02*
D03*
Y691500D02*
D03*
Y701500D02*
D03*
Y711500D02*
D03*
Y721500D02*
D03*
Y731500D02*
D03*
Y741500D02*
D03*
Y751500D02*
D03*
Y761500D02*
D03*
X1169000Y641500D02*
D03*
Y661500D02*
D03*
Y671500D02*
D03*
Y681500D02*
D03*
Y701500D02*
D03*
Y711500D02*
D03*
Y721500D02*
D03*
Y731500D02*
D03*
Y741500D02*
D03*
Y751500D02*
D03*
Y761500D02*
D03*
Y691500D02*
D03*
Y631500D02*
D03*
Y651500D02*
D03*
X1159000D02*
D03*
D55*
Y631500D02*
D03*
D56*
X1061500Y998500D02*
D03*
Y1008500D02*
D03*
X1051500Y998500D02*
D03*
Y1008500D02*
D03*
X1041500Y998500D02*
D03*
Y1008500D02*
D03*
X1031500Y998500D02*
D03*
Y1008500D02*
D03*
X1021500Y998500D02*
D03*
Y1008500D02*
D03*
X1011500Y998500D02*
D03*
Y1008500D02*
D03*
X1001500Y998500D02*
D03*
Y1008500D02*
D03*
X991500Y998500D02*
D03*
Y1008500D02*
D03*
X981500Y998500D02*
D03*
Y1008500D02*
D03*
X971500Y998500D02*
D03*
Y1008500D02*
D03*
X961500Y998500D02*
D03*
Y1008500D02*
D03*
X951500Y998500D02*
D03*
Y1008500D02*
D03*
X941500Y998500D02*
D03*
Y1008500D02*
D03*
X931500Y998500D02*
D03*
Y1008500D02*
D03*
X921500Y998500D02*
D03*
Y1008500D02*
D03*
X911500Y998500D02*
D03*
Y1008500D02*
D03*
X901500Y998500D02*
D03*
Y1008500D02*
D03*
X891500Y998500D02*
D03*
Y1008500D02*
D03*
X881500Y998500D02*
D03*
Y1008500D02*
D03*
X871500Y998500D02*
D03*
Y1008500D02*
D03*
X861500Y998500D02*
D03*
Y1008500D02*
D03*
X851500Y998500D02*
D03*
Y1008500D02*
D03*
X841500Y998500D02*
D03*
Y1008500D02*
D03*
X831500Y998500D02*
D03*
Y1008500D02*
D03*
X821500Y998500D02*
D03*
Y1008500D02*
D03*
X811500Y998500D02*
D03*
Y1008500D02*
D03*
X801500Y998500D02*
D03*
Y1008500D02*
D03*
X791500Y998500D02*
D03*
Y1008500D02*
D03*
X781500Y998500D02*
D03*
Y1008500D02*
D03*
X771500Y998500D02*
D03*
Y1008500D02*
D03*
D57*
X810500Y616000D02*
D03*
X786000D02*
D03*
X959500Y615500D02*
D03*
X885000D02*
D03*
X859109Y618228D02*
D03*
X835500Y614587D02*
D03*
X910000Y615500D02*
D03*
X935500D02*
D03*
X985000D02*
D03*
X1009500Y616000D02*
D03*
X1150000Y615000D02*
D03*
X1065000Y925000D02*
D03*
X950224Y640000D02*
D03*
X1065000Y915500D02*
D03*
X1012524Y742789D02*
D03*
X1013472Y849972D02*
D03*
X1013500Y880000D02*
D03*
X1099420Y784944D02*
D03*
X1009205Y875207D02*
D03*
X1010407Y764024D02*
D03*
X1102000Y796500D02*
D03*
X1013826Y759601D02*
D03*
X1055500Y615500D02*
D03*
X1009205Y845207D02*
D03*
X804000Y935000D02*
D03*
X1117961Y614461D02*
D03*
X1009205Y795207D02*
D03*
X1010500Y905000D02*
D03*
X1097000Y804000D02*
D03*
X885724Y644159D02*
D03*
X1014000Y910000D02*
D03*
X1101000Y827000D02*
D03*
X1009205Y835207D02*
D03*
X1087232Y615959D02*
D03*
X1009205Y805207D02*
D03*
X767500Y699000D02*
D03*
X1102000Y812000D02*
D03*
X1013500Y830000D02*
D03*
X766500Y725500D02*
D03*
X1009205Y885207D02*
D03*
X1013500Y860000D02*
D03*
X775500Y699000D02*
D03*
X1013500Y810000D02*
D03*
X1009205Y855207D02*
D03*
X774000Y725500D02*
D03*
X1010929Y894876D02*
D03*
X1009205Y825207D02*
D03*
X767000Y938500D02*
D03*
Y965500D02*
D03*
X894224Y640000D02*
D03*
X1013500Y840000D02*
D03*
X774000Y939217D02*
D03*
X1013500Y800000D02*
D03*
Y820000D02*
D03*
X774000Y965500D02*
D03*
X1014295Y890272D02*
D03*
X1009205Y815207D02*
D03*
X780500Y965500D02*
D03*
X1043500Y756500D02*
D03*
X1009205Y865207D02*
D03*
X781000Y938500D02*
D03*
X1041000Y781500D02*
D03*
X1013500Y870000D02*
D03*
X799000Y939217D02*
D03*
X1013837Y769683D02*
D03*
X1009215Y755216D02*
D03*
X799000Y965283D02*
D03*
X1009215Y775216D02*
D03*
X1013926Y900074D02*
D03*
X1001224Y548000D02*
D03*
X1043000Y774000D02*
D03*
X926224Y640000D02*
D03*
X969000Y699000D02*
D03*
X1042591Y747500D02*
D03*
X902224Y640000D02*
D03*
X969039Y724961D02*
D03*
X1043500Y766000D02*
D03*
X934224Y640000D02*
D03*
X1065000Y905000D02*
D03*
X1049000Y770000D02*
D03*
X918224Y640000D02*
D03*
X1048000Y761000D02*
D03*
X910224Y640000D02*
D03*
X1048500Y752000D02*
D03*
X942224Y640000D02*
D03*
X1068000Y881500D02*
D03*
X958224Y640000D02*
D03*
X1068500Y872000D02*
D03*
X1013510Y750010D02*
D03*
M02*
