G04*
G04 #@! TF.GenerationSoftware,Altium Limited,Altium Designer,26.3.0 (6)*
G04*
G04 Layer_Color=8388736*
%FSLAX25Y25*%
%MOIN*%
G70*
G04*
G04 #@! TF.SameCoordinates,3252148B-6E92-4FCE-BCB3-50AFE4F8E010*
G04*
G04*
G04 #@! TF.FilePolarity,Negative*
G04*
G01*
G75*
%ADD18R,0.06299X0.03937*%
%ADD29R,0.08674X0.06115*%
%ADD30R,0.04343X0.04540*%
%ADD31R,0.04540X0.04343*%
%ADD32R,0.04540X0.04343*%
%ADD33R,0.03162X0.02965*%
%ADD34R,0.02965X0.03162*%
%ADD35R,0.03713X0.06587*%
%ADD36R,0.05524X0.03556*%
%ADD37R,0.08280X0.05918*%
%ADD38R,0.11824X0.04737*%
%ADD39R,0.03950X0.04737*%
%ADD40R,0.05524X0.04737*%
%ADD41R,0.06587X0.03713*%
%ADD42C,0.07296*%
%ADD43C,0.19698*%
%ADD44R,0.07296X0.07296*%
%ADD45C,0.02257*%
%ADD46C,0.06902*%
%ADD47R,0.06902X0.06902*%
%ADD48C,0.06115*%
%ADD49C,0.05800*%
D18*
X873000Y579500D02*
D03*
Y569658D02*
D03*
X882449Y579500D02*
D03*
Y569658D02*
D03*
X873000Y589342D02*
D03*
X882449D02*
D03*
X898000Y579500D02*
D03*
Y569658D02*
D03*
X907449Y579500D02*
D03*
Y569658D02*
D03*
X898000Y589342D02*
D03*
X907449D02*
D03*
X923000Y579500D02*
D03*
Y569658D02*
D03*
X932449Y579500D02*
D03*
Y569658D02*
D03*
X923000Y589342D02*
D03*
X932449D02*
D03*
X948000Y579500D02*
D03*
Y569658D02*
D03*
X957449Y579500D02*
D03*
Y569658D02*
D03*
X948000Y589342D02*
D03*
X957449D02*
D03*
X972500Y579500D02*
D03*
Y569658D02*
D03*
X981949Y579500D02*
D03*
Y569658D02*
D03*
X972500Y589342D02*
D03*
X981949D02*
D03*
X773500Y579500D02*
D03*
Y569658D02*
D03*
X782949Y579500D02*
D03*
Y569658D02*
D03*
X773500Y589342D02*
D03*
X782949D02*
D03*
X997500Y579500D02*
D03*
Y569658D02*
D03*
X1006949Y579500D02*
D03*
Y569658D02*
D03*
X997500Y589342D02*
D03*
X1006949D02*
D03*
X798500Y569658D02*
D03*
X807949D02*
D03*
X798500Y579500D02*
D03*
X807949D02*
D03*
X798500Y589342D02*
D03*
X807949D02*
D03*
X823500Y579500D02*
D03*
Y569658D02*
D03*
X832949Y579500D02*
D03*
Y569658D02*
D03*
X823500Y589342D02*
D03*
X832949D02*
D03*
X848500Y579500D02*
D03*
Y569658D02*
D03*
X857949Y579500D02*
D03*
Y569658D02*
D03*
X848500Y589342D02*
D03*
X857949D02*
D03*
D29*
X1150500Y567176D02*
D03*
Y584500D02*
D03*
X1118333Y567176D02*
D03*
Y584500D02*
D03*
X1086167Y567176D02*
D03*
Y584500D02*
D03*
X1054000Y567176D02*
D03*
Y584500D02*
D03*
D30*
X810500Y602146D02*
D03*
Y607854D02*
D03*
X959500Y602646D02*
D03*
Y608354D02*
D03*
X885000Y601913D02*
D03*
Y607622D02*
D03*
X835500Y602000D02*
D03*
Y607709D02*
D03*
X1056000Y602646D02*
D03*
Y608354D02*
D03*
X985000Y608122D02*
D03*
Y602413D02*
D03*
X910000Y607622D02*
D03*
Y601913D02*
D03*
X1009500Y608354D02*
D03*
Y602646D02*
D03*
X1118000Y608354D02*
D03*
Y602646D02*
D03*
X1150500Y608354D02*
D03*
Y602646D02*
D03*
X1087000Y608354D02*
D03*
Y602646D02*
D03*
X786000Y608122D02*
D03*
Y602413D02*
D03*
X860000Y607854D02*
D03*
Y602146D02*
D03*
X935500Y608122D02*
D03*
Y602413D02*
D03*
D31*
X1036500Y629850D02*
D03*
X1050929D02*
D03*
X1065357D02*
D03*
X1079786D02*
D03*
X1094214D02*
D03*
X1108643D02*
D03*
X1123071D02*
D03*
X1137500D02*
D03*
Y636150D02*
D03*
X1123071D02*
D03*
X1108643D02*
D03*
X1094214D02*
D03*
X1079786D02*
D03*
X1065357D02*
D03*
X1050929D02*
D03*
X1036500D02*
D03*
D32*
X1081354Y872000D02*
D03*
X1075646D02*
D03*
X1081354Y881500D02*
D03*
X1075646D02*
D03*
X1054354Y886500D02*
D03*
X1048646D02*
D03*
D33*
X1075228Y906000D02*
D03*
X1078772D02*
D03*
X1049228Y906500D02*
D03*
X1052772D02*
D03*
X1050228Y876500D02*
D03*
X1053772D02*
D03*
X1049228Y896000D02*
D03*
X1052772D02*
D03*
X1075228Y926000D02*
D03*
X1078772D02*
D03*
X1075228Y916500D02*
D03*
X1078772D02*
D03*
X1049228Y916000D02*
D03*
X1052772D02*
D03*
D34*
X1123500Y619728D02*
D03*
Y623272D02*
D03*
X1065500Y619728D02*
D03*
Y623272D02*
D03*
X1109000Y619728D02*
D03*
Y623272D02*
D03*
X1051000Y619728D02*
D03*
Y623272D02*
D03*
X1036500Y619728D02*
D03*
Y623272D02*
D03*
X1094500Y619728D02*
D03*
Y623272D02*
D03*
X1138000Y619728D02*
D03*
Y623272D02*
D03*
X1080000Y619728D02*
D03*
Y623272D02*
D03*
D35*
X804000Y946000D02*
D03*
Y958717D02*
D03*
X1014000Y946000D02*
D03*
Y958717D02*
D03*
X1009000Y946000D02*
D03*
Y958717D02*
D03*
X1004000Y946000D02*
D03*
Y958717D02*
D03*
X999000Y946000D02*
D03*
Y958717D02*
D03*
X994000Y946000D02*
D03*
Y958717D02*
D03*
X989000Y946000D02*
D03*
Y958717D02*
D03*
X984000Y946000D02*
D03*
Y958717D02*
D03*
X979000Y946000D02*
D03*
Y958717D02*
D03*
X974000Y946000D02*
D03*
Y958717D02*
D03*
X969000Y946000D02*
D03*
Y958717D02*
D03*
X964000Y946000D02*
D03*
Y958717D02*
D03*
X959000Y946000D02*
D03*
Y958717D02*
D03*
X954000Y946000D02*
D03*
Y958717D02*
D03*
X949000Y946000D02*
D03*
Y958717D02*
D03*
X944000Y946000D02*
D03*
Y958717D02*
D03*
X939000D02*
D03*
X934000D02*
D03*
X929000D02*
D03*
X924000D02*
D03*
X919000D02*
D03*
X914000D02*
D03*
X909000D02*
D03*
X904000D02*
D03*
X899000D02*
D03*
X894000D02*
D03*
X889000D02*
D03*
X884000D02*
D03*
X879000D02*
D03*
X874000D02*
D03*
X869000D02*
D03*
X864000D02*
D03*
X859000D02*
D03*
X854000D02*
D03*
X849000D02*
D03*
X844000D02*
D03*
X839000D02*
D03*
X834000D02*
D03*
X829000D02*
D03*
X824000Y946000D02*
D03*
Y958717D02*
D03*
X819000Y946000D02*
D03*
Y958717D02*
D03*
X814000Y946000D02*
D03*
Y958717D02*
D03*
X809000Y946000D02*
D03*
Y958717D02*
D03*
X784000Y946000D02*
D03*
X789000Y958717D02*
D03*
Y946000D02*
D03*
X784000Y958717D02*
D03*
X794000D02*
D03*
Y946000D02*
D03*
X769000Y958717D02*
D03*
Y946000D02*
D03*
X774000D02*
D03*
X779000D02*
D03*
X774000Y958717D02*
D03*
X779000D02*
D03*
X799000D02*
D03*
Y946000D02*
D03*
X779000Y718717D02*
D03*
Y706000D02*
D03*
X784000Y718717D02*
D03*
Y706000D02*
D03*
X789000Y718717D02*
D03*
Y706000D02*
D03*
X794000Y718717D02*
D03*
Y706000D02*
D03*
X799000Y718717D02*
D03*
Y706000D02*
D03*
X804000Y718717D02*
D03*
Y706000D02*
D03*
X809000Y718717D02*
D03*
Y706000D02*
D03*
X814000Y718717D02*
D03*
Y706000D02*
D03*
X819000Y718717D02*
D03*
Y706000D02*
D03*
X824000Y718717D02*
D03*
Y706000D02*
D03*
X829000Y718717D02*
D03*
Y706000D02*
D03*
X834000Y718717D02*
D03*
Y706000D02*
D03*
X839000Y718717D02*
D03*
Y706000D02*
D03*
X844000Y718717D02*
D03*
Y706000D02*
D03*
X849000Y718717D02*
D03*
Y706000D02*
D03*
X854000Y718717D02*
D03*
Y706000D02*
D03*
X859000Y718717D02*
D03*
Y706000D02*
D03*
X864000Y718717D02*
D03*
Y706000D02*
D03*
X869000Y718717D02*
D03*
Y706000D02*
D03*
X874000Y718717D02*
D03*
Y706000D02*
D03*
X879000Y718717D02*
D03*
Y706000D02*
D03*
X884000Y718717D02*
D03*
Y706000D02*
D03*
X889000Y718717D02*
D03*
Y706000D02*
D03*
X894000Y718717D02*
D03*
Y706000D02*
D03*
X899000Y718717D02*
D03*
Y706000D02*
D03*
X904000Y718717D02*
D03*
Y706000D02*
D03*
X909000Y718717D02*
D03*
Y706000D02*
D03*
X914000Y718717D02*
D03*
Y706000D02*
D03*
X919000Y718717D02*
D03*
Y706000D02*
D03*
X924000Y718717D02*
D03*
Y706000D02*
D03*
X929000Y718717D02*
D03*
Y706000D02*
D03*
X934000Y718717D02*
D03*
Y706000D02*
D03*
X939000Y718717D02*
D03*
Y706000D02*
D03*
X944000Y718717D02*
D03*
Y706000D02*
D03*
X949000Y718717D02*
D03*
Y706000D02*
D03*
X954000Y718717D02*
D03*
Y706000D02*
D03*
X959000Y718717D02*
D03*
Y706000D02*
D03*
X964000Y718717D02*
D03*
Y706000D02*
D03*
X974000Y718717D02*
D03*
Y706000D02*
D03*
X979000Y718717D02*
D03*
Y706000D02*
D03*
X984000Y718717D02*
D03*
Y706000D02*
D03*
X989000Y718717D02*
D03*
Y706000D02*
D03*
X994000Y718717D02*
D03*
Y706000D02*
D03*
X999000Y718717D02*
D03*
Y706000D02*
D03*
X1004000Y718717D02*
D03*
Y706000D02*
D03*
X1009000Y718717D02*
D03*
Y706000D02*
D03*
X1014000Y718717D02*
D03*
Y706000D02*
D03*
X774000D02*
D03*
X769000D02*
D03*
Y718717D02*
D03*
X774000D02*
D03*
X969000D02*
D03*
Y706000D02*
D03*
X939000Y946000D02*
D03*
X934000D02*
D03*
X929000D02*
D03*
X924000D02*
D03*
X919000D02*
D03*
X914000D02*
D03*
X909000D02*
D03*
X904000D02*
D03*
X899000D02*
D03*
X894000D02*
D03*
X889000D02*
D03*
X884000D02*
D03*
X879000D02*
D03*
X874000D02*
D03*
X869000D02*
D03*
X864000D02*
D03*
X859000D02*
D03*
X854000D02*
D03*
X849000D02*
D03*
X844000D02*
D03*
X839000D02*
D03*
X834000D02*
D03*
X829000D02*
D03*
D36*
X1113319Y813425D02*
D03*
Y804764D02*
D03*
Y796102D02*
D03*
Y787441D02*
D03*
Y783110D02*
D03*
Y809095D02*
D03*
Y800433D02*
D03*
Y779370D02*
D03*
Y791772D02*
D03*
D37*
X1172768Y828780D02*
D03*
D38*
X1170992Y775630D02*
D03*
D39*
X1154653D02*
D03*
D40*
X1130248D02*
D03*
X1113319Y819528D02*
D03*
D41*
X1020142Y875020D02*
D03*
Y885020D02*
D03*
X1032858Y875020D02*
D03*
Y880020D02*
D03*
X1020142D02*
D03*
X1032858Y885020D02*
D03*
X1020142Y775020D02*
D03*
X1032858Y815020D02*
D03*
X1020142Y810020D02*
D03*
Y815020D02*
D03*
X1032858Y845020D02*
D03*
X1020142D02*
D03*
X1032858Y810020D02*
D03*
Y820020D02*
D03*
X1020142D02*
D03*
Y840020D02*
D03*
X1032858D02*
D03*
Y850020D02*
D03*
Y855020D02*
D03*
X1020142Y835020D02*
D03*
Y865020D02*
D03*
X1032858Y835020D02*
D03*
X1020142Y825020D02*
D03*
Y850020D02*
D03*
Y855020D02*
D03*
Y860020D02*
D03*
Y870020D02*
D03*
X1032858Y825020D02*
D03*
Y860020D02*
D03*
X1020142Y830020D02*
D03*
X1032858Y800020D02*
D03*
Y805020D02*
D03*
Y830020D02*
D03*
X1020142Y800020D02*
D03*
Y805020D02*
D03*
X1032858Y870020D02*
D03*
Y955020D02*
D03*
X1020142D02*
D03*
X1032858Y950020D02*
D03*
X1020142D02*
D03*
X1032858Y945020D02*
D03*
X1020142D02*
D03*
X1032858Y940020D02*
D03*
X1020142D02*
D03*
X1032858Y935020D02*
D03*
X1020142D02*
D03*
X1032858Y930020D02*
D03*
X1020142D02*
D03*
X1032858Y925020D02*
D03*
X1020142D02*
D03*
X1032858Y920020D02*
D03*
X1020142D02*
D03*
X1032858Y915020D02*
D03*
X1020142D02*
D03*
Y910020D02*
D03*
Y905020D02*
D03*
Y900020D02*
D03*
X1032858Y895020D02*
D03*
X1020142D02*
D03*
Y890020D02*
D03*
X1032858Y795020D02*
D03*
X1020142D02*
D03*
X1032858Y790020D02*
D03*
X1020142D02*
D03*
X1032858Y785020D02*
D03*
X1020142D02*
D03*
X1032858Y780020D02*
D03*
X1020142D02*
D03*
X1032858Y775020D02*
D03*
Y770020D02*
D03*
X1020142D02*
D03*
X1032858Y765020D02*
D03*
X1020142D02*
D03*
X1032858Y760020D02*
D03*
X1020142D02*
D03*
X1032858Y755020D02*
D03*
X1020142D02*
D03*
Y750020D02*
D03*
X1032858Y745020D02*
D03*
X1020142D02*
D03*
X1032858Y740020D02*
D03*
X1020142D02*
D03*
X1032858Y735020D02*
D03*
X1020142D02*
D03*
X1032858Y730020D02*
D03*
X1020142D02*
D03*
X1032858Y725020D02*
D03*
X1020142D02*
D03*
X1032858Y720020D02*
D03*
X1020142D02*
D03*
X1032858Y715020D02*
D03*
X1020142D02*
D03*
X1032858Y710020D02*
D03*
X1020142D02*
D03*
X1032858Y865020D02*
D03*
Y750020D02*
D03*
Y905020D02*
D03*
Y910020D02*
D03*
Y900020D02*
D03*
Y890020D02*
D03*
D42*
X1111000Y885992D02*
D03*
X1121000Y881484D02*
D03*
Y890500D02*
D03*
Y899516D02*
D03*
Y908532D02*
D03*
Y917547D02*
D03*
X1111000Y895008D02*
D03*
Y904024D02*
D03*
Y913039D02*
D03*
Y922055D02*
D03*
X1101000Y881484D02*
D03*
Y890500D02*
D03*
Y899516D02*
D03*
Y908532D02*
D03*
D43*
X1111000Y851307D02*
D03*
Y949693D02*
D03*
D44*
X1101000Y917547D02*
D03*
D45*
X1011480Y952358D02*
D03*
X771520D02*
D03*
Y712358D02*
D03*
X1011480D02*
D03*
X1026500Y952500D02*
D03*
Y712539D02*
D03*
D46*
X1159000Y641500D02*
D03*
Y661500D02*
D03*
Y671500D02*
D03*
Y681500D02*
D03*
Y691500D02*
D03*
Y701500D02*
D03*
Y711500D02*
D03*
Y721500D02*
D03*
Y731500D02*
D03*
Y741500D02*
D03*
Y751500D02*
D03*
Y761500D02*
D03*
X1169000Y641500D02*
D03*
Y661500D02*
D03*
Y671500D02*
D03*
Y681500D02*
D03*
Y701500D02*
D03*
Y711500D02*
D03*
Y721500D02*
D03*
Y731500D02*
D03*
Y741500D02*
D03*
Y751500D02*
D03*
Y761500D02*
D03*
Y691500D02*
D03*
Y631500D02*
D03*
Y651500D02*
D03*
X1159000D02*
D03*
D47*
Y631500D02*
D03*
D48*
X1061500Y998500D02*
D03*
Y1008500D02*
D03*
X1051500Y998500D02*
D03*
Y1008500D02*
D03*
X1041500Y998500D02*
D03*
Y1008500D02*
D03*
X1031500Y998500D02*
D03*
Y1008500D02*
D03*
X1021500Y998500D02*
D03*
Y1008500D02*
D03*
X1011500Y998500D02*
D03*
Y1008500D02*
D03*
X1001500Y998500D02*
D03*
Y1008500D02*
D03*
X991500Y998500D02*
D03*
Y1008500D02*
D03*
X981500Y998500D02*
D03*
Y1008500D02*
D03*
X971500Y998500D02*
D03*
Y1008500D02*
D03*
X961500Y998500D02*
D03*
Y1008500D02*
D03*
X951500Y998500D02*
D03*
Y1008500D02*
D03*
X941500Y998500D02*
D03*
Y1008500D02*
D03*
X931500Y998500D02*
D03*
Y1008500D02*
D03*
X921500Y998500D02*
D03*
Y1008500D02*
D03*
X911500Y998500D02*
D03*
Y1008500D02*
D03*
X901500Y998500D02*
D03*
Y1008500D02*
D03*
X891500Y998500D02*
D03*
Y1008500D02*
D03*
X881500Y998500D02*
D03*
Y1008500D02*
D03*
X871500Y998500D02*
D03*
Y1008500D02*
D03*
X861500Y998500D02*
D03*
Y1008500D02*
D03*
X851500Y998500D02*
D03*
Y1008500D02*
D03*
X841500Y998500D02*
D03*
Y1008500D02*
D03*
X831500Y998500D02*
D03*
Y1008500D02*
D03*
X821500Y998500D02*
D03*
Y1008500D02*
D03*
X811500Y998500D02*
D03*
Y1008500D02*
D03*
X801500Y998500D02*
D03*
Y1008500D02*
D03*
X791500Y998500D02*
D03*
Y1008500D02*
D03*
X781500Y998500D02*
D03*
Y1008500D02*
D03*
X771500Y998500D02*
D03*
Y1008500D02*
D03*
D49*
X810500Y616000D02*
D03*
X786000D02*
D03*
X959500Y615500D02*
D03*
X885000D02*
D03*
X859109Y618228D02*
D03*
X835500Y614587D02*
D03*
X910000Y615500D02*
D03*
X935500D02*
D03*
X985000D02*
D03*
X1009500Y616000D02*
D03*
X1150000Y615000D02*
D03*
X1065000Y925000D02*
D03*
X950224Y640000D02*
D03*
X1065000Y915500D02*
D03*
X1012524Y742789D02*
D03*
X1013472Y849972D02*
D03*
X1013500Y880000D02*
D03*
X1099420Y784944D02*
D03*
X1009205Y875207D02*
D03*
X1010407Y764024D02*
D03*
X1102000Y796500D02*
D03*
X1013826Y759601D02*
D03*
X1055500Y615500D02*
D03*
X1009205Y845207D02*
D03*
X804000Y935000D02*
D03*
X1117961Y614461D02*
D03*
X1009205Y795207D02*
D03*
X1010500Y905000D02*
D03*
X1097000Y804000D02*
D03*
X885724Y644159D02*
D03*
X1014000Y910000D02*
D03*
X1101000Y827000D02*
D03*
X1009205Y835207D02*
D03*
X1087232Y615959D02*
D03*
X1009205Y805207D02*
D03*
X767500Y699000D02*
D03*
X1102000Y812000D02*
D03*
X1013500Y830000D02*
D03*
X766500Y725500D02*
D03*
X1009205Y885207D02*
D03*
X1013500Y860000D02*
D03*
X775500Y699000D02*
D03*
X1013500Y810000D02*
D03*
X1009205Y855207D02*
D03*
X774000Y725500D02*
D03*
X1010929Y894876D02*
D03*
X1009205Y825207D02*
D03*
X767000Y938500D02*
D03*
Y965500D02*
D03*
X894224Y640000D02*
D03*
X1013500Y840000D02*
D03*
X774000Y939217D02*
D03*
X1013500Y800000D02*
D03*
Y820000D02*
D03*
X774000Y965500D02*
D03*
X1014295Y890272D02*
D03*
X1009205Y815207D02*
D03*
X780500Y965500D02*
D03*
X1043500Y756500D02*
D03*
X1009205Y865207D02*
D03*
X781000Y938500D02*
D03*
X1041000Y781500D02*
D03*
X1013500Y870000D02*
D03*
X799000Y939217D02*
D03*
X1013837Y769683D02*
D03*
X1009215Y755216D02*
D03*
X799000Y965283D02*
D03*
X1009215Y775216D02*
D03*
X1013926Y900074D02*
D03*
X1001224Y548000D02*
D03*
X1043000Y774000D02*
D03*
X926224Y640000D02*
D03*
X969000Y699000D02*
D03*
X1042591Y747500D02*
D03*
X902224Y640000D02*
D03*
X969039Y724961D02*
D03*
X1043500Y766000D02*
D03*
X934224Y640000D02*
D03*
X1065000Y905000D02*
D03*
X1049000Y770000D02*
D03*
X918224Y640000D02*
D03*
X1048000Y761000D02*
D03*
X910224Y640000D02*
D03*
X1048500Y752000D02*
D03*
X942224Y640000D02*
D03*
X1068000Y881500D02*
D03*
X958224Y640000D02*
D03*
X1068500Y872000D02*
D03*
X1013510Y750010D02*
D03*
M02*
